<?xml version="1.0" encoding="UTF-8"?>
<!-- Flat -->
<svg version="1.1" xmlns="http://www.w3.org/2000/svg" xmlns:xlink="http://www.w3.org/1999/xlink" width="453.5433" height="396.8504">
<title>Untitled</title>
<polyline points="151.045 333.1555 160.1777 331.516 169.3105 331.5326 178.4432 331.5021 187.5759 331.5622 196.7087 331.4236 205.8414 331.5312 214.9741 331.5756 224.1069 331.5705 233.2396 331.5818 242.3723 332.3319 251.5051 332.39 260.6378 332.3882 269.7705 332.4045 278.9033 332.4092 288.036 332.3891 297.1687 332.4369 306.3015 332.3811 315.4342 332.3747 324.5669 332.4368 333.6997 332.3785" stroke="rgb(0,0,0)" fill="none" stroke-width="1.25" />
<polyline points="144.5872 326.2285 153.7199 322.2881 162.8526 322.5507 171.9854 322.6653 181.1181 322.5945 190.2508 322.5977 199.3836 322.6446 208.5163 322.691 217.649 322.6245 226.7818 322.6669 235.9145 322.5948 245.0472 322.6059 254.18 322.6804 263.3127 322.7049 272.4454 322.7126 281.5782 322.7211 290.7109 322.7592 299.8436 322.8412 308.9764 322.7694 318.1091 322.7683 327.2418 324.542" stroke="rgb(0,0,0)" fill="none" stroke-width="1.25" />
<polyline points="138.1294 319.1922 147.2621 313.3649 156.3948 313.5334 165.5276 313.5653 174.6603 313.7047 183.793 313.6116 192.9258 313.6631 202.0585 313.5951 211.1912 313.7173 220.324 313.7279 229.4567 313.6935 238.5894 313.7412 247.7222 313.7141 256.8549 313.7511 265.9876 313.7456 275.1204 313.6561 284.2531 313.6452 293.3858 313.6903 302.5186 313.6994 311.6513 313.7343 320.784 313.7726" stroke="rgb(0,0,0)" fill="none" stroke-width="1.25" />
<polyline points="131.6715 312.3672 140.8043 304.4391 149.937 304.6384 159.0697 304.6535 168.2025 304.6766 177.3352 304.7385 186.4679 304.636 195.6007 304.7244 204.7334 304.7072 213.8661 304.7887 222.9989 304.806 232.1316 304.6736 241.2643 304.7969 250.3971 304.8565 259.5298 304.8057 268.6625 304.7717 277.7953 304.8242 286.928 304.8258 296.0607 304.8043 305.1935 304.8645 314.3262 304.6846" stroke="rgb(0,0,0)" fill="none" stroke-width="1.25" />
<polyline points="125.2137 304.0317 134.3465 295.3399 143.4792 295.529 152.6119 295.5483 161.7447 294.3011 170.8774 295.5985 180.0101 295.5438 189.1429 295.6336 198.2756 295.7054 207.4083 295.5076 216.5411 295.6954 225.6738 295.7358 234.8065 295.6636 243.9393 295.0802 253.072 295.8667 262.2047 295.8408 271.3375 294.5101 280.4702 295.5036 289.6029 295.8019 298.7357 295.7348 307.8684 295.8273" stroke="rgb(0,0,0)" fill="none" stroke-width="1.25" />
<polyline points="118.7559 296.7892 127.8886 284.6076 137.0214 286.1476 146.1541 285.0497 155.2868 285.0893 164.4196 285.1201 173.5523 285.1256 182.685 285.1766 191.8178 285.2425 200.9505 285.1389 210.0832 285.2714 219.216 285.3872 228.3487 285.244 237.4814 285.2447 246.6142 285.2961 255.7469 285.2404 264.8796 285.2473 274.0124 285.357 283.1451 285.2542 292.2778 285.2975 301.4106 285.2213" stroke="rgb(0,0,0)" fill="none" stroke-width="1.25" />
<polyline points="112.2981 289.7955 121.4308 275.4487 130.5636 275.5689 139.6963 275.9132 148.829 275.8294 157.9618 275.9488 167.0945 276.0646 176.2272 275.9747 185.36 276.0089 194.4927 275.9936 203.6254 275.9668 212.7582 276.1214 221.8909 276.0109 231.0236 276.0588 240.1564 276.0356 249.2891 276.1284 258.4218 276.1335 267.5546 276.1209 276.6873 276.154 285.82 276.1203 294.9528 276.1293" stroke="rgb(0,0,0)" fill="none" stroke-width="1.25" />
<polyline points="105.8403 282.8442 114.973 266.0741 124.1057 266.5727 133.2385 266.6138 142.3712 266.5137 151.5039 266.6281 160.6367 266.6054 169.7694 266.5661 178.9021 266.8646 188.0349 266.7302 197.1676 266.812 206.3003 266.7554 215.4331 266.8445 224.5658 266.7331 233.6985 266.7057 242.8313 266.8159 251.964 266.8542 261.0967 266.8018 270.2295 266.9406 279.3622 266.9556 288.4949 266.9112" stroke="rgb(0,0,0)" fill="none" stroke-width="1.25" />
<polyline points="99.3825 275.5814 108.5152 256.7584 117.6479 257.0567 126.7807 257.1544 135.9134 257.0851 145.0461 257.4991 154.1789 257.1228 163.3116 256.8392 172.4443 257.3757 181.5771 257.3722 190.7098 257.2933 199.8425 257.2827 208.9753 257.5532 218.108 257.4 227.2407 257.4781 236.3735 257.1559 245.5062 257.5459 254.6389 257.5195 263.7717 257.3181 272.9044 257.4415 282.0371 255.9818" stroke="rgb(0,0,0)" fill="none" stroke-width="1.25" />
<polyline points="92.9246 268.4539 102.0574 247.3558 111.1901 247.5171 120.3228 247.4085 129.4556 247.9999 138.5883 246.4753 147.721 247.9935 156.8538 246.4031 165.9865 248.1819 175.1192 246.6344 184.252 247.9716 193.3847 246.668 202.5174 248.207 211.6502 246.7463 220.7829 248.3259 229.9156 246.6459 239.0484 247.991 248.1811 247.7077 257.3138 247.3855 266.4466 248.4465 275.5793 248.0253" stroke="rgb(0,0,0)" fill="none" stroke-width="1.25" />
<polyline points="86.4668 261.2454 95.5995 237.8923 104.7323 238.0917 113.865 236.842 122.9978 238.3376 132.1305 238.2379 141.2632 237.2206 150.396 238.451 159.5287 238.7928 168.6614 237.2397 177.7942 238.6907 186.9269 237.1688 196.0596 238.6494 205.1924 238.774 214.3251 238.5878 223.4578 238.3458 232.5906 238.4591 241.7233 238.7762 250.856 238.3489 259.9888 237.6764 269.1215 238.8386" stroke="rgb(0,0,0)" fill="none" stroke-width="1.25" />
<polyline points="80.009 252.6222 89.1417 228.4289 98.2745 227.3004 107.4072 227.6898 116.5399 227.7982 125.6727 227.7892 134.8054 227.7483 143.9381 227.6866 153.0709 229.4488 162.2036 228.0566 171.3363 227.8237 180.4691 227.9174 189.6018 227.9498 198.7345 227.9885 207.8673 227.949 217 229.2994 226.1327 227.8395 235.2655 227.7764 244.3982 228.0621 253.5309 229.3297 262.6637 227.9716" stroke="rgb(0,0,0)" fill="none" stroke-width="1.25" />
<polyline points="73.5512 245.874 82.6839 219.1118 91.8166 217.6833 100.9494 218.3587 110.0821 218.567 119.2148 218.6069 128.3476 218.4011 137.4803 218.6102 146.613 218.8263 155.7458 218.6427 164.8785 218.733 174.0112 218.6435 183.144 218.7587 192.2767 218.7629 201.4094 218.7681 210.5422 218.733 219.6749 218.7913 228.8076 218.712 237.9404 218.7536 247.0731 218.9079 256.2058 218.6104" stroke="rgb(0,0,0)" fill="none" stroke-width="1.25" />
<polyline points="67.0934 238.2938 76.2261 207.4744 85.3588 209.4168 94.4916 208.2027 103.6243 208.7452 112.757 208.7483 121.8898 208.854 131.0225 208.9682 140.1552 208.7925 149.288 208.8877 158.4207 208.646 167.5534 208.8591 176.6862 209.3872 185.8189 209.1704 194.9516 209.25 204.0844 208.6912 213.2171 208.9518 222.3498 209.244 231.4826 208.9333 240.6153 209.3505 249.748 209.2835" stroke="rgb(0,0,0)" fill="none" stroke-width="1.25" />
<polyline points="60.6355 230.915 69.7683 198.0585 78.901 198.2096 88.0337 199.254 97.1665 199.6683 106.2992 199.3842 115.4319 199.5592 124.5647 199.3599 133.6974 199.4657 142.8301 199.5505 151.9629 199.8969 161.0956 199.4911 170.2283 199.7521 179.3611 199.572 188.4938 199.7233 197.6265 199.6551 206.7593 199.5296 215.892 199.5479 225.0247 199.9583 234.1575 199.5715 243.2902 199.901" stroke="rgb(0,0,0)" fill="none" stroke-width="1.25" />
<polyline points="54.1777 224.1622 63.3105 188.5763 72.4432 189.0852 81.5759 189.4936 90.7087 188.4781 99.8414 190.1479 108.9741 189.7473 118.1069 188.5847 127.2396 190.2655 136.3723 189.9668 145.5051 189.8927 154.6378 190.0065 163.7705 190.1386 172.9033 190.4903 182.036 189.0293 191.1687 190.4085 200.3015 190.1598 209.4342 189.5155 218.5669 189.8902 227.6997 189.9576 236.8324 190.1639" stroke="rgb(0,0,0)" fill="none" stroke-width="1.25" />
<polyline points="47.7199 216.6632 56.8526 178.954 65.9854 179.049 75.1181 180.1221 84.2508 180.5228 93.3836 180.625 102.5163 180.6056 111.649 180.4565 120.7818 180.7135 129.9145 180.7802 139.0472 180.8832 148.18 181.0187 157.3127 180.7999 166.4454 180.7951 175.5782 180.7232 184.7109 180.8746 193.8436 180.4331 202.9764 180.465 212.1091 180.1982 221.2418 180.1577 230.3746 180.9785" stroke="rgb(0,0,0)" fill="none" stroke-width="1.25" />
<polyline points="41.2621 209.0258 50.3948 169.0106 59.5276 169.2908 68.6603 169.1138 77.793 170.9867 86.9258 169.5257 96.0585 170.7507 105.1912 170.6726 114.324 170.9777 123.4567 169.8238 132.5894 171.458 141.7222 170.8218 150.8549 170.8302 159.9876 171.1421 169.1204 169.8701 178.2531 170.6355 187.3858 170.5319 196.5186 170.5818 205.6513 170.9093 214.784 170.6325 223.9168 170.9683" stroke="rgb(0,0,0)" fill="none" stroke-width="1.25" />
<polyline points="34.8043 200.688 43.937 161.9266 53.0697 159.3025 62.2025 160.0442 71.3352 160.6789 80.4679 160.1712 89.6007 161.7997 98.7334 161.7144 107.8661 161.2188 116.9989 161.4831 126.1316 161.5591 135.2643 160.455 144.3971 162.0576 153.5298 161.7151 162.6625 160.3585 171.7953 160.9003 180.928 160.3949 190.0607 160.7264 199.1935 161.2159 208.3262 161.4446 217.4589 162.0171" stroke="rgb(0,0,0)" fill="none" stroke-width="1.25" />
<polyline points="166.6355 340.1546 160.1777 331.516 153.7199 322.2881 147.2621 313.3649 140.8043 304.4391 134.3465 295.3399 127.8886 284.6076 121.4308 275.4487 114.973 266.0741 108.5152 256.7584 102.0574 247.3558 95.5995 237.8923 89.1417 228.4289 82.6839 219.1118 76.2261 207.4744 69.7683 198.0585 63.3105 188.5763 56.8526 178.954 50.3948 169.0106 43.937 161.9266 37.4792 149.5358" stroke="rgb(0,0,0)" fill="none" stroke-width="1.25" />
<polyline points="175.7683 340.1553 169.3105 331.5326 162.8526 322.5507 156.3948 313.5334 149.937 304.6384 143.4792 295.529 137.0214 286.1476 130.5636 275.5689 124.1057 266.5727 117.6479 257.0567 111.1901 247.5171 104.7323 238.0917 98.2745 227.3004 91.8166 217.6833 85.3588 209.4168 78.901 198.2096 72.4432 189.0852 65.9854 179.049 59.5276 169.2908 53.0697 159.3025 46.6119 149.609" stroke="rgb(0,0,0)" fill="none" stroke-width="1.25" />
<polyline points="184.901 340.1553 178.4432 331.5021 171.9854 322.6653 165.5276 313.5653 159.0697 304.6535 152.6119 295.5483 146.1541 285.0497 139.6963 275.9132 133.2385 266.6138 126.7807 257.1544 120.3228 247.4085 113.865 236.842 107.4072 227.6898 100.9494 218.3587 94.4916 208.2027 88.0337 199.254 81.5759 189.4936 75.1181 180.1221 68.6603 169.1138 62.2025 160.0442 55.7447 150.6674" stroke="rgb(0,0,0)" fill="none" stroke-width="1.25" />
<polyline points="194.0337 340.1558 187.5759 331.5622 181.1181 322.5945 174.6603 313.7047 168.2025 304.6766 161.7447 294.3011 155.2868 285.0893 148.829 275.8294 142.3712 266.5137 135.9134 257.0851 129.4556 247.9999 122.9978 238.3376 116.5399 227.7982 110.0821 218.567 103.6243 208.7452 97.1665 199.6683 90.7087 188.4781 84.2508 180.5228 77.793 170.9867 71.3352 160.6789 64.8774 150.4237" stroke="rgb(0,0,0)" fill="none" stroke-width="1.25" />
<polyline points="203.1665 340.1555 196.7087 331.4236 190.2508 322.5977 183.793 313.6116 177.3352 304.7385 170.8774 295.5985 164.4196 285.1201 157.9618 275.9488 151.5039 266.6281 145.0461 257.4991 138.5883 246.4753 132.1305 238.2379 125.6727 227.7892 119.2148 218.6069 112.757 208.7483 106.2992 199.3842 99.8414 190.1479 93.3836 180.625 86.9258 169.5257 80.4679 160.1712 74.0101 150.8588" stroke="rgb(0,0,0)" fill="none" stroke-width="1.25" />
<polyline points="212.2992 340.1557 205.8414 331.5312 199.3836 322.6446 192.9258 313.6631 186.4679 304.636 180.0101 295.5438 173.5523 285.1256 167.0945 276.0646 160.6367 266.6054 154.1789 257.1228 147.721 247.9935 141.2632 237.2206 134.8054 227.7483 128.3476 218.4011 121.8898 208.854 115.4319 199.5592 108.9741 189.7473 102.5163 180.6056 96.0585 170.7507 89.6007 161.7997 83.1429 150.7231" stroke="rgb(0,0,0)" fill="none" stroke-width="1.25" />
<polyline points="221.4319 340.1557 214.9741 331.5756 208.5163 322.691 202.0585 313.5951 195.6007 304.7244 189.1429 295.6336 182.685 285.1766 176.2272 275.9747 169.7694 266.5661 163.3116 256.8392 156.8538 246.4031 150.396 238.451 143.9381 227.6866 137.4803 218.6102 131.0225 208.9682 124.5647 199.3599 118.1069 188.5847 111.649 180.4565 105.1912 170.6726 98.7334 161.7144 92.2756 150.5956" stroke="rgb(0,0,0)" fill="none" stroke-width="1.25" />
<polyline points="230.5647 340.1558 224.1069 331.5705 217.649 322.6245 211.1912 313.7173 204.7334 304.7072 198.2756 295.7054 191.8178 285.2425 185.36 276.0089 178.9021 266.8646 172.4443 257.3757 165.9865 248.1819 159.5287 238.7928 153.0709 229.4488 146.613 218.8263 140.1552 208.7925 133.6974 199.4657 127.2396 190.2655 120.7818 180.7135 114.324 170.9777 107.8661 161.2188 101.4083 151.9063" stroke="rgb(0,0,0)" fill="none" stroke-width="1.25" />
<polyline points="239.6974 340.1557 233.2396 331.5818 226.7818 322.6669 220.324 313.7279 213.8661 304.7887 207.4083 295.5076 200.9505 285.1389 194.4927 275.9936 188.0349 266.7302 181.5771 257.3722 175.1192 246.6344 168.6614 237.2397 162.2036 228.0566 155.7458 218.6427 149.288 208.8877 142.8301 199.5505 136.3723 189.9668 129.9145 180.7802 123.4567 169.8238 116.9989 161.4831 110.5411 150.9744" stroke="rgb(0,0,0)" fill="none" stroke-width="1.25" />
<polyline points="248.8301 340.1558 242.3723 332.3319 235.9145 322.5948 229.4567 313.6935 222.9989 304.806 216.5411 295.6954 210.0832 285.2714 203.6254 275.9668 197.1676 266.812 190.7098 257.2933 184.252 247.9716 177.7942 238.6907 171.3363 227.8237 164.8785 218.733 158.4207 208.646 151.9629 199.8969 145.5051 189.8927 139.0472 180.8832 132.5894 171.458 126.1316 161.5591 119.6738 151.0831" stroke="rgb(0,0,0)" fill="none" stroke-width="1.25" />
<polyline points="257.9629 340.1557 251.5051 332.39 245.0472 322.6059 238.5894 313.7412 232.1316 304.6736 225.6738 295.7358 219.216 285.3872 212.7582 276.1214 206.3003 266.7554 199.8425 257.2827 193.3847 246.668 186.9269 237.1688 180.4691 227.9174 174.0112 218.6435 167.5534 208.8591 161.0956 199.4911 154.6378 190.0065 148.18 181.0187 141.7222 170.8218 135.2643 160.455 128.8065 151.6424" stroke="rgb(0,0,0)" fill="none" stroke-width="1.25" />
<polyline points="267.0956 340.1557 260.6378 332.3882 254.18 322.6804 247.7222 313.7141 241.2643 304.7969 234.8065 295.6636 228.3487 285.244 221.8909 276.0109 215.4331 266.8445 208.9753 257.5532 202.5174 248.207 196.0596 238.6494 189.6018 227.9498 183.144 218.7587 176.6862 209.3872 170.2283 199.7521 163.7705 190.1386 157.3127 180.7999 150.8549 170.8302 144.3971 162.0576 137.9393 151.9856" stroke="rgb(0,0,0)" fill="none" stroke-width="1.25" />
<polyline points="276.2283 340.1557 269.7705 332.4045 263.3127 322.7049 256.8549 313.7511 250.3971 304.8565 243.9393 295.0802 237.4814 285.2447 231.0236 276.0588 224.5658 266.7331 218.108 257.4 211.6502 246.7463 205.1924 238.774 198.7345 227.9885 192.2767 218.7629 185.8189 209.1704 179.3611 199.572 172.9033 190.4903 166.4454 180.7951 159.9876 171.1421 153.5298 161.7151 147.072 150.9463" stroke="rgb(0,0,0)" fill="none" stroke-width="1.25" />
<polyline points="285.3611 340.1557 278.9033 332.4092 272.4454 322.7126 265.9876 313.7456 259.5298 304.8057 253.072 295.8667 246.6142 285.2961 240.1564 276.0356 233.6985 266.7057 227.2407 257.4781 220.7829 248.3259 214.3251 238.5878 207.8673 227.949 201.4094 218.7681 194.9516 209.25 188.4938 199.7233 182.036 189.0293 175.5782 180.7232 169.1204 169.8701 162.6625 160.3585 156.2047 151.5242" stroke="rgb(0,0,0)" fill="none" stroke-width="1.25" />
<polyline points="294.4938 340.1558 288.036 332.3891 281.5782 322.7211 275.1204 313.6561 268.6625 304.7717 262.2047 295.8408 255.7469 285.2404 249.2891 276.1284 242.8313 266.8159 236.3735 257.1559 229.9156 246.6459 223.4578 238.3458 217 229.2994 210.5422 218.733 204.0844 208.6912 197.6265 199.6551 191.1687 190.4085 184.7109 180.8746 178.2531 170.6355 171.7953 160.9003 165.3375 152.0895" stroke="rgb(0,0,0)" fill="none" stroke-width="1.25" />
<polyline points="303.6265 340.1557 297.1687 332.4369 290.7109 322.7592 284.2531 313.6452 277.7953 304.8242 271.3375 294.5101 264.8796 285.2473 258.4218 276.1335 251.964 266.8542 245.5062 257.5459 239.0484 247.991 232.5906 238.4591 226.1327 227.8395 219.6749 218.7913 213.2171 208.9518 206.7593 199.5296 200.3015 190.1598 193.8436 180.4331 187.3858 170.5319 180.928 160.3949 174.4702 150.6606" stroke="rgb(0,0,0)" fill="none" stroke-width="1.25" />
<polyline points="312.7593 340.1557 306.3015 332.3811 299.8436 322.8412 293.3858 313.6903 286.928 304.8258 280.4702 295.5036 274.0124 285.357 267.5546 276.1209 261.0967 266.8018 254.6389 257.5195 248.1811 247.7077 241.7233 238.7762 235.2655 227.7764 228.8076 218.712 222.3498 209.244 215.892 199.5479 209.4342 189.5155 202.9764 180.465 196.5186 170.5818 190.0607 160.7264 183.6029 151.6473" stroke="rgb(0,0,0)" fill="none" stroke-width="1.25" />
<polyline points="321.892 340.1557 315.4342 332.3747 308.9764 322.7694 302.5186 313.6994 296.0607 304.8043 289.6029 295.8019 283.1451 285.2542 276.6873 276.154 270.2295 266.9406 263.7717 257.3181 257.3138 247.3855 250.856 238.3489 244.3982 228.0621 237.9404 218.7536 231.4826 208.9333 225.0247 199.9583 218.5669 189.8902 212.1091 180.1982 205.6513 170.9093 199.1935 161.2159 192.7357 151.8769" stroke="rgb(0,0,0)" fill="none" stroke-width="1.25" />
<polyline points="331.0247 340.1557 324.5669 332.4368 318.1091 322.7683 311.6513 313.7343 305.1935 304.8645 298.7357 295.7348 292.2778 285.2975 285.82 276.1203 279.3622 266.9556 272.9044 257.4415 266.4466 248.4465 259.9888 237.6764 253.5309 229.3297 247.0731 218.9079 240.6153 209.3505 234.1575 199.5715 227.6997 189.9576 221.2418 180.1577 214.784 170.6325 208.3262 161.4446 201.8684 150.7983" stroke="rgb(0,0,0)" fill="none" stroke-width="1.25" />
<polygon points="157.5028 340.1473 166.6355 340.1546 175.7683 340.1553 184.901 340.1553 194.0337 340.1558 203.1665 340.1555 212.2992 340.1557 221.4319 340.1557 230.5647 340.1558 239.6974 340.1557 248.8301 340.1558 257.9629 340.1557 267.0956 340.1557 276.2283 340.1557 285.3611 340.1557 294.4938 340.1558 303.6265 340.1557 312.7593 340.1557 321.892 340.1557 331.0247 340.1557 340.1575 340.1555 340.1575 340.1555 333.6997 332.3785 327.2418 324.542 320.784 313.7726 314.3262 304.6846 307.8684 295.8273 301.4106 285.2213 294.9528 276.1293 288.4949 266.9112 282.0371 255.9818 275.5793 248.0253 269.1215 238.8386 262.6637 227.9716 256.2058 218.6104 249.748 209.2835 243.2902 199.901 236.8324 190.1639 230.3746 180.9785 223.9168 170.9683 217.4589 162.0171 211.0011 151.5326 211.0011 151.5326 201.8684 150.7983 192.7357 151.8769 183.6029 151.6473 174.4702 150.6606 165.3375 152.0895 156.2047 151.5242 147.072 150.9463 137.9393 151.9856 128.8065 151.6424 119.6738 151.0831 110.5411 150.9744 101.4083 151.9063 92.2756 150.5956 83.1429 150.7231 74.0101 150.8588 64.8774 150.4237 55.7447 150.6674 46.6119 149.609 37.4792 149.5358 28.3465 194.463 28.3465 194.463 34.8043 200.688 41.2621 209.0258 47.7199 216.6632 54.1777 224.1622 60.6355 230.915 67.0934 238.2938 73.5512 245.874 80.009 252.6222 86.4668 261.2454 92.9246 268.4539 99.3825 275.5814 105.8403 282.8442 112.2981 289.7955 118.7559 296.7892 125.2137 304.0317 131.6715 312.3672 138.1294 319.1922 144.5872 326.2285 151.045 333.1555 157.5028 340.1473" stroke="rgb(0,0,0)" fill="none" stroke-width="1.25" />
<polygon points="157.5028 340.1575 340.1575 340.1575 340.1575 157.5028 211.0011 28.3465 28.3465 28.3465 28.3465 211.0011" stroke="rgb(0,0,0)" fill="none" stroke-width="0.25" />
<polyline points="157.5028 340.1575 157.5028 157.5028 340.1575 157.5028" stroke="rgb(0,0,0)" fill="none" stroke-width="0.25" />
<line x1="28.3465" y1="28.3465" x2="157.5028" y2="157.5028" stroke="rgb(0,0,0)" fill="none" stroke-width="0.25" />
<polyline points="28.3465 211.0011 211.0011 211.0011 211.0011 28.3465" stroke="rgb(0,0,0)" fill="none" stroke-width="0.25" />
<line x1="211.0011" y1="211.0011" x2="340.1575" y2="340.1575" stroke="rgb(0,0,0)" fill="none" stroke-width="0.25" />
<path d="M235.2101,357.0207 L236.5901,361.0407 L237.8301,357.0207 L239.4601,357.0207 L240.6901,361.0407 L242.0801,357.0207 L243.7701,357.0207 L241.3301,364.0107 L240.1701,364.0107 L238.6401,359.1507 L237.1201,364.0107 L235.9601,364.0107 L233.5201,357.0207 L235.2101,357.0207 z" fill="rgb(0,0,0)" />
<path d="M245.9501,358.6307 L245.9501,364.0107 L244.4501,364.0107 L244.4501,358.6307 L245.9501,358.6307 z M245.2001,358.2007 Q244.8301,358.2007,244.5751,357.9457 Q244.3201,357.6907,244.3201,357.3207 Q244.3201,356.9507,244.5751,356.6957 Q244.8301,356.4407,245.2001,356.4407 Q245.5701,356.4407,245.8251,356.6957 Q246.0801,356.9507,246.0801,357.3207 Q246.0801,357.6907,245.8251,357.9457 Q245.5701,358.2007,245.2001,358.2007 z" fill="rgb(0,0,0)" />
<path d="M251.1101,363.3007 Q250.4801,364.0907,249.5251,364.0907 Q248.5701,364.0907,247.8201,363.2807 Q247.0701,362.4707,247.0701,361.2707 Q247.0701,360.0707,247.8001,359.3057 Q248.5301,358.5407,249.5101,358.5407 Q250.4901,358.5407,251.1101,359.2307 L251.1101,356.5907 L252.6101,356.5907 L252.6101,364.0107 L251.1101,364.0107 L251.1101,363.3007 z M248.9601,360.2407 Q248.5801,360.6807,248.5801,361.3307 Q248.5801,361.9807,248.9701,362.3957 Q249.3601,362.8107,249.8801,362.8107 Q250.4001,362.8107,250.7651,362.3957 Q251.1301,361.9807,251.1301,361.3257 Q251.1301,360.6707,250.7651,360.2357 Q250.4001,359.8007,249.8701,359.8007 Q249.3401,359.8007,248.9601,360.2407 z" fill="rgb(0,0,0)" />
<path d="M257.1201,359.7107 L255.8201,359.7107 L255.8201,362.1207 Q255.8201,362.4307,255.9801,362.6057 Q256.1401,362.7807,256.3601,362.7807 Q256.7801,362.7807,257.0701,362.4007 L257.6301,363.4507 Q256.9301,364.0907,256.1551,364.0907 Q255.3801,364.0907,254.8451,363.5807 Q254.3101,363.0707,254.3101,362.1907 L254.3101,359.7107 L253.6801,359.7107 L253.6801,358.6307 L254.3101,358.6307 L254.3101,357.0207 L255.8201,357.0207 L255.8201,358.6307 L257.1201,358.6307 L257.1201,359.7107 z" fill="rgb(0,0,0)" />
<path d="M260.2651,360.1557 Q259.9301,360.4807,259.9301,361.1107 L259.9301,364.0107 L258.4301,364.0107 L258.4301,356.5907 L259.9301,356.5907 L259.9301,359.2307 Q260.6101,358.5407,261.4551,358.5407 Q262.3001,358.5407,262.8801,359.1407 Q263.4601,359.7407,263.4601,360.7407 L263.4601,364.0107 L261.9601,364.0107 L261.9601,361.0707 Q261.9601,359.8307,261.0501,359.8307 Q260.6001,359.8307,260.2651,360.1557 z" fill="rgb(0,0,0)" />
<path d="M233.8401,370.0707 L233.8401,369.0207 L236.3801,369.0207 L236.3801,376.0107 L235.2601,376.0107 L235.2601,370.0707 L233.8401,370.0707 z" fill="rgb(0,0,0)" />
<path d="M244.6601,373.7507 L240.9201,373.7507 L240.9201,373.0807 L244.6601,373.0807 L244.6601,373.7507 z" fill="rgb(0,0,0)" />
<path d="M249.0601,369.0107 L253.0801,369.0107 L253.0801,370.0807 L250.1301,370.0807 L250.1301,371.8007 Q250.5701,371.5607,251.1301,371.5607 Q252.1101,371.5607,252.8201,372.1507 Q253.5301,372.7407,253.5301,373.7507 Q253.5301,374.7607,252.7901,375.4257 Q252.0501,376.0907,250.9701,376.0907 Q249.5601,376.0907,248.7201,375.1507 L249.3501,374.2907 Q249.4301,374.3707,249.5651,374.4807 Q249.7001,374.5907,250.1201,374.7757 Q250.5401,374.9607,251.0401,374.9607 Q251.5401,374.9607,251.9501,374.6607 Q252.3601,374.3607,252.3601,373.7857 Q252.3601,373.2107,251.9251,372.8957 Q251.4901,372.5807,250.8251,372.5807 Q250.1601,372.5807,249.5601,372.9107 L249.0601,372.3707 L249.0601,369.0107 z" fill="rgb(0,0,0)" />
<path d="M257.4501,369.8607 Q256.5701,369.8607,256.1551,370.5807 Q255.7401,371.3007,255.7401,372.4707 Q255.7401,373.6407,256.1551,374.3607 Q256.5701,375.0807,257.4501,375.0807 Q258.3301,375.0807,258.7351,374.3657 Q259.1401,373.6507,259.1401,372.4707 Q259.1401,371.2907,258.7351,370.5757 Q258.3301,369.8607,257.4501,369.8607 z M257.4501,376.0907 Q256.0201,376.0907,255.3101,375.1057 Q254.6001,374.1207,254.6001,372.4707 Q254.6001,370.8207,255.3101,369.8357 Q256.0201,368.8507,257.4501,368.8507 Q258.8801,368.8507,259.5901,369.8357 Q260.3001,370.8207,260.3001,372.4707 Q260.3001,374.1207,259.5901,375.1057 Q258.8801,376.0907,257.4501,376.0907 z" fill="rgb(0,0,0)" />
<path d="M267.0701,369.8607 Q266.1901,369.8607,265.7751,370.5807 Q265.3601,371.3007,265.3601,372.4707 Q265.3601,373.6407,265.7751,374.3607 Q266.1901,375.0807,267.0701,375.0807 Q267.9501,375.0807,268.3551,374.3657 Q268.7601,373.6507,268.7601,372.4707 Q268.7601,371.2907,268.3551,370.5757 Q267.9501,369.8607,267.0701,369.8607 z M267.0701,376.0907 Q265.6401,376.0907,264.9301,375.1057 Q264.2201,374.1207,264.2201,372.4707 Q264.2201,370.8207,264.9301,369.8357 Q265.6401,368.8507,267.0701,368.8507 Q268.5001,368.8507,269.2101,369.8357 Q269.9201,370.8207,269.9201,372.4707 Q269.9201,374.1207,269.2101,375.1057 Q268.5001,376.0907,267.0701,376.0907 z" fill="rgb(0,0,0)" />
<path d="M273.9501,369.8607 Q273.0701,369.8607,272.6551,370.5807 Q272.2401,371.3007,272.2401,372.4707 Q272.2401,373.6407,272.6551,374.3607 Q273.0701,375.0807,273.9501,375.0807 Q274.8301,375.0807,275.2351,374.3657 Q275.6401,373.6507,275.6401,372.4707 Q275.6401,371.2907,275.2351,370.5757 Q274.8301,369.8607,273.9501,369.8607 z M273.9501,376.0907 Q272.5201,376.0907,271.8101,375.1057 Q271.1001,374.1207,271.1001,372.4707 Q271.1001,370.8207,271.8101,369.8357 Q272.5201,368.8507,273.9501,368.8507 Q275.3801,368.8507,276.0901,369.8357 Q276.8001,370.8207,276.8001,372.4707 Q276.8001,374.1207,276.0901,375.1057 Q275.3801,376.0907,273.9501,376.0907 z" fill="rgb(0,0,0)" />
<path d="M280.8301,369.8607 Q279.9501,369.8607,279.5351,370.5807 Q279.1201,371.3007,279.1201,372.4707 Q279.1201,373.6407,279.5351,374.3607 Q279.9501,375.0807,280.8301,375.0807 Q281.7101,375.0807,282.1151,374.3657 Q282.5201,373.6507,282.5201,372.4707 Q282.5201,371.2907,282.1151,370.5757 Q281.7101,369.8607,280.8301,369.8607 z M280.8301,376.0907 Q279.4001,376.0907,278.6901,375.1057 Q277.9801,374.1207,277.9801,372.4707 Q277.9801,370.8207,278.6901,369.8357 Q279.4001,368.8507,280.8301,368.8507 Q282.2601,368.8507,282.9701,369.8357 Q283.6801,370.8207,283.6801,372.4707 Q283.6801,374.1207,282.9701,375.1057 Q282.2601,376.0907,280.8301,376.0907 z" fill="rgb(0,0,0)" />
<path d="M292.4201,375.1107 Q291.4501,376.0907,290.1801,376.0907 Q289.0701,376.0907,288.2701,375.3357 Q287.4701,374.5807,287.4701,373.3607 Q287.4701,372.1407,288.3051,371.3757 Q289.1401,370.6107,290.3401,370.6107 Q291.5401,370.6107,292.3701,371.4407 L291.7101,372.2507 Q291.0201,371.6507,290.3201,371.6507 Q289.6201,371.6507,289.1051,372.1157 Q288.5901,372.5807,288.5901,373.3157 Q288.5901,374.0507,289.1001,374.5607 Q289.6101,375.0707,290.3551,375.0707 Q291.1001,375.0707,291.7601,374.3907 L292.4201,375.1107 z" fill="rgb(0,0,0)" />
<path d="M295.1301,372.0057 Q294.7001,372.3907,294.7001,373.1307 L294.7001,376.0107 L293.5801,376.0107 L293.5801,368.6007 L294.7001,368.6007 L294.7001,371.6607 Q294.9401,371.1707,295.4251,370.8907 Q295.9101,370.6107,296.4701,370.6107 Q297.3701,370.6107,297.9251,371.1607 Q298.4801,371.7107,298.4801,372.7507 L298.4801,376.0107 L297.3601,376.0107 L297.3601,373.0907 Q297.3601,371.6207,296.1401,371.6207 Q295.5601,371.6207,295.1301,372.0057 z" fill="rgb(0,0,0)" />
<path d="M304.3501,372.5807 L304.3501,376.0107 L303.3301,376.0107 L303.3301,375.3007 Q302.6701,376.0907,301.5601,376.0907 Q300.7301,376.0907,300.1851,375.6207 Q299.6401,375.1507,299.6401,374.3657 Q299.6401,373.5807,300.2201,373.1907 Q300.8001,372.8007,301.7901,372.8007 L303.2401,372.8007 L303.2401,372.6007 Q303.2401,371.5407,302.0601,371.5407 Q301.3201,371.5407,300.5201,372.0807 L300.0201,371.3807 Q300.9901,370.6107,302.2201,370.6107 Q303.1601,370.6107,303.7551,371.0857 Q304.3501,371.5607,304.3501,372.5807 z M302.8301,374.8407 Q303.2301,374.5407,303.2301,374.0307 L303.2301,373.5807 L301.9701,373.5807 Q300.7601,373.5807,300.7601,374.3407 Q300.7601,374.7307,301.0601,374.9357 Q301.3601,375.1407,301.8951,375.1407 Q302.4301,375.1407,302.8301,374.8407 z" fill="rgb(0,0,0)" />
<path d="M308.7601,371.7407 Q308.7301,371.7407,308.7001,371.7407 Q307.8701,371.7407,307.4501,372.2807 Q307.0301,372.8207,307.0301,373.7307 L307.0301,376.0107 L305.9101,376.0107 L305.9101,370.6907 L307.0301,370.6907 L307.0301,371.7607 Q307.3001,371.2607,307.7651,370.9407 Q308.2301,370.6207,308.7501,370.6107 L308.7601,371.7407 z" fill="rgb(0,0,0)" />
<path d="M314.1901,372.5807 L314.1901,376.0107 L313.1701,376.0107 L313.1701,375.3007 Q312.5101,376.0907,311.4001,376.0907 Q310.5701,376.0907,310.0251,375.6207 Q309.4801,375.1507,309.4801,374.3657 Q309.4801,373.5807,310.0601,373.1907 Q310.6401,372.8007,311.6301,372.8007 L313.0801,372.8007 L313.0801,372.6007 Q313.0801,371.5407,311.9001,371.5407 Q311.1601,371.5407,310.3601,372.0807 L309.8601,371.3807 Q310.8301,370.6107,312.0601,370.6107 Q313.0001,370.6107,313.5951,371.0857 Q314.1901,371.5607,314.1901,372.5807 z M312.6701,374.8407 Q313.0701,374.5407,313.0701,374.0307 L313.0701,373.5807 L311.8101,373.5807 Q310.6001,373.5807,310.6001,374.3407 Q310.6001,374.7307,310.9001,374.9357 Q311.2001,375.1407,311.7351,375.1407 Q312.2701,375.1407,312.6701,374.8407 z" fill="rgb(0,0,0)" />
<path d="M320.3501,375.1107 Q319.3801,376.0907,318.1101,376.0907 Q317.0001,376.0907,316.2001,375.3357 Q315.4001,374.5807,315.4001,373.3607 Q315.4001,372.1407,316.2351,371.3757 Q317.0701,370.6107,318.2701,370.6107 Q319.4701,370.6107,320.3001,371.4407 L319.6401,372.2507 Q318.9501,371.6507,318.2501,371.6507 Q317.5501,371.6507,317.0351,372.1157 Q316.5201,372.5807,316.5201,373.3157 Q316.5201,374.0507,317.0301,374.5607 Q317.5401,375.0707,318.2851,375.0707 Q319.0301,375.0707,319.6901,374.3907 L320.3501,375.1107 z" fill="rgb(0,0,0)" />
<path d="M324.2901,371.5907 L322.8901,371.5907 L322.8901,374.2907 Q322.8901,374.6707,323.0901,374.8957 Q323.2901,375.1207,323.6501,375.1207 Q324.0101,375.1207,324.3401,374.7707 L324.8001,375.5607 Q324.2101,376.0907,323.4951,376.0907 Q322.7801,376.0907,322.2751,375.5957 Q321.7701,375.1007,321.7701,374.2607 L321.7701,371.5907 L321.1001,371.5907 L321.1001,370.6907 L321.7701,370.6907 L321.7701,369.0207 L322.8901,369.0207 L322.8901,370.6907 L324.2901,370.6907 L324.2901,371.5907 z" fill="rgb(0,0,0)" />
<path d="M330.6401,373.0707 L330.6401,373.8407 L326.4701,373.8407 Q326.5101,374.4207,327.0001,374.7757 Q327.4901,375.1307,328.1201,375.1307 Q329.1201,375.1307,329.6401,374.5007 L330.2801,375.2007 Q329.4201,376.0907,328.0401,376.0907 Q326.9201,376.0907,326.1351,375.3457 Q325.3501,374.6007,325.3501,373.3457 Q325.3501,372.0907,326.1501,371.3507 Q326.9501,370.6107,328.0351,370.6107 Q329.1201,370.6107,329.8801,371.2657 Q330.6401,371.9207,330.6401,373.0707 z M326.9601,371.9457 Q326.4701,372.3207,326.4701,372.9607 L329.5201,372.9607 Q329.5201,372.2907,329.1001,371.9307 Q328.6801,371.5707,328.0651,371.5707 Q327.4501,371.5707,326.9601,371.9457 z" fill="rgb(0,0,0)" />
<path d="M334.7201,371.7407 Q334.6901,371.7407,334.6601,371.7407 Q333.8301,371.7407,333.4101,372.2807 Q332.9901,372.8207,332.9901,373.7307 L332.9901,376.0107 L331.8701,376.0107 L331.8701,370.6907 L332.9901,370.6907 L332.9901,371.7607 Q333.2601,371.2607,333.7251,370.9407 Q334.1901,370.6207,334.7101,370.6107 L334.7201,371.7407 z" fill="rgb(0,0,0)" />
<path d="M339.0901,373.3007 Q339.6301,373.6607,339.6301,374.4207 Q339.6301,375.1807,339.0801,375.6357 Q338.5301,376.0907,337.6701,376.0907 Q337.0901,376.0907,336.4651,375.8807 Q335.8401,375.6707,335.3601,375.2907 L335.9001,374.4207 Q336.8301,375.1207,337.7001,375.1207 Q338.0801,375.1207,338.3001,374.9457 Q338.5201,374.7707,338.5201,374.5007 Q338.5201,374.1007,337.4601,373.7807 Q337.3801,373.7507,337.3401,373.7407 Q335.6801,373.2907,335.6801,372.2407 Q335.6801,371.5007,336.2551,371.0557 Q336.8301,370.6107,337.7501,370.6107 Q338.6701,370.6107,339.4901,371.1507 L339.0701,371.9807 Q338.4201,371.5507,337.6601,371.5507 Q337.2601,371.5507,337.0101,371.6957 Q336.7601,371.8407,336.7601,372.1307 Q336.7601,372.3907,337.0201,372.5107 Q337.2001,372.6007,337.5251,372.6807 Q337.8501,372.7607,338.1001,372.8407 Q338.3501,372.9207,338.5851,373.0207 Q338.8201,373.1207,339.0901,373.3007 z" fill="rgb(0,0,0)" />
<path d="M292.3925,76.7814 Q292.9825,77.3714,293.8225,77.3714 Q294.9725,77.3714,295.7025,76.4614 L296.7025,77.4914 Q295.5125,78.8314,293.8975,78.8314 Q292.2825,78.8314,291.2375,77.8114 Q290.1925,76.7914,290.1925,75.2364 Q290.1925,73.6814,291.2575,72.6414 Q292.3225,71.6014,293.8625,71.6014 Q295.5825,71.6014,296.7425,72.9114 L295.7725,74.0114 Q295.0325,73.0914,293.9325,73.0914 Q293.0525,73.0914,292.4275,73.6664 Q291.8025,74.2414,291.8025,75.2164 Q291.8025,76.1914,292.3925,76.7814 z" fill="rgb(0,0,0)" />
<path d="M299.3575,74.9814 Q298.9825,75.4014,298.9825,76.0614 Q298.9825,76.7214,299.3575,77.1364 Q299.7325,77.5514,300.3175,77.5514 Q300.9025,77.5514,301.2775,77.1364 Q301.6525,76.7214,301.6525,76.0614 Q301.6525,75.4014,301.2775,74.9814 Q300.9025,74.5614,300.3175,74.5614 Q299.7325,74.5614,299.3575,74.9814 z M302.3525,74.0864 Q303.1625,74.8914,303.1625,76.0614 Q303.1625,77.2314,302.3525,78.0314 Q301.5425,78.8314,300.3175,78.8314 Q299.0925,78.8314,298.2825,78.0314 Q297.4725,77.2314,297.4725,76.0614 Q297.4725,74.8914,298.2825,74.0864 Q299.0925,73.2814,300.3175,73.2814 Q301.5425,73.2814,302.3525,74.0864 z" fill="rgb(0,0,0)" />
<path d="M307.4125,77.2164 Q307.7425,76.8914,307.7425,76.2714 L307.7425,73.3714 L309.2525,73.3714 L309.2525,78.7514 L307.7425,78.7514 L307.7425,78.0414 Q307.1825,78.8314,306.2975,78.8314 Q305.4125,78.8314,304.8125,78.2764 Q304.2125,77.7214,304.2125,76.6314 L304.2125,73.3714 L305.7225,73.3714 L305.7225,76.3014 Q305.7225,77.5414,306.6325,77.5414 Q307.0825,77.5414,307.4125,77.2164 z" fill="rgb(0,0,0)" />
<path d="M312.5075,74.7964 Q312.1725,75.1214,312.1725,75.7514 L312.1725,78.7514 L310.6725,78.7514 L310.6725,73.3714 L312.1725,73.3714 L312.1725,73.9714 Q312.8525,73.2814,313.7025,73.2814 Q314.5525,73.2814,315.1275,73.8814 Q315.7025,74.4814,315.7025,75.4814 L315.7025,78.7514 L314.2025,78.7514 L314.2025,75.7114 Q314.2025,74.4714,313.2925,74.4714 Q312.8425,74.4714,312.5075,74.7964 z" fill="rgb(0,0,0)" />
<path d="M320.1525,74.4514 L318.8525,74.4514 L318.8525,76.8614 Q318.8525,77.1714,319.0125,77.3464 Q319.1725,77.5214,319.3925,77.5214 Q319.8125,77.5214,320.1025,77.1414 L320.6625,78.1914 Q319.9625,78.8314,319.1875,78.8314 Q318.4125,78.8314,317.8775,78.3214 Q317.3425,77.8114,317.3425,76.9314 L317.3425,74.4514 L316.7125,74.4514 L316.7125,73.3714 L317.3425,73.3714 L317.3425,71.7614 L318.8525,71.7614 L318.8525,73.3714 L320.1525,73.3714 L320.1525,74.4514 z" fill="rgb(0,0,0)" />
<path d="M290.0425,84.8114 L290.0425,83.7614 L292.5825,83.7614 L292.5825,90.7514 L291.4625,90.7514 L291.4625,84.8114 L290.0425,84.8114 z" fill="rgb(0,0,0)" />
<path d="M300.8625,88.4914 L297.1225,88.4914 L297.1225,87.8214 L300.8625,87.8214 L300.8625,88.4914 z" fill="rgb(0,0,0)" />
<path d="M307.1225,87.6214 Q307.8325,86.9014,308.1325,86.4914 Q308.4325,86.0814,308.4325,85.6614 Q308.4325,85.2414,308.1125,84.9464 Q307.7925,84.6514,307.3025,84.6514 Q306.4425,84.6514,305.8725,85.5314 L304.9225,84.9814 Q305.3825,84.2914,305.9375,83.9414 Q306.4925,83.5914,307.3675,83.5914 Q308.2425,83.5914,308.9025,84.1464 Q309.5625,84.7014,309.5625,85.6614 Q309.5625,86.2014,309.2825,86.6914 Q309.0025,87.1814,308.2525,87.9514 L306.6125,89.6214 L309.7825,89.6214 L309.7825,90.7514 L305.0025,90.7514 L305.0025,89.7514 L307.1225,87.6214 z" fill="rgb(0,0,0)" />
<path d="M311.1525,83.7514 L315.1725,83.7514 L315.1725,84.8214 L312.2225,84.8214 L312.2225,86.5414 Q312.6625,86.3014,313.2225,86.3014 Q314.2025,86.3014,314.9125,86.8914 Q315.6225,87.4814,315.6225,88.4914 Q315.6225,89.5014,314.8825,90.1664 Q314.1425,90.8314,313.0625,90.8314 Q311.6525,90.8314,310.8125,89.8914 L311.4425,89.0314 Q311.5225,89.1114,311.6575,89.2214 Q311.7925,89.3314,312.2125,89.5164 Q312.6325,89.7014,313.1325,89.7014 Q313.6325,89.7014,314.0425,89.4014 Q314.4525,89.1014,314.4525,88.5264 Q314.4525,87.9514,314.0175,87.6364 Q313.5825,87.3214,312.9175,87.3214 Q312.2525,87.3214,311.6525,87.6514 L311.1525,87.1114 L311.1525,83.7514 z" fill="rgb(0,0,0)" />
<path d="M319.5425,84.6014 Q318.6625,84.6014,318.2475,85.3214 Q317.8325,86.0414,317.8325,87.2114 Q317.8325,88.3814,318.2475,89.1014 Q318.6625,89.8214,319.5425,89.8214 Q320.4225,89.8214,320.8275,89.1064 Q321.2325,88.3914,321.2325,87.2114 Q321.2325,86.0314,320.8275,85.3164 Q320.4225,84.6014,319.5425,84.6014 z M319.5425,90.8314 Q318.1125,90.8314,317.4025,89.8464 Q316.6925,88.8614,316.6925,87.2114 Q316.6925,85.5614,317.4025,84.5764 Q318.1125,83.5914,319.5425,83.5914 Q320.9725,83.5914,321.6825,84.5764 Q322.3925,85.5614,322.3925,87.2114 Q322.3925,88.8614,321.6825,89.8464 Q320.9725,90.8314,319.5425,90.8314 z" fill="rgb(0,0,0)" />
<path d="M329.1625,84.6014 Q328.2825,84.6014,327.8675,85.3214 Q327.4525,86.0414,327.4525,87.2114 Q327.4525,88.3814,327.8675,89.1014 Q328.2825,89.8214,329.1625,89.8214 Q330.0425,89.8214,330.4475,89.1064 Q330.8525,88.3914,330.8525,87.2114 Q330.8525,86.0314,330.4475,85.3164 Q330.0425,84.6014,329.1625,84.6014 z M329.1625,90.8314 Q327.7325,90.8314,327.0225,89.8464 Q326.3125,88.8614,326.3125,87.2114 Q326.3125,85.5614,327.0225,84.5764 Q327.7325,83.5914,329.1625,83.5914 Q330.5925,83.5914,331.3025,84.5764 Q332.0125,85.5614,332.0125,87.2114 Q332.0125,88.8614,331.3025,89.8464 Q330.5925,90.8314,329.1625,90.8314 z" fill="rgb(0,0,0)" />
<path d="M336.0425,84.6014 Q335.1625,84.6014,334.7475,85.3214 Q334.3325,86.0414,334.3325,87.2114 Q334.3325,88.3814,334.7475,89.1014 Q335.1625,89.8214,336.0425,89.8214 Q336.9225,89.8214,337.3275,89.1064 Q337.7325,88.3914,337.7325,87.2114 Q337.7325,86.0314,337.3275,85.3164 Q336.9225,84.6014,336.0425,84.6014 z M336.0425,90.8314 Q334.6125,90.8314,333.9025,89.8464 Q333.1925,88.8614,333.1925,87.2114 Q333.1925,85.5614,333.9025,84.5764 Q334.6125,83.5914,336.0425,83.5914 Q337.4725,83.5914,338.1825,84.5764 Q338.8925,85.5614,338.8925,87.2114 Q338.8925,88.8614,338.1825,89.8464 Q337.4725,90.8314,336.0425,90.8314 z" fill="rgb(0,0,0)" />
<path d="M342.9225,84.6014 Q342.0425,84.6014,341.6275,85.3214 Q341.2125,86.0414,341.2125,87.2114 Q341.2125,88.3814,341.6275,89.1014 Q342.0425,89.8214,342.9225,89.8214 Q343.8025,89.8214,344.2075,89.1064 Q344.6125,88.3914,344.6125,87.2114 Q344.6125,86.0314,344.2075,85.3164 Q343.8025,84.6014,342.9225,84.6014 z M342.9225,90.8314 Q341.4925,90.8314,340.7825,89.8464 Q340.0725,88.8614,340.0725,87.2114 Q340.0725,85.5614,340.7825,84.5764 Q341.4925,83.5914,342.9225,83.5914 Q344.3525,83.5914,345.0625,84.5764 Q345.7725,85.5614,345.7725,87.2114 Q345.7725,88.8614,345.0625,89.8464 Q344.3525,90.8314,342.9225,90.8314 z" fill="rgb(0,0,0)" />
<path d="M353.6625,87.1114 L352.4025,90.7514 L351.1225,90.7514 L349.2825,85.4314 L350.4425,85.4314 L351.7625,89.4514 L353.0825,85.4314 L354.2425,85.4314 L355.5625,89.4514 L356.8825,85.4314 L358.0425,85.4314 L356.2025,90.7514 L354.9225,90.7514 L353.6625,87.1114 z" fill="rgb(0,0,0)" />
<path d="M359.8025,88.0914 Q359.8025,88.8614,360.2775,89.3464 Q360.7525,89.8314,361.4825,89.8314 Q362.2125,89.8314,362.6875,89.3464 Q363.1625,88.8614,363.1625,88.0914 Q363.1625,87.3214,362.6875,86.8364 Q362.2125,86.3514,361.4825,86.3514 Q360.7525,86.3514,360.2775,86.8364 Q359.8025,87.3214,359.8025,88.0914 z M364.2825,88.0914 Q364.2825,89.2414,363.4825,90.0364 Q362.6825,90.8314,361.4825,90.8314 Q360.2825,90.8314,359.4825,90.0364 Q358.6825,89.2414,358.6825,88.0914 Q358.6825,86.9414,359.4825,86.1464 Q360.2825,85.3514,361.4825,85.3514 Q362.6825,85.3514,363.4825,86.1464 Q364.2825,86.9414,364.2825,88.0914 z" fill="rgb(0,0,0)" />
<path d="M368.4025,86.4814 Q368.3725,86.4814,368.3425,86.4814 Q367.5125,86.4814,367.0925,87.0214 Q366.6725,87.5614,366.6725,88.4714 L366.6725,90.7514 L365.5525,90.7514 L365.5525,85.4314 L366.6725,85.4314 L366.6725,86.5014 Q366.9425,86.0014,367.4075,85.6814 Q367.8725,85.3614,368.3925,85.3514 L368.4025,86.4814 z" fill="rgb(0,0,0)" />
<path d="M371.6925,90.8314 Q370.6825,90.8314,369.9325,90.0714 Q369.1825,89.3114,369.1825,88.0714 Q369.1825,86.8314,369.9525,86.0914 Q370.7225,85.3514,371.7875,85.3514 Q372.8525,85.3514,373.5025,86.2514 L373.5025,83.3314 L374.6225,83.3314 L374.6225,90.7514 L373.5025,90.7514 L373.5025,89.9514 Q372.8825,90.8314,371.6925,90.8314 z M370.7825,86.8414 Q370.3025,87.3514,370.3025,88.1164 Q370.3025,88.8814,370.7925,89.3614 Q371.2825,89.8414,371.9425,89.8414 Q372.6025,89.8414,373.0625,89.3564 Q373.5225,88.8714,373.5225,88.1114 Q373.5225,87.3514,373.0625,86.8414 Q372.6025,86.3314,371.9325,86.3314 Q371.2625,86.3314,370.7825,86.8414 z" fill="rgb(0,0,0)" />
<path d="M379.4925,88.0414 Q380.0325,88.4014,380.0325,89.1614 Q380.0325,89.9214,379.4825,90.3764 Q378.9325,90.8314,378.0725,90.8314 Q377.4925,90.8314,376.8675,90.6214 Q376.2425,90.4114,375.7625,90.0314 L376.3025,89.1614 Q377.2325,89.8614,378.1025,89.8614 Q378.4825,89.8614,378.7025,89.6864 Q378.9225,89.5114,378.9225,89.2414 Q378.9225,88.8414,377.8625,88.5214 Q377.7825,88.4914,377.7425,88.4814 Q376.0825,88.0314,376.0825,86.9814 Q376.0825,86.2414,376.6575,85.7964 Q377.2325,85.3514,378.1525,85.3514 Q379.0725,85.3514,379.8925,85.8914 L379.4725,86.7214 Q378.8225,86.2914,378.0625,86.2914 Q377.6625,86.2914,377.4125,86.4364 Q377.1625,86.5814,377.1625,86.8714 Q377.1625,87.1314,377.4225,87.2514 Q377.6025,87.3414,377.9275,87.4214 Q378.2525,87.5014,378.5025,87.5814 Q378.7525,87.6614,378.9875,87.7614 Q379.2225,87.8614,379.4925,88.0414 z" fill="rgb(0,0,0)" />
<path d="M361.1307,246.8701 L359.1507,246.8701 L359.1507,252.5101 L357.5907,252.5101 L357.5907,246.8701 L355.6107,246.8701 L355.6107,245.5201 L361.1307,245.5201 L361.1307,246.8701 z" fill="rgb(0,0,0)" />
<path d="M363.6207,247.1301 L363.6207,252.5101 L362.1207,252.5101 L362.1207,247.1301 L363.6207,247.1301 z M362.8707,246.7001 Q362.5007,246.7001,362.2457,246.4451 Q361.9907,246.1901,361.9907,245.8201 Q361.9907,245.4501,362.2457,245.1951 Q362.5007,244.9401,362.8707,244.9401 Q363.2407,244.9401,363.4957,245.1951 Q363.7507,245.4501,363.7507,245.8201 Q363.7507,246.1901,363.4957,246.4451 Q363.2407,246.7001,362.8707,246.7001 z" fill="rgb(0,0,0)" />
<path d="M370.3107,248.6551 Q369.9807,248.9801,369.9807,249.6101 L369.9807,252.5101 L368.4707,252.5101 L368.4707,249.5701 Q368.4707,248.9301,368.2757,248.6301 Q368.0807,248.3301,367.6457,248.3301 Q367.2107,248.3301,366.8757,248.6551 Q366.5407,248.9801,366.5407,249.6101 L366.5407,252.5101 L365.0407,252.5101 L365.0407,247.1301 L366.5407,247.1301 L366.5407,247.7401 Q367.1607,247.0401,367.9607,247.0401 Q368.4707,247.0401,368.8857,247.3401 Q369.3007,247.6401,369.5107,248.0701 Q369.8207,247.5801,370.3457,247.3101 Q370.8707,247.0401,371.4007,247.0401 Q372.3507,247.0401,372.9307,247.6051 Q373.5107,248.1701,373.5107,249.2401 L373.5107,252.5101 L372.0007,252.5101 L372.0007,249.5701 Q372.0007,248.3301,371.0907,248.3301 Q370.6407,248.3301,370.3107,248.6551 z" fill="rgb(0,0,0)" />
<path d="M378.6907,250.8201 L379.5307,251.7301 Q378.6207,252.5901,377.3957,252.5901 Q376.1707,252.5901,375.3707,251.8351 Q374.5707,251.0801,374.5707,249.8101 Q374.5707,248.5401,375.3857,247.7901 Q376.2007,247.0401,377.3107,247.0401 Q378.4207,247.0401,379.1957,247.7101 Q379.9707,248.3801,379.9707,249.5501 L379.9707,250.3501 L376.0507,250.3501 Q376.1207,250.7901,376.5107,251.0701 Q376.9007,251.3501,377.3907,251.3501 Q378.1807,251.3501,378.6907,250.8201 z M378.4507,249.2801 Q378.4007,248.8001,378.0907,248.5401 Q377.7807,248.2801,377.3357,248.2801 Q376.8907,248.2801,376.5207,248.5501 Q376.1507,248.8201,376.0907,249.2801 L378.4507,249.2801 z" fill="rgb(0,0,0)" />
<path d="M358.7707,258.3601 Q357.8907,258.3601,357.4757,259.0801 Q357.0607,259.8001,357.0607,260.9701 Q357.0607,262.1401,357.4757,262.8601 Q357.8907,263.5801,358.7707,263.5801 Q359.6507,263.5801,360.0557,262.8651 Q360.4607,262.1501,360.4607,260.9701 Q360.4607,259.7901,360.0557,259.0751 Q359.6507,258.3601,358.7707,258.3601 z M358.7707,264.5901 Q357.3407,264.5901,356.6307,263.6051 Q355.9207,262.6201,355.9207,260.9701 Q355.9207,259.3201,356.6307,258.3351 Q357.3407,257.3501,358.7707,257.3501 Q360.2007,257.3501,360.9107,258.3351 Q361.6207,259.3201,361.6207,260.9701 Q361.6207,262.6201,360.9107,263.6051 Q360.2007,264.5901,358.7707,264.5901 z" fill="rgb(0,0,0)" />
<path d="M363.6107,264.5901 Q363.3007,264.5901,363.0857,264.3701 Q362.8707,264.1501,362.8707,263.8401 Q362.8707,263.5301,363.0857,263.3151 Q363.3007,263.1001,363.6107,263.1001 Q363.9207,263.1001,364.1407,263.3151 Q364.3607,263.5301,364.3607,263.8401 Q364.3607,264.1501,364.1407,264.3701 Q363.9207,264.5901,363.6107,264.5901 z" fill="rgb(0,0,0)" />
<path d="M368.4507,258.3601 Q367.5707,258.3601,367.1557,259.0801 Q366.7407,259.8001,366.7407,260.9701 Q366.7407,262.1401,367.1557,262.8601 Q367.5707,263.5801,368.4507,263.5801 Q369.3307,263.5801,369.7357,262.8651 Q370.1407,262.1501,370.1407,260.9701 Q370.1407,259.7901,369.7357,259.0751 Q369.3307,258.3601,368.4507,258.3601 z M368.4507,264.5901 Q367.0207,264.5901,366.3107,263.6051 Q365.6007,262.6201,365.6007,260.9701 Q365.6007,259.3201,366.3107,258.3351 Q367.0207,257.3501,368.4507,257.3501 Q369.8807,257.3501,370.5907,258.3351 Q371.3007,259.3201,371.3007,260.9701 Q371.3007,262.6201,370.5907,263.6051 Q369.8807,264.5901,368.4507,264.5901 z" fill="rgb(0,0,0)" />
<path d="M379.1907,262.2501 L375.4507,262.2501 L375.4507,261.5801 L379.1907,261.5801 L379.1907,262.2501 z" fill="rgb(0,0,0)" />
<path d="M383.0407,258.5701 L383.0407,257.5201 L385.5807,257.5201 L385.5807,264.5101 L384.4607,264.5101 L384.4607,258.5701 L383.0407,258.5701 z" fill="rgb(0,0,0)" />
<path d="M387.9607,264.5901 Q387.6507,264.5901,387.4357,264.3701 Q387.2207,264.1501,387.2207,263.8401 Q387.2207,263.5301,387.4357,263.3151 Q387.6507,263.1001,387.9607,263.1001 Q388.2707,263.1001,388.4907,263.3151 Q388.7107,263.5301,388.7107,263.8401 Q388.7107,264.1501,388.4907,264.3701 Q388.2707,264.5901,387.9607,264.5901 z" fill="rgb(0,0,0)" />
<path d="M392.8007,258.3601 Q391.9207,258.3601,391.5057,259.0801 Q391.0907,259.8001,391.0907,260.9701 Q391.0907,262.1401,391.5057,262.8601 Q391.9207,263.5801,392.8007,263.5801 Q393.6807,263.5801,394.0857,262.8651 Q394.4907,262.1501,394.4907,260.9701 Q394.4907,259.7901,394.0857,259.0751 Q393.6807,258.3601,392.8007,258.3601 z M392.8007,264.5901 Q391.3707,264.5901,390.6607,263.6051 Q389.9507,262.6201,389.9507,260.9701 Q389.9507,259.3201,390.6607,258.3351 Q391.3707,257.3501,392.8007,257.3501 Q394.2307,257.3501,394.9407,258.3351 Q395.6507,259.3201,395.6507,260.9701 Q395.6507,262.6201,394.9407,263.6051 Q394.2307,264.5901,392.8007,264.5901 z" fill="rgb(0,0,0)" />
<path d="M403.0407,261.8001 Q403.5807,262.1601,403.5807,262.9201 Q403.5807,263.6801,403.0307,264.1351 Q402.4807,264.5901,401.6207,264.5901 Q401.0407,264.5901,400.4157,264.3801 Q399.7907,264.1701,399.3107,263.7901 L399.8507,262.9201 Q400.7807,263.6201,401.6507,263.6201 Q402.0307,263.6201,402.2507,263.4451 Q402.4707,263.2701,402.4707,263.0001 Q402.4707,262.6001,401.4107,262.2801 Q401.3307,262.2501,401.2907,262.2401 Q399.6307,261.7901,399.6307,260.7401 Q399.6307,260.0001,400.2057,259.5551 Q400.7807,259.1101,401.7007,259.1101 Q402.6207,259.1101,403.4407,259.6501 L403.0207,260.4801 Q402.3707,260.0501,401.6107,260.0501 Q401.2107,260.0501,400.9607,260.1951 Q400.7107,260.3401,400.7107,260.6301 Q400.7107,260.8901,400.9707,261.0101 Q401.1507,261.1001,401.4757,261.1801 Q401.8007,261.2601,402.0507,261.3401 Q402.3007,261.4201,402.5357,261.5201 Q402.7707,261.6201,403.0407,261.8001 z" fill="rgb(0,0,0)" />
<path d="M409.8007,261.5701 L409.8007,262.3401 L405.6307,262.3401 Q405.6707,262.9201,406.1607,263.2751 Q406.6507,263.6301,407.2807,263.6301 Q408.2807,263.6301,408.8007,263.0001 L409.4407,263.7001 Q408.5807,264.5901,407.2007,264.5901 Q406.0807,264.5901,405.2957,263.8451 Q404.5107,263.1001,404.5107,261.8451 Q404.5107,260.5901,405.3107,259.8501 Q406.1107,259.1101,407.1957,259.1101 Q408.2807,259.1101,409.0407,259.7651 Q409.8007,260.4201,409.8007,261.5701 z M406.1207,260.4451 Q405.6307,260.8201,405.6307,261.4601 L408.6807,261.4601 Q408.6807,260.7901,408.2607,260.4301 Q407.8407,260.0701,407.2257,260.0701 Q406.6107,260.0701,406.1207,260.4451 z" fill="rgb(0,0,0)" />
<path d="M415.6307,263.6101 Q414.6607,264.5901,413.3907,264.5901 Q412.2807,264.5901,411.4807,263.8351 Q410.6807,263.0801,410.6807,261.8601 Q410.6807,260.6401,411.5157,259.8751 Q412.3507,259.1101,413.5507,259.1101 Q414.7507,259.1101,415.5807,259.9401 L414.9207,260.7501 Q414.2307,260.1501,413.5307,260.1501 Q412.8307,260.1501,412.3157,260.6151 Q411.8007,261.0801,411.8007,261.8151 Q411.8007,262.5501,412.3107,263.0601 Q412.8207,263.5701,413.5657,263.5701 Q414.3107,263.5701,414.9707,262.8901 L415.6307,263.6101 z" fill="rgb(0,0,0)" />
<path d="M417.5607,261.8501 Q417.5607,262.6201,418.0357,263.1051 Q418.5107,263.5901,419.2407,263.5901 Q419.9707,263.5901,420.4457,263.1051 Q420.9207,262.6201,420.9207,261.8501 Q420.9207,261.0801,420.4457,260.5951 Q419.9707,260.1101,419.2407,260.1101 Q418.5107,260.1101,418.0357,260.5951 Q417.5607,261.0801,417.5607,261.8501 z M422.0407,261.8501 Q422.0407,263.0001,421.2407,263.7951 Q420.4407,264.5901,419.2407,264.5901 Q418.0407,264.5901,417.2407,263.7951 Q416.4407,263.0001,416.4407,261.8501 Q416.4407,260.7001,417.2407,259.9051 Q418.0407,259.1101,419.2407,259.1101 Q420.4407,259.1101,421.2407,259.9051 Q422.0407,260.7001,422.0407,261.8501 z" fill="rgb(0,0,0)" />
<path d="M424.8607,260.5051 Q424.4307,260.8901,424.4307,261.6301 L424.4307,264.5101 L423.3107,264.5101 L423.3107,259.1901 L424.4307,259.1901 L424.4307,260.1601 Q424.7007,259.6701,425.1757,259.3901 Q425.6507,259.1101,426.2007,259.1101 Q427.1007,259.1101,427.6557,259.6601 Q428.2107,260.2101,428.2107,261.2501 L428.2107,264.5101 L427.0907,264.5101 L427.0907,261.5901 Q427.0907,260.1201,425.8707,260.1201 Q425.2907,260.1201,424.8607,260.5051 z" fill="rgb(0,0,0)" />
<path d="M431.9407,264.5901 Q430.9307,264.5901,430.1807,263.8301 Q429.4307,263.0701,429.4307,261.8301 Q429.4307,260.5901,430.2007,259.8501 Q430.9707,259.1101,432.0357,259.1101 Q433.1007,259.1101,433.7507,260.0101 L433.7507,257.0901 L434.8707,257.0901 L434.8707,264.5101 L433.7507,264.5101 L433.7507,263.7101 Q433.1307,264.5901,431.9407,264.5901 z M431.0307,260.6001 Q430.5507,261.1101,430.5507,261.8751 Q430.5507,262.6401,431.0407,263.1201 Q431.5307,263.6001,432.1907,263.6001 Q432.8507,263.6001,433.3107,263.1151 Q433.7707,262.6301,433.7707,261.8701 Q433.7707,261.1101,433.3107,260.6001 Q432.8507,260.0901,432.1807,260.0901 Q431.5107,260.0901,431.0307,260.6001 z" fill="rgb(0,0,0)" />
</svg>