<?xml version="1.0" encoding="UTF-8"?>
<!-- Flat -->
<svg version="1.1" xmlns="http://www.w3.org/2000/svg" xmlns:xlink="http://www.w3.org/1999/xlink" width="453.5433" height="396.8504">
<title>Untitled</title>
<polyline points="151.045 333.5577 160.1777 333.5912 169.3105 333.578 178.4432 333.5652 187.5759 333.5526 196.7087 333.53 205.8414 333.5417 214.9741 333.5298 224.1069 333.5265 233.2396 333.5205 242.3723 333.5258 251.5051 333.5141 260.6378 333.5269 269.7705 333.5137 278.9033 333.5254 288.036 333.5227 297.1687 333.5232 306.3015 333.5256 315.4342 333.5198 324.5669 333.5174 333.6997 333.5194" stroke="rgb(0,0,0)" fill="none" stroke-width="1.25" />
<polyline points="144.5872 326.5744 153.7199 326.7021 162.8526 326.6596 171.9854 326.6763 181.1181 326.686 190.2508 326.6148 199.3836 326.4278 208.5163 326.5578 217.649 326.552 226.7818 326.5105 235.9145 326.4871 245.0472 326.4579 254.18 326.4161 263.3127 326.4426 272.4454 326.3753 281.5782 326.3806 290.7109 326.3854 299.8436 326.39 308.9764 326.3883 318.1091 326.3496 327.2418 326.3569" stroke="rgb(0,0,0)" fill="none" stroke-width="1.25" />
<polyline points="138.1294 319.2417 147.2621 319.6972 156.3948 319.439 165.5276 319.6218 174.6603 319.4386 183.793 319.4174 192.9258 319.4169 202.0585 319.359 211.1912 319.3049 220.324 319.2368 229.4567 319.1834 238.5894 319.1842 247.7222 319.1312 256.8549 319.0961 265.9876 319.0413 275.1204 319.0506 284.2531 318.9367 293.3858 318.9763 302.5186 318.982 311.6513 318.9058 320.784 318.85" stroke="rgb(0,0,0)" fill="none" stroke-width="1.25" />
<polyline points="131.6715 311.3179 140.8043 312.1108 149.937 312.0273 159.0697 311.4235 168.2025 311.7707 177.3352 311.4406 186.4679 311.6403 195.6007 311.5 204.7334 311.3451 213.8661 311.3702 222.9989 310.9913 232.1316 311.3811 241.2643 310.6601 250.3971 310.2486 259.5298 311.1148 268.6625 311.2203 277.7953 311.1358 286.928 311.0583 296.0607 309.7321 305.1935 310.8572 314.3262 310.8833" stroke="rgb(0,0,0)" fill="none" stroke-width="1.25" />
<polyline points="125.2137 301.9429 134.3465 303.311 143.4792 302.1703 152.6119 303.1787 161.7447 303.07 170.8774 303.0693 180.0101 303.0816 189.1429 303.8739 198.2756 303.567 207.4083 302.5663 216.5411 302.4804 225.6738 302.342 234.8065 302.3215 243.9393 303.2186 253.072 301.8199 262.2047 303.0423 271.3375 302.0761 280.4702 302.8967 289.6029 301.8872 298.7357 302.9831 307.8684 301.6919" stroke="rgb(0,0,0)" fill="none" stroke-width="1.25" />
<polyline points="118.7559 293.357 127.8886 294.1712 137.0214 294.5285 146.1541 294.6502 155.2868 294.8569 164.4196 294.1426 173.5523 293.8879 182.685 294.1256 191.8178 294.0927 200.9505 292.9635 210.0832 293.906 219.216 293.7192 228.3487 293.1842 237.4814 293.0755 246.6142 293.5575 255.7469 293.5281 264.8796 292.3959 274.0124 292.7905 283.1451 292.8812 292.2778 291.8429 301.4106 293.097" stroke="rgb(0,0,0)" fill="none" stroke-width="1.25" />
<polyline points="112.2981 282.9093 121.4308 285.6449 130.5636 286.3893 139.6963 285.9819 148.829 285.9199 157.9618 286.0282 167.0945 285.8529 176.2272 284.4543 185.36 285.7068 194.4927 284.3058 203.6254 285.3911 212.7582 285.209 221.8909 284.8839 231.0236 284.0694 240.1564 283.4695 249.2891 284.4747 258.4218 284.2978 267.5546 284.3902 276.6873 284.5105 285.82 284.1095 294.9528 282.92" stroke="rgb(0,0,0)" fill="none" stroke-width="1.25" />
<polyline points="105.8403 271.2929 114.973 275.0784 124.1057 275.445 133.2385 275.7747 142.3712 276.1457 151.5039 275.447 160.6367 275.4181 169.7694 274.0031 178.9021 274.2223 188.0349 274.1651 197.1676 274.4159 206.3003 274.2344 215.4331 274.1872 224.5658 273.5919 233.6985 273.7083 242.8313 273.7841 251.964 272.7895 261.0967 273.4086 270.2295 273.3463 279.3622 273.421 288.4949 272.8942" stroke="rgb(0,0,0)" fill="none" stroke-width="1.25" />
<polyline points="99.3825 261.4704 108.5152 266.9984 117.6479 266.0914 126.7807 267.0251 135.9134 267.0573 145.0461 266.4894 154.1789 266.6399 163.3116 265.6391 172.4443 266.131 181.5771 265.1838 190.7098 265.1817 199.8425 265.5491 208.9753 265.4813 218.108 265.3219 227.2407 265.7144 236.3735 263.6898 245.5062 264.5136 254.6389 263.6038 263.7717 264.3262 272.9044 263.1678 282.0371 264.0981" stroke="rgb(0,0,0)" fill="none" stroke-width="1.25" />
<polyline points="92.9246 250.396 102.0574 254.7576 111.1901 253.5647 120.3228 255.4621 129.4556 253.6757 138.5883 255.322 147.721 252.3139 156.8538 253.7126 165.9865 252.3535 175.1192 252.622 184.252 252.3656 193.3847 253.5383 202.5174 252.4306 211.6502 251.8067 220.7829 251.3469 229.9156 250.5404 239.0484 251.9579 248.1811 251.3712 257.3138 250.876 266.4466 251.659 275.5793 249.9892" stroke="rgb(0,0,0)" fill="none" stroke-width="1.25" />
<polyline points="86.4668 239.7757 95.5995 246.8685 104.7323 246.5662 113.865 246.4064 122.9978 246.5929 132.1305 246.9425 141.2632 245.8668 150.396 245.7154 159.5287 245.6204 168.6614 245.7448 177.7942 245.4759 186.9269 244.3056 196.0596 244.9751 205.1924 244.3144 214.3251 243.9685 223.4578 244.7731 232.5906 244.3822 241.7233 244.1244 250.856 243.5243 259.9888 243.7882 269.1215 243.7465" stroke="rgb(0,0,0)" fill="none" stroke-width="1.25" />
<polyline points="80.009 227.1032 89.1417 235.6562 98.2745 236.4186 107.4072 235.7599 116.5399 235.9347 125.6727 235.5523 134.8054 234.9296 143.9381 233.8548 153.0709 233.8176 162.2036 234.3418 171.3363 233.7249 180.4691 232.9936 189.6018 232.5653 198.7345 232.9781 207.8673 232.8941 217 232.8672 226.1327 232.468 235.2655 232.231 244.3982 231.9406 253.5309 230.6961 262.6637 231.6403" stroke="rgb(0,0,0)" fill="none" stroke-width="1.25" />
<polyline points="73.5512 203.9882 82.6839 220.8806 91.8166 220.7844 100.9494 220.1981 110.0821 223.4582 119.2148 218.9586 128.3476 220.3283 137.4803 217.3874 146.613 217.8836 155.7458 217.8944 164.8785 216.6308 174.0112 215.4989 183.144 217.7287 192.2767 216.5068 201.4094 217.1932 210.5422 218.0323 219.6749 215.1975 228.8076 214.3202 237.9404 214.0517 247.0731 216.7002 256.2058 214.6197" stroke="rgb(0,0,0)" fill="none" stroke-width="1.25" />
<polyline points="67.0934 200.6722 76.2261 211.2639 85.3588 212.5785 94.4916 210.651 103.6243 210.0838 112.757 210.4402 121.8898 209.6137 131.0225 209.3026 140.1552 209.6426 149.288 208.9703 158.4207 209.5012 167.5534 207.9658 176.6862 208.1618 185.8189 208.5327 194.9516 207.3157 204.0844 206.849 213.2171 207.2086 222.3498 206.5632 231.4826 206.8519 240.6153 206.4278 249.748 206.0284" stroke="rgb(0,0,0)" fill="none" stroke-width="1.25" />
<polyline points="60.6355 184.17 69.7683 198.0627 78.901 198.4855 88.0337 196.8587 97.1665 197.0203 106.2992 197.605 115.4319 196.4084 124.5647 196.2042 133.6974 196.0241 142.8301 194.9674 151.9629 195.8824 161.0956 195.5034 170.2283 195.0444 179.3611 194.3137 188.4938 194.3208 197.6265 193.7632 206.7593 193.6938 215.892 193.1089 225.0247 192.5615 234.1575 191.7051 243.2902 193.2398" stroke="rgb(0,0,0)" fill="none" stroke-width="1.25" />
<polyline points="54.1777 165.4769 63.3105 184.2278 72.4432 183.7886 81.5759 182.6 90.7087 183.2457 99.8414 181.6743 108.9741 182.647 118.1069 181.2045 127.2396 180.5395 136.3723 180.6082 145.5051 180.6279 154.6378 178.9723 163.7705 179.5053 172.9033 178.1518 182.036 179.5726 191.1687 177.1388 200.3015 177.5306 209.4342 175.4853 218.5669 177.1178 227.6997 175.9181 236.8324 175.1191" stroke="rgb(0,0,0)" fill="none" stroke-width="1.25" />
<polyline points="47.7199 148.837 56.8526 169.1741 65.9854 166.7165 75.1181 166.9748 84.2508 167.3507 93.3836 166.4539 102.5163 167.4049 111.649 166.4283 120.7818 165.0582 129.9145 164.3612 139.0472 164.6039 148.18 164.4545 157.3127 163.3524 166.4454 163.0872 175.5782 164.3391 184.7109 163.6302 193.8436 162.766 202.9764 162.6822 212.1091 161.6203 221.2418 161.8917 230.3746 159.9961" stroke="rgb(0,0,0)" fill="none" stroke-width="1.25" />
<polyline points="41.2621 130.2464 50.3948 154.7042 59.5276 154.0245 68.6603 153.7474 77.793 152.714 86.9258 152.9721 96.0585 151.2929 105.1912 150.275 114.324 151.6619 123.4567 149.1038 132.5894 150.5471 141.7222 148.491 150.8549 149.6097 159.9876 149.7082 169.1204 149.1622 178.2531 148.3092 187.3858 147.7158 196.5186 148.79 205.6513 147.4336 214.784 147.2204 223.9168 143.9208" stroke="rgb(0,0,0)" fill="none" stroke-width="1.25" />
<polyline points="34.8043 109.641 43.937 138.1916 53.0697 139.7898 62.2025 137.5795 71.3352 136.3022 80.4679 136.8153 89.6007 135.904 98.7334 134.7847 107.8661 138.1092 116.9989 134.757 126.1316 133.3311 135.2643 134.7185 144.3971 133.5797 153.5298 132.1185 162.6625 132.966 171.7953 131.281 180.928 133.1386 190.0607 130.2172 199.1935 132.4997 208.3262 131.3794 217.4589 132.1954" stroke="rgb(0,0,0)" fill="none" stroke-width="1.25" />
<polyline points="166.6355 340.1551 160.1777 333.5912 153.7199 326.7021 147.2621 319.6972 140.8043 312.1108 134.3465 303.311 127.8886 294.1712 121.4308 285.6449 114.973 275.0784 108.5152 266.9984 102.0574 254.7576 95.5995 246.8685 89.1417 235.6562 82.6839 220.8806 76.2261 211.2639 69.7683 198.0627 63.3105 184.2278 56.8526 169.1741 50.3948 154.7042 43.937 138.1916 37.4792 120.5624" stroke="rgb(0,0,0)" fill="none" stroke-width="1.25" />
<polyline points="175.7683 340.1558 169.3105 333.578 162.8526 326.6596 156.3948 319.439 149.937 312.0273 143.4792 302.1703 137.0214 294.5285 130.5636 286.3893 124.1057 275.445 117.6479 266.0914 111.1901 253.5647 104.7323 246.5662 98.2745 236.4186 91.8166 220.7844 85.3588 212.5785 78.901 198.4855 72.4432 183.7886 65.9854 166.7165 59.5276 154.0245 53.0697 139.7898 46.6119 121.9677" stroke="rgb(0,0,0)" fill="none" stroke-width="1.25" />
<polyline points="184.901 340.156 178.4432 333.5652 171.9854 326.6763 165.5276 319.6218 159.0697 311.4235 152.6119 303.1787 146.1541 294.6502 139.6963 285.9819 133.2385 275.7747 126.7807 267.0251 120.3228 255.4621 113.865 246.4064 107.4072 235.7599 100.9494 220.1981 94.4916 210.651 88.0337 196.8587 81.5759 182.6 75.1181 166.9748 68.6603 153.7474 62.2025 137.5795 55.7447 121.9358" stroke="rgb(0,0,0)" fill="none" stroke-width="1.25" />
<polyline points="194.0337 340.156 187.5759 333.5526 181.1181 326.686 174.6603 319.4386 168.2025 311.7707 161.7447 303.07 155.2868 294.8569 148.829 285.9199 142.3712 276.1457 135.9134 267.0573 129.4556 253.6757 122.9978 246.5929 116.5399 235.9347 110.0821 223.4582 103.6243 210.0838 97.1665 197.0203 90.7087 183.2457 84.2508 167.3507 77.793 152.714 71.3352 136.3022 64.8774 122.4964" stroke="rgb(0,0,0)" fill="none" stroke-width="1.25" />
<polyline points="203.1665 340.156 196.7087 333.53 190.2508 326.6148 183.793 319.4174 177.3352 311.4406 170.8774 303.0693 164.4196 294.1426 157.9618 286.0282 151.5039 275.447 145.0461 266.4894 138.5883 255.322 132.1305 246.9425 125.6727 235.5523 119.2148 218.9586 112.757 210.4402 106.2992 197.605 99.8414 181.6743 93.3836 166.4539 86.9258 152.9721 80.4679 136.8153 74.0101 120.4598" stroke="rgb(0,0,0)" fill="none" stroke-width="1.25" />
<polyline points="212.2992 340.156 205.8414 333.5417 199.3836 326.4278 192.9258 319.4169 186.4679 311.6403 180.0101 303.0816 173.5523 293.8879 167.0945 285.8529 160.6367 275.4181 154.1789 266.6399 147.721 252.3139 141.2632 245.8668 134.8054 234.9296 128.3476 220.3283 121.8898 209.6137 115.4319 196.4084 108.9741 182.647 102.5163 167.4049 96.0585 151.2929 89.6007 135.904 83.1429 120.9414" stroke="rgb(0,0,0)" fill="none" stroke-width="1.25" />
<polyline points="221.4319 340.156 214.9741 333.5298 208.5163 326.5578 202.0585 319.359 195.6007 311.5 189.1429 303.8739 182.685 294.1256 176.2272 284.4543 169.7694 274.0031 163.3116 265.6391 156.8538 253.7126 150.396 245.7154 143.9381 233.8548 137.4803 217.3874 131.0225 209.3026 124.5647 196.2042 118.1069 181.2045 111.649 166.4283 105.1912 150.275 98.7334 134.7847 92.2756 120.6654" stroke="rgb(0,0,0)" fill="none" stroke-width="1.25" />
<polyline points="230.5647 340.1562 224.1069 333.5265 217.649 326.552 211.1912 319.3049 204.7334 311.3451 198.2756 303.567 191.8178 294.0927 185.36 285.7068 178.9021 274.2223 172.4443 266.131 165.9865 252.3535 159.5287 245.6204 153.0709 233.8176 146.613 217.8836 140.1552 209.6426 133.6974 196.0241 127.2396 180.5395 120.7818 165.0582 114.324 151.6619 107.8661 138.1092 101.4083 118.6412" stroke="rgb(0,0,0)" fill="none" stroke-width="1.25" />
<polyline points="239.6974 340.156 233.2396 333.5205 226.7818 326.5105 220.324 319.2368 213.8661 311.3702 207.4083 302.5663 200.9505 292.9635 194.4927 284.3058 188.0349 274.1651 181.5771 265.1838 175.1192 252.622 168.6614 245.7448 162.2036 234.3418 155.7458 217.8944 149.288 208.9703 142.8301 194.9674 136.3723 180.6082 129.9145 164.3612 123.4567 149.1038 116.9989 134.757 110.5411 117.5532" stroke="rgb(0,0,0)" fill="none" stroke-width="1.25" />
<polyline points="248.8301 340.156 242.3723 333.5258 235.9145 326.4871 229.4567 319.1834 222.9989 310.9913 216.5411 302.4804 210.0832 293.906 203.6254 285.3911 197.1676 274.4159 190.7098 265.1817 184.252 252.3656 177.7942 245.4759 171.3363 233.7249 164.8785 216.6308 158.4207 209.5012 151.9629 195.8824 145.5051 180.6279 139.0472 164.6039 132.5894 150.5471 126.1316 133.3311 119.6738 117.081" stroke="rgb(0,0,0)" fill="none" stroke-width="1.25" />
<polyline points="257.9629 340.1562 251.5051 333.5141 245.0472 326.4579 238.5894 319.1842 232.1316 311.3811 225.6738 302.342 219.216 293.7192 212.7582 285.209 206.3003 274.2344 199.8425 265.5491 193.3847 253.5383 186.9269 244.3056 180.4691 232.9936 174.0112 215.4989 167.5534 207.9658 161.0956 195.5034 154.6378 178.9723 148.18 164.4545 141.7222 148.491 135.2643 134.7185 128.8065 116.7272" stroke="rgb(0,0,0)" fill="none" stroke-width="1.25" />
<polyline points="267.0956 340.1562 260.6378 333.5269 254.18 326.4161 247.7222 319.1312 241.2643 310.6601 234.8065 302.3215 228.3487 293.1842 221.8909 284.8839 215.4331 274.1872 208.9753 265.4813 202.5174 252.4306 196.0596 244.9751 189.6018 232.5653 183.144 217.7287 176.6862 208.1618 170.2283 195.0444 163.7705 179.5053 157.3127 163.3524 150.8549 149.6097 144.3971 133.5797 137.9393 118.6787" stroke="rgb(0,0,0)" fill="none" stroke-width="1.25" />
<polyline points="276.2283 340.156 269.7705 333.5137 263.3127 326.4426 256.8549 319.0961 250.3971 310.2486 243.9393 303.2186 237.4814 293.0755 231.0236 284.0694 224.5658 273.5919 218.108 265.3219 211.6502 251.8067 205.1924 244.3144 198.7345 232.9781 192.2767 216.5068 185.8189 208.5327 179.3611 194.3137 172.9033 178.1518 166.4454 163.0872 159.9876 149.7082 153.5298 132.1185 147.072 116.7298" stroke="rgb(0,0,0)" fill="none" stroke-width="1.25" />
<polyline points="285.3611 340.156 278.9033 333.5254 272.4454 326.3753 265.9876 319.0413 259.5298 311.1148 253.072 301.8199 246.6142 293.5575 240.1564 283.4695 233.6985 273.7083 227.2407 265.7144 220.7829 251.3469 214.3251 243.9685 207.8673 232.8941 201.4094 217.1932 194.9516 207.3157 188.4938 194.3208 182.036 179.5726 175.5782 164.3391 169.1204 149.1622 162.6625 132.966 156.2047 114.9695" stroke="rgb(0,0,0)" fill="none" stroke-width="1.25" />
<polyline points="294.4938 340.1562 288.036 333.5227 281.5782 326.3806 275.1204 319.0506 268.6625 311.2203 262.2047 303.0423 255.7469 293.5281 249.2891 284.4747 242.8313 273.7841 236.3735 263.6898 229.9156 250.5404 223.4578 244.7731 217 232.8672 210.5422 218.0323 204.0844 206.849 197.6265 193.7632 191.1687 177.1388 184.7109 163.6302 178.2531 148.3092 171.7953 131.281 165.3375 116.4286" stroke="rgb(0,0,0)" fill="none" stroke-width="1.25" />
<polyline points="303.6265 340.156 297.1687 333.5232 290.7109 326.3854 284.2531 318.9367 277.7953 311.1358 271.3375 302.0761 264.8796 292.3959 258.4218 284.2978 251.964 272.7895 245.5062 264.5136 239.0484 251.9579 232.5906 244.3822 226.1327 232.468 219.6749 215.1975 213.2171 207.2086 206.7593 193.6938 200.3015 177.5306 193.8436 162.766 187.3858 147.7158 180.928 133.1386 174.4702 116.2072" stroke="rgb(0,0,0)" fill="none" stroke-width="1.25" />
<polyline points="312.7593 340.156 306.3015 333.5256 299.8436 326.39 293.3858 318.9763 286.928 311.0583 280.4702 302.8967 274.0124 292.7905 267.5546 284.3902 261.0967 273.4086 254.6389 263.6038 248.1811 251.3712 241.7233 244.1244 235.2655 232.231 228.8076 214.3202 222.3498 206.5632 215.892 193.1089 209.4342 175.4853 202.9764 162.6822 196.5186 148.79 190.0607 130.2172 183.6029 115.4201" stroke="rgb(0,0,0)" fill="none" stroke-width="1.25" />
<polyline points="321.892 340.1562 315.4342 333.5198 308.9764 326.3883 302.5186 318.982 296.0607 309.7321 289.6029 301.8872 283.1451 292.8812 276.6873 284.5105 270.2295 273.3463 263.7717 264.3262 257.3138 250.876 250.856 243.5243 244.3982 231.9406 237.9404 214.0517 231.4826 206.8519 225.0247 192.5615 218.5669 177.1178 212.1091 161.6203 205.6513 147.4336 199.1935 132.4997 192.7357 114.6698" stroke="rgb(0,0,0)" fill="none" stroke-width="1.25" />
<polyline points="331.0247 340.156 324.5669 333.5174 318.1091 326.3496 311.6513 318.9058 305.1935 310.8572 298.7357 302.9831 292.2778 291.8429 285.82 284.1095 279.3622 273.421 272.9044 263.1678 266.4466 251.659 259.9888 243.7882 253.5309 230.6961 247.0731 216.7002 240.6153 206.4278 234.1575 191.7051 227.6997 175.9181 221.2418 161.8917 214.784 147.2204 208.3262 131.3794 201.8684 113.4071" stroke="rgb(0,0,0)" fill="none" stroke-width="1.25" />
<polygon points="157.5028 340.1536 166.6355 340.1551 175.7683 340.1558 184.901 340.156 194.0337 340.156 203.1665 340.156 212.2992 340.156 221.4319 340.156 230.5647 340.1562 239.6974 340.156 248.8301 340.156 257.9629 340.1562 267.0956 340.1562 276.2283 340.156 285.3611 340.156 294.4938 340.1562 303.6265 340.156 312.7593 340.156 321.892 340.1562 331.0247 340.156 340.1575 340.156 340.1575 340.156 333.6997 333.5194 327.2418 326.3569 320.784 318.85 314.3262 310.8833 307.8684 301.6919 301.4106 293.097 294.9528 282.92 288.4949 272.8942 282.0371 264.0981 275.5793 249.9892 269.1215 243.7465 262.6637 231.6403 256.2058 214.6197 249.748 206.0284 243.2902 193.2398 236.8324 175.1191 230.3746 159.9961 223.9168 143.9208 217.4589 132.1954 211.0011 114.9403 211.0011 114.9403 201.8684 113.4071 192.7357 114.6698 183.6029 115.4201 174.4702 116.2072 165.3375 116.4286 156.2047 114.9695 147.072 116.7298 137.9393 118.6787 128.8065 116.7272 119.6738 117.081 110.5411 117.5532 101.4083 118.6412 92.2756 120.6654 83.1429 120.9414 74.0101 120.4598 64.8774 122.4964 55.7447 121.9358 46.6119 121.9677 37.4792 120.5624 28.3465 88.1671 28.3465 88.1671 34.8043 109.641 41.2621 130.2464 47.7199 148.837 54.1777 165.4769 60.6355 184.17 67.0934 200.6722 73.5512 203.9882 80.009 227.1032 86.4668 239.7757 92.9246 250.396 99.3825 261.4704 105.8403 271.2929 112.2981 282.9093 118.7559 293.357 125.2137 301.9429 131.6715 311.3179 138.1294 319.2417 144.5872 326.5744 151.045 333.5577 157.5028 340.1536" stroke="rgb(0,0,0)" fill="none" stroke-width="1.25" />
<polygon points="157.5028 340.1575 340.1575 340.1575 340.1575 157.5028 211.0011 28.3465 28.3465 28.3465 28.3465 211.0011" stroke="rgb(0,0,0)" fill="none" stroke-width="0.25" />
<polyline points="157.5028 340.1575 157.5028 157.5028 340.1575 157.5028" stroke="rgb(0,0,0)" fill="none" stroke-width="0.25" />
<line x1="28.3465" y1="28.3465" x2="157.5028" y2="157.5028" stroke="rgb(0,0,0)" fill="none" stroke-width="0.25" />
<polyline points="28.3465 211.0011 211.0011 211.0011 211.0011 28.3465" stroke="rgb(0,0,0)" fill="none" stroke-width="0.25" />
<line x1="211.0011" y1="211.0011" x2="340.1575" y2="340.1575" stroke="rgb(0,0,0)" fill="none" stroke-width="0.25" />
<path d="M235.2101,357.0207 L236.5901,361.0407 L237.8301,357.0207 L239.4601,357.0207 L240.6901,361.0407 L242.0801,357.0207 L243.7701,357.0207 L241.3301,364.0107 L240.1701,364.0107 L238.6401,359.1507 L237.1201,364.0107 L235.9601,364.0107 L233.5201,357.0207 L235.2101,357.0207 z" fill="rgb(0,0,0)" />
<path d="M245.9501,358.6307 L245.9501,364.0107 L244.4501,364.0107 L244.4501,358.6307 L245.9501,358.6307 z M245.2001,358.2007 Q244.8301,358.2007,244.5751,357.9457 Q244.3201,357.6907,244.3201,357.3207 Q244.3201,356.9507,244.5751,356.6957 Q244.8301,356.4407,245.2001,356.4407 Q245.5701,356.4407,245.8251,356.6957 Q246.0801,356.9507,246.0801,357.3207 Q246.0801,357.6907,245.8251,357.9457 Q245.5701,358.2007,245.2001,358.2007 z" fill="rgb(0,0,0)" />
<path d="M251.1101,363.3007 Q250.4801,364.0907,249.5251,364.0907 Q248.5701,364.0907,247.8201,363.2807 Q247.0701,362.4707,247.0701,361.2707 Q247.0701,360.0707,247.8001,359.3057 Q248.5301,358.5407,249.5101,358.5407 Q250.4901,358.5407,251.1101,359.2307 L251.1101,356.5907 L252.6101,356.5907 L252.6101,364.0107 L251.1101,364.0107 L251.1101,363.3007 z M248.9601,360.2407 Q248.5801,360.6807,248.5801,361.3307 Q248.5801,361.9807,248.9701,362.3957 Q249.3601,362.8107,249.8801,362.8107 Q250.4001,362.8107,250.7651,362.3957 Q251.1301,361.9807,251.1301,361.3257 Q251.1301,360.6707,250.7651,360.2357 Q250.4001,359.8007,249.8701,359.8007 Q249.3401,359.8007,248.9601,360.2407 z" fill="rgb(0,0,0)" />
<path d="M257.1201,359.7107 L255.8201,359.7107 L255.8201,362.1207 Q255.8201,362.4307,255.9801,362.6057 Q256.1401,362.7807,256.3601,362.7807 Q256.7801,362.7807,257.0701,362.4007 L257.6301,363.4507 Q256.9301,364.0907,256.1551,364.0907 Q255.3801,364.0907,254.8451,363.5807 Q254.3101,363.0707,254.3101,362.1907 L254.3101,359.7107 L253.6801,359.7107 L253.6801,358.6307 L254.3101,358.6307 L254.3101,357.0207 L255.8201,357.0207 L255.8201,358.6307 L257.1201,358.6307 L257.1201,359.7107 z" fill="rgb(0,0,0)" />
<path d="M260.2651,360.1557 Q259.9301,360.4807,259.9301,361.1107 L259.9301,364.0107 L258.4301,364.0107 L258.4301,356.5907 L259.9301,356.5907 L259.9301,359.2307 Q260.6101,358.5407,261.4551,358.5407 Q262.3001,358.5407,262.8801,359.1407 Q263.4601,359.7407,263.4601,360.7407 L263.4601,364.0107 L261.9601,364.0107 L261.9601,361.0707 Q261.9601,359.8307,261.0501,359.8307 Q260.6001,359.8307,260.2651,360.1557 z" fill="rgb(0,0,0)" />
<path d="M233.8401,370.0707 L233.8401,369.0207 L236.3801,369.0207 L236.3801,376.0107 L235.2601,376.0107 L235.2601,370.0707 L233.8401,370.0707 z" fill="rgb(0,0,0)" />
<path d="M244.6601,373.7507 L240.9201,373.7507 L240.9201,373.0807 L244.6601,373.0807 L244.6601,373.7507 z" fill="rgb(0,0,0)" />
<path d="M248.5101,370.0707 L248.5101,369.0207 L251.0501,369.0207 L251.0501,376.0107 L249.9301,376.0107 L249.9301,370.0707 L248.5101,370.0707 z" fill="rgb(0,0,0)" />
<path d="M258.2101,369.8607 Q257.3301,369.8607,256.9151,370.5807 Q256.5001,371.3007,256.5001,372.4707 Q256.5001,373.6407,256.9151,374.3607 Q257.3301,375.0807,258.2101,375.0807 Q259.0901,375.0807,259.4951,374.3657 Q259.9001,373.6507,259.9001,372.4707 Q259.9001,371.2907,259.4951,370.5757 Q259.0901,369.8607,258.2101,369.8607 z M258.2101,376.0907 Q256.7801,376.0907,256.0701,375.1057 Q255.3601,374.1207,255.3601,372.4707 Q255.3601,370.8207,256.0701,369.8357 Q256.7801,368.8507,258.2101,368.8507 Q259.6401,368.8507,260.3501,369.8357 Q261.0601,370.8207,261.0601,372.4707 Q261.0601,374.1207,260.3501,375.1057 Q259.6401,376.0907,258.2101,376.0907 z" fill="rgb(0,0,0)" />
<path d="M265.0901,369.8607 Q264.2101,369.8607,263.7951,370.5807 Q263.3801,371.3007,263.3801,372.4707 Q263.3801,373.6407,263.7951,374.3607 Q264.2101,375.0807,265.0901,375.0807 Q265.9701,375.0807,266.3751,374.3657 Q266.7801,373.6507,266.7801,372.4707 Q266.7801,371.2907,266.3751,370.5757 Q265.9701,369.8607,265.0901,369.8607 z M265.0901,376.0907 Q263.6601,376.0907,262.9501,375.1057 Q262.2401,374.1207,262.2401,372.4707 Q262.2401,370.8207,262.9501,369.8357 Q263.6601,368.8507,265.0901,368.8507 Q266.5201,368.8507,267.2301,369.8357 Q267.9401,370.8207,267.9401,372.4707 Q267.9401,374.1207,267.2301,375.1057 Q266.5201,376.0907,265.0901,376.0907 z" fill="rgb(0,0,0)" />
<path d="M271.9701,369.8607 Q271.0901,369.8607,270.6751,370.5807 Q270.2601,371.3007,270.2601,372.4707 Q270.2601,373.6407,270.6751,374.3607 Q271.0901,375.0807,271.9701,375.0807 Q272.8501,375.0807,273.2551,374.3657 Q273.6601,373.6507,273.6601,372.4707 Q273.6601,371.2907,273.2551,370.5757 Q272.8501,369.8607,271.9701,369.8607 z M271.9701,376.0907 Q270.5401,376.0907,269.8301,375.1057 Q269.1201,374.1207,269.1201,372.4707 Q269.1201,370.8207,269.8301,369.8357 Q270.5401,368.8507,271.9701,368.8507 Q273.4001,368.8507,274.1101,369.8357 Q274.8201,370.8207,274.8201,372.4707 Q274.8201,374.1207,274.1101,375.1057 Q273.4001,376.0907,271.9701,376.0907 z" fill="rgb(0,0,0)" />
<path d="M283.5601,375.1107 Q282.5901,376.0907,281.3201,376.0907 Q280.2101,376.0907,279.4101,375.3357 Q278.6101,374.5807,278.6101,373.3607 Q278.6101,372.1407,279.4451,371.3757 Q280.2801,370.6107,281.4801,370.6107 Q282.6801,370.6107,283.5101,371.4407 L282.8501,372.2507 Q282.1601,371.6507,281.4601,371.6507 Q280.7601,371.6507,280.2451,372.1157 Q279.7301,372.5807,279.7301,373.3157 Q279.7301,374.0507,280.2401,374.5607 Q280.7501,375.0707,281.4951,375.0707 Q282.2401,375.0707,282.9001,374.3907 L283.5601,375.1107 z" fill="rgb(0,0,0)" />
<path d="M286.2701,372.0057 Q285.8401,372.3907,285.8401,373.1307 L285.8401,376.0107 L284.7201,376.0107 L284.7201,368.6007 L285.8401,368.6007 L285.8401,371.6607 Q286.0801,371.1707,286.5651,370.8907 Q287.0501,370.6107,287.6101,370.6107 Q288.5101,370.6107,289.0651,371.1607 Q289.6201,371.7107,289.6201,372.7507 L289.6201,376.0107 L288.5001,376.0107 L288.5001,373.0907 Q288.5001,371.6207,287.2801,371.6207 Q286.7001,371.6207,286.2701,372.0057 z" fill="rgb(0,0,0)" />
<path d="M295.4901,372.5807 L295.4901,376.0107 L294.4701,376.0107 L294.4701,375.3007 Q293.8101,376.0907,292.7001,376.0907 Q291.8701,376.0907,291.3251,375.6207 Q290.7801,375.1507,290.7801,374.3657 Q290.7801,373.5807,291.3601,373.1907 Q291.9401,372.8007,292.9301,372.8007 L294.3801,372.8007 L294.3801,372.6007 Q294.3801,371.5407,293.2001,371.5407 Q292.4601,371.5407,291.6601,372.0807 L291.1601,371.3807 Q292.1301,370.6107,293.3601,370.6107 Q294.3001,370.6107,294.8951,371.0857 Q295.4901,371.5607,295.4901,372.5807 z M293.9701,374.8407 Q294.3701,374.5407,294.3701,374.0307 L294.3701,373.5807 L293.1101,373.5807 Q291.9001,373.5807,291.9001,374.3407 Q291.9001,374.7307,292.2001,374.9357 Q292.5001,375.1407,293.0351,375.1407 Q293.5701,375.1407,293.9701,374.8407 z" fill="rgb(0,0,0)" />
<path d="M299.9001,371.7407 Q299.8701,371.7407,299.8401,371.7407 Q299.0101,371.7407,298.5901,372.2807 Q298.1701,372.8207,298.1701,373.7307 L298.1701,376.0107 L297.0501,376.0107 L297.0501,370.6907 L298.1701,370.6907 L298.1701,371.7607 Q298.4401,371.2607,298.9051,370.9407 Q299.3701,370.6207,299.8901,370.6107 L299.9001,371.7407 z" fill="rgb(0,0,0)" />
<path d="M305.3301,372.5807 L305.3301,376.0107 L304.3101,376.0107 L304.3101,375.3007 Q303.6501,376.0907,302.5401,376.0907 Q301.7101,376.0907,301.1651,375.6207 Q300.6201,375.1507,300.6201,374.3657 Q300.6201,373.5807,301.2001,373.1907 Q301.7801,372.8007,302.7701,372.8007 L304.2201,372.8007 L304.2201,372.6007 Q304.2201,371.5407,303.0401,371.5407 Q302.3001,371.5407,301.5001,372.0807 L301.0001,371.3807 Q301.9701,370.6107,303.2001,370.6107 Q304.1401,370.6107,304.7351,371.0857 Q305.3301,371.5607,305.3301,372.5807 z M303.8101,374.8407 Q304.2101,374.5407,304.2101,374.0307 L304.2101,373.5807 L302.9501,373.5807 Q301.7401,373.5807,301.7401,374.3407 Q301.7401,374.7307,302.0401,374.9357 Q302.3401,375.1407,302.8751,375.1407 Q303.4101,375.1407,303.8101,374.8407 z" fill="rgb(0,0,0)" />
<path d="M311.4901,375.1107 Q310.5201,376.0907,309.2501,376.0907 Q308.1401,376.0907,307.3401,375.3357 Q306.5401,374.5807,306.5401,373.3607 Q306.5401,372.1407,307.3751,371.3757 Q308.2101,370.6107,309.4101,370.6107 Q310.6101,370.6107,311.4401,371.4407 L310.7801,372.2507 Q310.0901,371.6507,309.3901,371.6507 Q308.6901,371.6507,308.1751,372.1157 Q307.6601,372.5807,307.6601,373.3157 Q307.6601,374.0507,308.1701,374.5607 Q308.6801,375.0707,309.4251,375.0707 Q310.1701,375.0707,310.8301,374.3907 L311.4901,375.1107 z" fill="rgb(0,0,0)" />
<path d="M315.4301,371.5907 L314.0301,371.5907 L314.0301,374.2907 Q314.0301,374.6707,314.2301,374.8957 Q314.4301,375.1207,314.7901,375.1207 Q315.1501,375.1207,315.4801,374.7707 L315.9401,375.5607 Q315.3501,376.0907,314.6351,376.0907 Q313.9201,376.0907,313.4151,375.5957 Q312.9101,375.1007,312.9101,374.2607 L312.9101,371.5907 L312.2401,371.5907 L312.2401,370.6907 L312.9101,370.6907 L312.9101,369.0207 L314.0301,369.0207 L314.0301,370.6907 L315.4301,370.6907 L315.4301,371.5907 z" fill="rgb(0,0,0)" />
<path d="M321.7801,373.0707 L321.7801,373.8407 L317.6101,373.8407 Q317.6501,374.4207,318.1401,374.7757 Q318.6301,375.1307,319.2601,375.1307 Q320.2601,375.1307,320.7801,374.5007 L321.4201,375.2007 Q320.5601,376.0907,319.1801,376.0907 Q318.0601,376.0907,317.2751,375.3457 Q316.4901,374.6007,316.4901,373.3457 Q316.4901,372.0907,317.2901,371.3507 Q318.0901,370.6107,319.1751,370.6107 Q320.2601,370.6107,321.0201,371.2657 Q321.7801,371.9207,321.7801,373.0707 z M318.1001,371.9457 Q317.6101,372.3207,317.6101,372.9607 L320.6601,372.9607 Q320.6601,372.2907,320.2401,371.9307 Q319.8201,371.5707,319.2051,371.5707 Q318.5901,371.5707,318.1001,371.9457 z" fill="rgb(0,0,0)" />
<path d="M325.8601,371.7407 Q325.8301,371.7407,325.8001,371.7407 Q324.9701,371.7407,324.5501,372.2807 Q324.1301,372.8207,324.1301,373.7307 L324.1301,376.0107 L323.0101,376.0107 L323.0101,370.6907 L324.1301,370.6907 L324.1301,371.7607 Q324.4001,371.2607,324.8651,370.9407 Q325.3301,370.6207,325.8501,370.6107 L325.8601,371.7407 z" fill="rgb(0,0,0)" />
<path d="M330.2301,373.3007 Q330.7701,373.6607,330.7701,374.4207 Q330.7701,375.1807,330.2201,375.6357 Q329.6701,376.0907,328.8101,376.0907 Q328.2301,376.0907,327.6051,375.8807 Q326.9801,375.6707,326.5001,375.2907 L327.0401,374.4207 Q327.9701,375.1207,328.8401,375.1207 Q329.2201,375.1207,329.4401,374.9457 Q329.6601,374.7707,329.6601,374.5007 Q329.6601,374.1007,328.6001,373.7807 Q328.5201,373.7507,328.4801,373.7407 Q326.8201,373.2907,326.8201,372.2407 Q326.8201,371.5007,327.3951,371.0557 Q327.9701,370.6107,328.8901,370.6107 Q329.8101,370.6107,330.6301,371.1507 L330.2101,371.9807 Q329.5601,371.5507,328.8001,371.5507 Q328.4001,371.5507,328.1501,371.6957 Q327.9001,371.8407,327.9001,372.1307 Q327.9001,372.3907,328.1601,372.5107 Q328.3401,372.6007,328.6651,372.6807 Q328.9901,372.7607,329.2401,372.8407 Q329.4901,372.9207,329.7251,373.0207 Q329.9601,373.1207,330.2301,373.3007 z" fill="rgb(0,0,0)" />
<path d="M292.3925,76.7814 Q292.9825,77.3714,293.8225,77.3714 Q294.9725,77.3714,295.7025,76.4614 L296.7025,77.4914 Q295.5125,78.8314,293.8975,78.8314 Q292.2825,78.8314,291.2375,77.8114 Q290.1925,76.7914,290.1925,75.2364 Q290.1925,73.6814,291.2575,72.6414 Q292.3225,71.6014,293.8625,71.6014 Q295.5825,71.6014,296.7425,72.9114 L295.7725,74.0114 Q295.0325,73.0914,293.9325,73.0914 Q293.0525,73.0914,292.4275,73.6664 Q291.8025,74.2414,291.8025,75.2164 Q291.8025,76.1914,292.3925,76.7814 z" fill="rgb(0,0,0)" />
<path d="M299.3575,74.9814 Q298.9825,75.4014,298.9825,76.0614 Q298.9825,76.7214,299.3575,77.1364 Q299.7325,77.5514,300.3175,77.5514 Q300.9025,77.5514,301.2775,77.1364 Q301.6525,76.7214,301.6525,76.0614 Q301.6525,75.4014,301.2775,74.9814 Q300.9025,74.5614,300.3175,74.5614 Q299.7325,74.5614,299.3575,74.9814 z M302.3525,74.0864 Q303.1625,74.8914,303.1625,76.0614 Q303.1625,77.2314,302.3525,78.0314 Q301.5425,78.8314,300.3175,78.8314 Q299.0925,78.8314,298.2825,78.0314 Q297.4725,77.2314,297.4725,76.0614 Q297.4725,74.8914,298.2825,74.0864 Q299.0925,73.2814,300.3175,73.2814 Q301.5425,73.2814,302.3525,74.0864 z" fill="rgb(0,0,0)" />
<path d="M307.4125,77.2164 Q307.7425,76.8914,307.7425,76.2714 L307.7425,73.3714 L309.2525,73.3714 L309.2525,78.7514 L307.7425,78.7514 L307.7425,78.0414 Q307.1825,78.8314,306.2975,78.8314 Q305.4125,78.8314,304.8125,78.2764 Q304.2125,77.7214,304.2125,76.6314 L304.2125,73.3714 L305.7225,73.3714 L305.7225,76.3014 Q305.7225,77.5414,306.6325,77.5414 Q307.0825,77.5414,307.4125,77.2164 z" fill="rgb(0,0,0)" />
<path d="M312.5075,74.7964 Q312.1725,75.1214,312.1725,75.7514 L312.1725,78.7514 L310.6725,78.7514 L310.6725,73.3714 L312.1725,73.3714 L312.1725,73.9714 Q312.8525,73.2814,313.7025,73.2814 Q314.5525,73.2814,315.1275,73.8814 Q315.7025,74.4814,315.7025,75.4814 L315.7025,78.7514 L314.2025,78.7514 L314.2025,75.7114 Q314.2025,74.4714,313.2925,74.4714 Q312.8425,74.4714,312.5075,74.7964 z" fill="rgb(0,0,0)" />
<path d="M320.1525,74.4514 L318.8525,74.4514 L318.8525,76.8614 Q318.8525,77.1714,319.0125,77.3464 Q319.1725,77.5214,319.3925,77.5214 Q319.8125,77.5214,320.1025,77.1414 L320.6625,78.1914 Q319.9625,78.8314,319.1875,78.8314 Q318.4125,78.8314,317.8775,78.3214 Q317.3425,77.8114,317.3425,76.9314 L317.3425,74.4514 L316.7125,74.4514 L316.7125,73.3714 L317.3425,73.3714 L317.3425,71.7614 L318.8525,71.7614 L318.8525,73.3714 L320.1525,73.3714 L320.1525,74.4514 z" fill="rgb(0,0,0)" />
<path d="M290.0425,84.8114 L290.0425,83.7614 L292.5825,83.7614 L292.5825,90.7514 L291.4625,90.7514 L291.4625,84.8114 L290.0425,84.8114 z" fill="rgb(0,0,0)" />
<path d="M300.8625,88.4914 L297.1225,88.4914 L297.1225,87.8214 L300.8625,87.8214 L300.8625,88.4914 z" fill="rgb(0,0,0)" />
<path d="M305.2625,83.7514 L309.2825,83.7514 L309.2825,84.8214 L306.3325,84.8214 L306.3325,86.5414 Q306.7725,86.3014,307.3325,86.3014 Q308.3125,86.3014,309.0225,86.8914 Q309.7325,87.4814,309.7325,88.4914 Q309.7325,89.5014,308.9925,90.1664 Q308.2525,90.8314,307.1725,90.8314 Q305.7625,90.8314,304.9225,89.8914 L305.5525,89.0314 Q305.6325,89.1114,305.7675,89.2214 Q305.9025,89.3314,306.3225,89.5164 Q306.7425,89.7014,307.2425,89.7014 Q307.7425,89.7014,308.1525,89.4014 Q308.5625,89.1014,308.5625,88.5264 Q308.5625,87.9514,308.1275,87.6364 Q307.6925,87.3214,307.0275,87.3214 Q306.3625,87.3214,305.7625,87.6514 L305.2625,87.1114 L305.2625,83.7514 z" fill="rgb(0,0,0)" />
<path d="M316.3925,84.6014 Q315.5125,84.6014,315.0975,85.3214 Q314.6825,86.0414,314.6825,87.2114 Q314.6825,88.3814,315.0975,89.1014 Q315.5125,89.8214,316.3925,89.8214 Q317.2725,89.8214,317.6775,89.1064 Q318.0825,88.3914,318.0825,87.2114 Q318.0825,86.0314,317.6775,85.3164 Q317.2725,84.6014,316.3925,84.6014 z M316.3925,90.8314 Q314.9625,90.8314,314.2525,89.8464 Q313.5425,88.8614,313.5425,87.2114 Q313.5425,85.5614,314.2525,84.5764 Q314.9625,83.5914,316.3925,83.5914 Q317.8225,83.5914,318.5325,84.5764 Q319.2425,85.5614,319.2425,87.2114 Q319.2425,88.8614,318.5325,89.8464 Q317.8225,90.8314,316.3925,90.8314 z" fill="rgb(0,0,0)" />
<path d="M323.2725,84.6014 Q322.3925,84.6014,321.9775,85.3214 Q321.5625,86.0414,321.5625,87.2114 Q321.5625,88.3814,321.9775,89.1014 Q322.3925,89.8214,323.2725,89.8214 Q324.1525,89.8214,324.5575,89.1064 Q324.9625,88.3914,324.9625,87.2114 Q324.9625,86.0314,324.5575,85.3164 Q324.1525,84.6014,323.2725,84.6014 z M323.2725,90.8314 Q321.8425,90.8314,321.1325,89.8464 Q320.4225,88.8614,320.4225,87.2114 Q320.4225,85.5614,321.1325,84.5764 Q321.8425,83.5914,323.2725,83.5914 Q324.7025,83.5914,325.4125,84.5764 Q326.1225,85.5614,326.1225,87.2114 Q326.1225,88.8614,325.4125,89.8464 Q324.7025,90.8314,323.2725,90.8314 z" fill="rgb(0,0,0)" />
<path d="M330.1525,84.6014 Q329.2725,84.6014,328.8575,85.3214 Q328.4425,86.0414,328.4425,87.2114 Q328.4425,88.3814,328.8575,89.1014 Q329.2725,89.8214,330.1525,89.8214 Q331.0325,89.8214,331.4375,89.1064 Q331.8425,88.3914,331.8425,87.2114 Q331.8425,86.0314,331.4375,85.3164 Q331.0325,84.6014,330.1525,84.6014 z M330.1525,90.8314 Q328.7225,90.8314,328.0125,89.8464 Q327.3025,88.8614,327.3025,87.2114 Q327.3025,85.5614,328.0125,84.5764 Q328.7225,83.5914,330.1525,83.5914 Q331.5825,83.5914,332.2925,84.5764 Q333.0025,85.5614,333.0025,87.2114 Q333.0025,88.8614,332.2925,89.8464 Q331.5825,90.8314,330.1525,90.8314 z" fill="rgb(0,0,0)" />
<path d="M340.8925,87.1114 L339.6325,90.7514 L338.3525,90.7514 L336.5125,85.4314 L337.6725,85.4314 L338.9925,89.4514 L340.3125,85.4314 L341.4725,85.4314 L342.7925,89.4514 L344.1125,85.4314 L345.2725,85.4314 L343.4325,90.7514 L342.1525,90.7514 L340.8925,87.1114 z" fill="rgb(0,0,0)" />
<path d="M347.0325,88.0914 Q347.0325,88.8614,347.5075,89.3464 Q347.9825,89.8314,348.7125,89.8314 Q349.4425,89.8314,349.9175,89.3464 Q350.3925,88.8614,350.3925,88.0914 Q350.3925,87.3214,349.9175,86.8364 Q349.4425,86.3514,348.7125,86.3514 Q347.9825,86.3514,347.5075,86.8364 Q347.0325,87.3214,347.0325,88.0914 z M351.5125,88.0914 Q351.5125,89.2414,350.7125,90.0364 Q349.9125,90.8314,348.7125,90.8314 Q347.5125,90.8314,346.7125,90.0364 Q345.9125,89.2414,345.9125,88.0914 Q345.9125,86.9414,346.7125,86.1464 Q347.5125,85.3514,348.7125,85.3514 Q349.9125,85.3514,350.7125,86.1464 Q351.5125,86.9414,351.5125,88.0914 z" fill="rgb(0,0,0)" />
<path d="M355.6325,86.4814 Q355.6025,86.4814,355.5725,86.4814 Q354.7425,86.4814,354.3225,87.0214 Q353.9025,87.5614,353.9025,88.4714 L353.9025,90.7514 L352.7825,90.7514 L352.7825,85.4314 L353.9025,85.4314 L353.9025,86.5014 Q354.1725,86.0014,354.6375,85.6814 Q355.1025,85.3614,355.6225,85.3514 L355.6325,86.4814 z" fill="rgb(0,0,0)" />
<path d="M358.9225,90.8314 Q357.9125,90.8314,357.1625,90.0714 Q356.4125,89.3114,356.4125,88.0714 Q356.4125,86.8314,357.1825,86.0914 Q357.9525,85.3514,359.0175,85.3514 Q360.0825,85.3514,360.7325,86.2514 L360.7325,83.3314 L361.8525,83.3314 L361.8525,90.7514 L360.7325,90.7514 L360.7325,89.9514 Q360.1125,90.8314,358.9225,90.8314 z M358.0125,86.8414 Q357.5325,87.3514,357.5325,88.1164 Q357.5325,88.8814,358.0225,89.3614 Q358.5125,89.8414,359.1725,89.8414 Q359.8325,89.8414,360.2925,89.3564 Q360.7525,88.8714,360.7525,88.1114 Q360.7525,87.3514,360.2925,86.8414 Q359.8325,86.3314,359.1625,86.3314 Q358.4925,86.3314,358.0125,86.8414 z" fill="rgb(0,0,0)" />
<path d="M366.7225,88.0414 Q367.2625,88.4014,367.2625,89.1614 Q367.2625,89.9214,366.7125,90.3764 Q366.1625,90.8314,365.3025,90.8314 Q364.7225,90.8314,364.0975,90.6214 Q363.4725,90.4114,362.9925,90.0314 L363.5325,89.1614 Q364.4625,89.8614,365.3325,89.8614 Q365.7125,89.8614,365.9325,89.6864 Q366.1525,89.5114,366.1525,89.2414 Q366.1525,88.8414,365.0925,88.5214 Q365.0125,88.4914,364.9725,88.4814 Q363.3125,88.0314,363.3125,86.9814 Q363.3125,86.2414,363.8875,85.7964 Q364.4625,85.3514,365.3825,85.3514 Q366.3025,85.3514,367.1225,85.8914 L366.7025,86.7214 Q366.0525,86.2914,365.2925,86.2914 Q364.8925,86.2914,364.6425,86.4364 Q364.3925,86.5814,364.3925,86.8714 Q364.3925,87.1314,364.6525,87.2514 Q364.8325,87.3414,365.1575,87.4214 Q365.4825,87.5014,365.7325,87.5814 Q365.9825,87.6614,366.2175,87.7614 Q366.4525,87.8614,366.7225,88.0414 z" fill="rgb(0,0,0)" />
<path d="M361.1307,246.8701 L359.1507,246.8701 L359.1507,252.5101 L357.5907,252.5101 L357.5907,246.8701 L355.6107,246.8701 L355.6107,245.5201 L361.1307,245.5201 L361.1307,246.8701 z" fill="rgb(0,0,0)" />
<path d="M363.6207,247.1301 L363.6207,252.5101 L362.1207,252.5101 L362.1207,247.1301 L363.6207,247.1301 z M362.8707,246.7001 Q362.5007,246.7001,362.2457,246.4451 Q361.9907,246.1901,361.9907,245.8201 Q361.9907,245.4501,362.2457,245.1951 Q362.5007,244.9401,362.8707,244.9401 Q363.2407,244.9401,363.4957,245.1951 Q363.7507,245.4501,363.7507,245.8201 Q363.7507,246.1901,363.4957,246.4451 Q363.2407,246.7001,362.8707,246.7001 z" fill="rgb(0,0,0)" />
<path d="M370.3107,248.6551 Q369.9807,248.9801,369.9807,249.6101 L369.9807,252.5101 L368.4707,252.5101 L368.4707,249.5701 Q368.4707,248.9301,368.2757,248.6301 Q368.0807,248.3301,367.6457,248.3301 Q367.2107,248.3301,366.8757,248.6551 Q366.5407,248.9801,366.5407,249.6101 L366.5407,252.5101 L365.0407,252.5101 L365.0407,247.1301 L366.5407,247.1301 L366.5407,247.7401 Q367.1607,247.0401,367.9607,247.0401 Q368.4707,247.0401,368.8857,247.3401 Q369.3007,247.6401,369.5107,248.0701 Q369.8207,247.5801,370.3457,247.3101 Q370.8707,247.0401,371.4007,247.0401 Q372.3507,247.0401,372.9307,247.6051 Q373.5107,248.1701,373.5107,249.2401 L373.5107,252.5101 L372.0007,252.5101 L372.0007,249.5701 Q372.0007,248.3301,371.0907,248.3301 Q370.6407,248.3301,370.3107,248.6551 z" fill="rgb(0,0,0)" />
<path d="M378.6907,250.8201 L379.5307,251.7301 Q378.6207,252.5901,377.3957,252.5901 Q376.1707,252.5901,375.3707,251.8351 Q374.5707,251.0801,374.5707,249.8101 Q374.5707,248.5401,375.3857,247.7901 Q376.2007,247.0401,377.3107,247.0401 Q378.4207,247.0401,379.1957,247.7101 Q379.9707,248.3801,379.9707,249.5501 L379.9707,250.3501 L376.0507,250.3501 Q376.1207,250.7901,376.5107,251.0701 Q376.9007,251.3501,377.3907,251.3501 Q378.1807,251.3501,378.6907,250.8201 z M378.4507,249.2801 Q378.4007,248.8001,378.0907,248.5401 Q377.7807,248.2801,377.3357,248.2801 Q376.8907,248.2801,376.5207,248.5501 Q376.1507,248.8201,376.0907,249.2801 L378.4507,249.2801 z" fill="rgb(0,0,0)" />
<path d="M358.7707,258.3601 Q357.8907,258.3601,357.4757,259.0801 Q357.0607,259.8001,357.0607,260.9701 Q357.0607,262.1401,357.4757,262.8601 Q357.8907,263.5801,358.7707,263.5801 Q359.6507,263.5801,360.0557,262.8651 Q360.4607,262.1501,360.4607,260.9701 Q360.4607,259.7901,360.0557,259.0751 Q359.6507,258.3601,358.7707,258.3601 z M358.7707,264.5901 Q357.3407,264.5901,356.6307,263.6051 Q355.9207,262.6201,355.9207,260.9701 Q355.9207,259.3201,356.6307,258.3351 Q357.3407,257.3501,358.7707,257.3501 Q360.2007,257.3501,360.9107,258.3351 Q361.6207,259.3201,361.6207,260.9701 Q361.6207,262.6201,360.9107,263.6051 Q360.2007,264.5901,358.7707,264.5901 z" fill="rgb(0,0,0)" />
<path d="M363.6107,264.5901 Q363.3007,264.5901,363.0857,264.3701 Q362.8707,264.1501,362.8707,263.8401 Q362.8707,263.5301,363.0857,263.3151 Q363.3007,263.1001,363.6107,263.1001 Q363.9207,263.1001,364.1407,263.3151 Q364.3607,263.5301,364.3607,263.8401 Q364.3607,264.1501,364.1407,264.3701 Q363.9207,264.5901,363.6107,264.5901 z" fill="rgb(0,0,0)" />
<path d="M368.4507,258.3601 Q367.5707,258.3601,367.1557,259.0801 Q366.7407,259.8001,366.7407,260.9701 Q366.7407,262.1401,367.1557,262.8601 Q367.5707,263.5801,368.4507,263.5801 Q369.3307,263.5801,369.7357,262.8651 Q370.1407,262.1501,370.1407,260.9701 Q370.1407,259.7901,369.7357,259.0751 Q369.3307,258.3601,368.4507,258.3601 z M368.4507,264.5901 Q367.0207,264.5901,366.3107,263.6051 Q365.6007,262.6201,365.6007,260.9701 Q365.6007,259.3201,366.3107,258.3351 Q367.0207,257.3501,368.4507,257.3501 Q369.8807,257.3501,370.5907,258.3351 Q371.3007,259.3201,371.3007,260.9701 Q371.3007,262.6201,370.5907,263.6051 Q369.8807,264.5901,368.4507,264.5901 z" fill="rgb(0,0,0)" />
<path d="M379.1907,262.2501 L375.4507,262.2501 L375.4507,261.5801 L379.1907,261.5801 L379.1907,262.2501 z" fill="rgb(0,0,0)" />
<path d="M383.0407,258.5701 L383.0407,257.5201 L385.5807,257.5201 L385.5807,264.5101 L384.4607,264.5101 L384.4607,258.5701 L383.0407,258.5701 z" fill="rgb(0,0,0)" />
<path d="M387.9607,264.5901 Q387.6507,264.5901,387.4357,264.3701 Q387.2207,264.1501,387.2207,263.8401 Q387.2207,263.5301,387.4357,263.3151 Q387.6507,263.1001,387.9607,263.1001 Q388.2707,263.1001,388.4907,263.3151 Q388.7107,263.5301,388.7107,263.8401 Q388.7107,264.1501,388.4907,264.3701 Q388.2707,264.5901,387.9607,264.5901 z" fill="rgb(0,0,0)" />
<path d="M392.8007,258.3601 Q391.9207,258.3601,391.5057,259.0801 Q391.0907,259.8001,391.0907,260.9701 Q391.0907,262.1401,391.5057,262.8601 Q391.9207,263.5801,392.8007,263.5801 Q393.6807,263.5801,394.0857,262.8651 Q394.4907,262.1501,394.4907,260.9701 Q394.4907,259.7901,394.0857,259.0751 Q393.6807,258.3601,392.8007,258.3601 z M392.8007,264.5901 Q391.3707,264.5901,390.6607,263.6051 Q389.9507,262.6201,389.9507,260.9701 Q389.9507,259.3201,390.6607,258.3351 Q391.3707,257.3501,392.8007,257.3501 Q394.2307,257.3501,394.9407,258.3351 Q395.6507,259.3201,395.6507,260.9701 Q395.6507,262.6201,394.9407,263.6051 Q394.2307,264.5901,392.8007,264.5901 z" fill="rgb(0,0,0)" />
<path d="M403.0407,261.8001 Q403.5807,262.1601,403.5807,262.9201 Q403.5807,263.6801,403.0307,264.1351 Q402.4807,264.5901,401.6207,264.5901 Q401.0407,264.5901,400.4157,264.3801 Q399.7907,264.1701,399.3107,263.7901 L399.8507,262.9201 Q400.7807,263.6201,401.6507,263.6201 Q402.0307,263.6201,402.2507,263.4451 Q402.4707,263.2701,402.4707,263.0001 Q402.4707,262.6001,401.4107,262.2801 Q401.3307,262.2501,401.2907,262.2401 Q399.6307,261.7901,399.6307,260.7401 Q399.6307,260.0001,400.2057,259.5551 Q400.7807,259.1101,401.7007,259.1101 Q402.6207,259.1101,403.4407,259.6501 L403.0207,260.4801 Q402.3707,260.0501,401.6107,260.0501 Q401.2107,260.0501,400.9607,260.1951 Q400.7107,260.3401,400.7107,260.6301 Q400.7107,260.8901,400.9707,261.0101 Q401.1507,261.1001,401.4757,261.1801 Q401.8007,261.2601,402.0507,261.3401 Q402.3007,261.4201,402.5357,261.5201 Q402.7707,261.6201,403.0407,261.8001 z" fill="rgb(0,0,0)" />
<path d="M409.8007,261.5701 L409.8007,262.3401 L405.6307,262.3401 Q405.6707,262.9201,406.1607,263.2751 Q406.6507,263.6301,407.2807,263.6301 Q408.2807,263.6301,408.8007,263.0001 L409.4407,263.7001 Q408.5807,264.5901,407.2007,264.5901 Q406.0807,264.5901,405.2957,263.8451 Q404.5107,263.1001,404.5107,261.8451 Q404.5107,260.5901,405.3107,259.8501 Q406.1107,259.1101,407.1957,259.1101 Q408.2807,259.1101,409.0407,259.7651 Q409.8007,260.4201,409.8007,261.5701 z M406.1207,260.4451 Q405.6307,260.8201,405.6307,261.4601 L408.6807,261.4601 Q408.6807,260.7901,408.2607,260.4301 Q407.8407,260.0701,407.2257,260.0701 Q406.6107,260.0701,406.1207,260.4451 z" fill="rgb(0,0,0)" />
<path d="M415.6307,263.6101 Q414.6607,264.5901,413.3907,264.5901 Q412.2807,264.5901,411.4807,263.8351 Q410.6807,263.0801,410.6807,261.8601 Q410.6807,260.6401,411.5157,259.8751 Q412.3507,259.1101,413.5507,259.1101 Q414.7507,259.1101,415.5807,259.9401 L414.9207,260.7501 Q414.2307,260.1501,413.5307,260.1501 Q412.8307,260.1501,412.3157,260.6151 Q411.8007,261.0801,411.8007,261.8151 Q411.8007,262.5501,412.3107,263.0601 Q412.8207,263.5701,413.5657,263.5701 Q414.3107,263.5701,414.9707,262.8901 L415.6307,263.6101 z" fill="rgb(0,0,0)" />
<path d="M417.5607,261.8501 Q417.5607,262.6201,418.0357,263.1051 Q418.5107,263.5901,419.2407,263.5901 Q419.9707,263.5901,420.4457,263.1051 Q420.9207,262.6201,420.9207,261.8501 Q420.9207,261.0801,420.4457,260.5951 Q419.9707,260.1101,419.2407,260.1101 Q418.5107,260.1101,418.0357,260.5951 Q417.5607,261.0801,417.5607,261.8501 z M422.0407,261.8501 Q422.0407,263.0001,421.2407,263.7951 Q420.4407,264.5901,419.2407,264.5901 Q418.0407,264.5901,417.2407,263.7951 Q416.4407,263.0001,416.4407,261.8501 Q416.4407,260.7001,417.2407,259.9051 Q418.0407,259.1101,419.2407,259.1101 Q420.4407,259.1101,421.2407,259.9051 Q422.0407,260.7001,422.0407,261.8501 z" fill="rgb(0,0,0)" />
<path d="M424.8607,260.5051 Q424.4307,260.8901,424.4307,261.6301 L424.4307,264.5101 L423.3107,264.5101 L423.3107,259.1901 L424.4307,259.1901 L424.4307,260.1601 Q424.7007,259.6701,425.1757,259.3901 Q425.6507,259.1101,426.2007,259.1101 Q427.1007,259.1101,427.6557,259.6601 Q428.2107,260.2101,428.2107,261.2501 L428.2107,264.5101 L427.0907,264.5101 L427.0907,261.5901 Q427.0907,260.1201,425.8707,260.1201 Q425.2907,260.1201,424.8607,260.5051 z" fill="rgb(0,0,0)" />
<path d="M431.9407,264.5901 Q430.9307,264.5901,430.1807,263.8301 Q429.4307,263.0701,429.4307,261.8301 Q429.4307,260.5901,430.2007,259.8501 Q430.9707,259.1101,432.0357,259.1101 Q433.1007,259.1101,433.7507,260.0101 L433.7507,257.0901 L434.8707,257.0901 L434.8707,264.5101 L433.7507,264.5101 L433.7507,263.7101 Q433.1307,264.5901,431.9407,264.5901 z M431.0307,260.6001 Q430.5507,261.1101,430.5507,261.8751 Q430.5507,262.6401,431.0407,263.1201 Q431.5307,263.6001,432.1907,263.6001 Q432.8507,263.6001,433.3107,263.1151 Q433.7707,262.6301,433.7707,261.8701 Q433.7707,261.1101,433.3107,260.6001 Q432.8507,260.0901,432.1807,260.0901 Q431.5107,260.0901,431.0307,260.6001 z" fill="rgb(0,0,0)" />
</svg>