<?xml version="1.0" encoding="UTF-8"?>
<!-- Flat -->
<svg version="1.1" xmlns="http://www.w3.org/2000/svg" xmlns:xlink="http://www.w3.org/1999/xlink" width="453.5433" height="396.8504">
<title>Untitled</title>
<polyline points="151.045 332.22 160.1777 332.26 169.3105 332.3672 178.4432 332.4905 187.5759 332.418 196.7087 332.5656 205.8414 332.5775 214.9741 332.7645 224.1069 332.7703 233.2396 332.7988 242.3723 332.8001 251.5051 332.7592 260.6378 332.8118 269.7705 332.7924 278.9033 332.7933 288.036 332.8134 297.1687 332.8088 306.3015 332.8195 315.4342 332.8251 324.5669 332.8118 333.6997 332.8057" stroke="rgb(0,0,0)" fill="none" stroke-width="1.25" />
<polyline points="144.5872 324.2337 153.7199 324.2375 162.8526 324.3276 171.9854 324.4392 181.1181 324.5073 190.2508 324.7451 199.3836 324.681 208.5163 324.6368 217.649 324.608 226.7818 324.5161 235.9145 324.8969 245.0472 324.9458 254.18 324.8315 263.3127 324.9351 272.4454 325.2538 281.5782 325.2615 290.7109 325.3428 299.8436 325.3136 308.9764 325.3208 318.1091 325.355 327.2418 325.4073" stroke="rgb(0,0,0)" fill="none" stroke-width="1.25" />
<polyline points="138.1294 316.1781 147.2621 316.2767 156.3948 316.2054 165.5276 316.364 174.6603 316.496 183.793 316.5572 192.9258 316.522 202.0585 316.8341 211.1912 316.82 220.324 316.9371 229.4567 316.814 238.5894 316.9231 247.7222 316.9457 256.8549 316.909 265.9876 317.032 275.1204 317.099 284.2531 315.8591 293.3858 317.1974 302.5186 317.1012 311.6513 317.1344 320.784 317.2405" stroke="rgb(0,0,0)" fill="none" stroke-width="1.25" />
<polyline points="131.6715 307.1788 140.8043 308.2824 149.937 308.4835 159.0697 307.0996 168.2025 308.6022 177.3352 307.3479 186.4679 308.379 195.6007 308.4791 204.7334 308.8687 213.8661 307.4582 222.9989 307.9534 232.1316 309.259 241.2643 309.2725 250.3971 307.8641 259.5298 308.9112 268.6625 308.9911 277.7953 308.9437 286.928 308.8146 296.0607 309.0258 305.1935 308.954 314.3262 309.4484" stroke="rgb(0,0,0)" fill="none" stroke-width="1.25" />
<polyline points="125.2137 299.2518 134.3465 298.7716 143.4792 300.4864 152.6119 298.8229 161.7447 299.174 170.8774 299.1578 180.0101 299.1724 189.1429 299.3912 198.2756 299.4869 207.4083 299.4792 216.5411 299.6809 225.6738 299.6626 234.8065 299.751 243.9393 299.68 253.072 300.0734 262.2047 300.0402 271.3375 300.0203 280.4702 300.0699 289.6029 300.1523 298.7357 300.1403 307.8684 300.6133" stroke="rgb(0,0,0)" fill="none" stroke-width="1.25" />
<polyline points="118.7559 291.1704 127.8886 290.6429 137.0214 290.9487 146.1541 290.8289 155.2868 291.2384 164.4196 291.2888 173.5523 291.1677 182.685 291.0422 191.8178 291.3437 200.9505 291.6218 210.0832 291.213 219.216 291.0288 228.3487 291.3141 237.4814 291.0827 246.6142 291.7127 255.7469 291.7602 264.8796 291.6636 274.0124 291.6793 283.1451 292.0002 292.2778 292.1551 301.4106 291.6196" stroke="rgb(0,0,0)" fill="none" stroke-width="1.25" />
<polyline points="112.2981 283.2128 121.4308 282.7076 130.5636 282.8327 139.6963 282.6681 148.829 282.9708 157.9618 282.8745 167.0945 282.7801 176.2272 282.9046 185.36 283.4055 194.4927 283.4294 203.6254 283.0713 212.7582 282.9587 221.8909 283.5765 231.0236 283.4723 240.1564 283.2623 249.2891 283.2489 258.4218 283.1721 267.5546 283.594 276.6873 283.5233 285.82 283.4946 294.9528 283.4517" stroke="rgb(0,0,0)" fill="none" stroke-width="1.25" />
<polyline points="105.8403 275.0549 114.973 274.4881 124.1057 274.8521 133.2385 274.3246 142.3712 274.7741 151.5039 275.084 160.6367 274.733 169.7694 274.6581 178.9021 275.0837 188.0349 274.9518 197.1676 275.2158 206.3003 275.1706 215.4331 274.9206 224.5658 275.129 233.6985 274.7631 242.8313 274.8245 251.964 274.9686 261.0967 275.8633 270.2295 275.3403 279.3622 275.117 288.4949 276.0121" stroke="rgb(0,0,0)" fill="none" stroke-width="1.25" />
<polyline points="99.3825 266.8121 108.5152 266.411 117.6479 266.5287 126.7807 266.1111 135.9134 266.79 145.0461 265.1618 154.1789 266.1791 163.3116 266.8541 172.4443 265.5777 181.5771 266.6841 190.7098 266.8452 199.8425 265.6165 208.9753 265.4473 218.108 265.5151 227.2407 265.8446 236.3735 265.7607 245.5062 266.31 254.6389 266.1109 263.7717 266.3217 272.9044 266.4587 282.0371 265.9432" stroke="rgb(0,0,0)" fill="none" stroke-width="1.25" />
<polyline points="92.9246 257.7279 102.0574 258.2077 111.1901 258.4319 120.3228 257.9053 129.4556 258.6819 138.5883 258.4701 147.721 257.1027 156.8538 257.0037 165.9865 257.5093 175.1192 257.8565 184.252 257.2901 193.3847 257.0395 202.5174 256.8753 211.6502 256.8707 220.7829 257.3553 229.9156 257.2854 239.0484 257.3577 248.1811 257.8251 257.3138 257.5496 266.4466 257.5162 275.5793 257.8841" stroke="rgb(0,0,0)" fill="none" stroke-width="1.25" />
<polyline points="86.4668 250.9596 95.5995 248.4152 104.7323 250.1552 113.865 248.0541 122.9978 249.1058 132.1305 248.6516 141.2632 248.3613 150.396 248.8539 159.5287 249.1206 168.6614 249.1918 177.7942 248.679 186.9269 248.4934 196.0596 248.2888 205.1924 250.7192 214.3251 249.8496 223.4578 250.1895 232.5906 250.525 241.7233 249.9574 250.856 250.3 259.9888 250.6681 269.1215 249.9391" stroke="rgb(0,0,0)" fill="none" stroke-width="1.25" />
<polyline points="80.009 242.506 89.1417 239.9272 98.2745 241.8185 107.4072 239.8071 116.5399 240.7773 125.6727 240.3541 134.8054 240.3781 143.9381 240.4839 153.0709 240.8699 162.2036 240.7685 171.3363 242.0619 180.4691 241.9371 189.6018 242.2456 198.7345 241.8165 207.8673 241.9218 217 242.0069 226.1327 240.2594 235.2655 240.4616 244.3982 241.7809 253.5309 242.6869 262.6637 239.1605" stroke="rgb(0,0,0)" fill="none" stroke-width="1.25" />
<polyline points="73.5512 234.5078 82.6839 232.2016 91.8166 233.45 100.9494 231.5796 110.0821 232.8279 119.2148 230.6965 128.3476 231.8218 137.4803 232.2938 146.613 231.2521 155.7458 233.9425 164.8785 232.7896 174.0112 230.792 183.144 232.2138 192.2767 230.9148 201.4094 231.4256 210.5422 229.6362 219.6749 233.951 228.8076 234.5434 237.9404 231.3768 247.0731 233.9061 256.2058 232.3373" stroke="rgb(0,0,0)" fill="none" stroke-width="1.25" />
<polyline points="67.0934 226.2795 76.2261 223.8031 85.3588 223.9289 94.4916 222.9192 103.6243 224.3388 112.757 222.7111 121.8898 222.6603 131.0225 224.254 140.1552 224.2604 149.288 222.8501 158.4207 222.5155 167.5534 222.473 176.6862 222.3222 185.8189 222.1491 194.9516 223.1999 204.0844 223.6034 213.2171 223.593 222.3498 223.5325 231.4826 223.7839 240.6153 223.753 249.748 223.2993" stroke="rgb(0,0,0)" fill="none" stroke-width="1.25" />
<polyline points="60.6355 218.6456 69.7683 215.4451 78.901 215.6905 88.0337 214.9579 97.1665 216.5227 106.2992 214.5119 115.4319 213.9406 124.5647 214.8094 133.6974 215.1753 142.8301 216.8224 151.9629 216.7459 161.0956 213.8996 170.2283 213.9996 179.3611 214.6103 188.4938 214.5245 197.6265 214.6945 206.7593 214.9387 215.892 215.2341 225.0247 215.0971 234.1575 215.1212 243.2902 215.2107" stroke="rgb(0,0,0)" fill="none" stroke-width="1.25" />
<polyline points="54.1777 210.5749 63.3105 209.1651 72.4432 207.315 81.5759 206.797 90.7087 207.1105 99.8414 206.3906 108.9741 206.0874 118.1069 206.5198 127.2396 204.6247 136.3723 206.884 145.5051 208.7334 154.6378 206.4686 163.7705 206.5243 172.9033 206.2301 182.036 206.0131 191.1687 206.8171 200.3015 206.6936 209.4342 207.5698 218.5669 206.8348 227.6997 206.791 236.8324 207.5572" stroke="rgb(0,0,0)" fill="none" stroke-width="1.25" />
<polyline points="47.7199 199.6301 56.8526 201.3845 65.9854 198.8303 75.1181 198.5497 84.2508 200.0008 93.3836 200.7339 102.5163 197.7959 111.649 198.6937 120.7818 195.8136 129.9145 198.6053 139.0472 197.9009 148.18 198.1682 157.3127 197.6788 166.4454 197.7462 175.5782 198.1705 184.7109 199.0221 193.8436 198.5985 202.9764 198.7781 212.1091 198.741 221.2418 198.8938 230.3746 198.0284" stroke="rgb(0,0,0)" fill="none" stroke-width="1.25" />
<polyline points="41.2621 191.289 50.3948 193.3479 59.5276 190.3331 68.6603 188.5963 77.793 190.3012 86.9258 189.2668 96.0585 192.2907 105.1912 190.7332 114.324 190.6729 123.4567 189.5969 132.5894 189.8979 141.7222 189.4041 150.8549 189.3711 159.9876 189.0281 169.1204 189.5341 178.2531 189.8325 187.3858 190.0637 196.5186 190.2343 205.6513 190.2564 214.784 189.8062 223.9168 190.4548" stroke="rgb(0,0,0)" fill="none" stroke-width="1.25" />
<polyline points="34.8043 183.9314 43.937 184.1119 53.0697 181.8564 62.2025 180.372 71.3352 182.1042 80.4679 182.1034 89.6007 181.583 98.7334 182.3361 107.8661 182.6561 116.9989 181.4884 126.1316 181.4259 135.2643 181.0177 144.3971 180.8507 153.5298 180.7611 162.6625 180.5034 171.7953 181.819 180.928 179.8719 190.0607 181.2228 199.1935 181.3742 208.3262 181.2403 217.4589 181.0632" stroke="rgb(0,0,0)" fill="none" stroke-width="1.25" />
<polyline points="166.6355 340.1546 160.1777 332.26 153.7199 324.2375 147.2621 316.2767 140.8043 308.2824 134.3465 298.7716 127.8886 290.6429 121.4308 282.7076 114.973 274.4881 108.5152 266.411 102.0574 258.2077 95.5995 248.4152 89.1417 239.9272 82.6839 232.2016 76.2261 223.8031 69.7683 215.4451 63.3105 209.1651 56.8526 201.3845 50.3948 193.3479 43.937 184.1119 37.4792 173.8521" stroke="rgb(0,0,0)" fill="none" stroke-width="1.25" />
<polyline points="175.7683 340.1557 169.3105 332.3672 162.8526 324.3276 156.3948 316.2054 149.937 308.4835 143.4792 300.4864 137.0214 290.9487 130.5636 282.8327 124.1057 274.8521 117.6479 266.5287 111.1901 258.4319 104.7323 250.1552 98.2745 241.8185 91.8166 233.45 85.3588 223.9289 78.901 215.6905 72.4432 207.315 65.9854 198.8303 59.5276 190.3331 53.0697 181.8564 46.6119 173.8024" stroke="rgb(0,0,0)" fill="none" stroke-width="1.25" />
<polyline points="184.901 340.1557 178.4432 332.4905 171.9854 324.4392 165.5276 316.364 159.0697 307.0996 152.6119 298.8229 146.1541 290.8289 139.6963 282.6681 133.2385 274.3246 126.7807 266.1111 120.3228 257.9053 113.865 248.0541 107.4072 239.8071 100.9494 231.5796 94.4916 222.9192 88.0337 214.9579 81.5759 206.797 75.1181 198.5497 68.6603 188.5963 62.2025 180.372 55.7447 171.8639" stroke="rgb(0,0,0)" fill="none" stroke-width="1.25" />
<polyline points="194.0337 340.1558 187.5759 332.418 181.1181 324.5073 174.6603 316.496 168.2025 308.6022 161.7447 299.174 155.2868 291.2384 148.829 282.9708 142.3712 274.7741 135.9134 266.79 129.4556 258.6819 122.9978 249.1058 116.5399 240.7773 110.0821 232.8279 103.6243 224.3388 97.1665 216.5227 90.7087 207.1105 84.2508 200.0008 77.793 190.3012 71.3352 182.1042 64.8774 171.191" stroke="rgb(0,0,0)" fill="none" stroke-width="1.25" />
<polyline points="203.1665 340.1558 196.7087 332.5656 190.2508 324.7451 183.793 316.5572 177.3352 307.3479 170.8774 299.1578 164.4196 291.2888 157.9618 282.8745 151.5039 275.084 145.0461 265.1618 138.5883 258.4701 132.1305 248.6516 125.6727 240.3541 119.2148 230.6965 112.757 222.7111 106.2992 214.5119 99.8414 206.3906 93.3836 200.7339 86.9258 189.2668 80.4679 182.1034 74.0101 173.4228" stroke="rgb(0,0,0)" fill="none" stroke-width="1.25" />
<polyline points="212.2992 340.1559 205.8414 332.5775 199.3836 324.681 192.9258 316.522 186.4679 308.379 180.0101 299.1724 173.5523 291.1677 167.0945 282.7801 160.6367 274.733 154.1789 266.1791 147.721 257.1027 141.2632 248.3613 134.8054 240.3781 128.3476 231.8218 121.8898 222.6603 115.4319 213.9406 108.9741 206.0874 102.5163 197.7959 96.0585 192.2907 89.6007 181.583 83.1429 172.7054" stroke="rgb(0,0,0)" fill="none" stroke-width="1.25" />
<polyline points="221.4319 340.1558 214.9741 332.7645 208.5163 324.6368 202.0585 316.8341 195.6007 308.4791 189.1429 299.3912 182.685 291.0422 176.2272 282.9046 169.7694 274.6581 163.3116 266.8541 156.8538 257.0037 150.396 248.8539 143.9381 240.4839 137.4803 232.2938 131.0225 224.254 124.5647 214.8094 118.1069 206.5198 111.649 198.6937 105.1912 190.7332 98.7334 182.3361 92.2756 174.1772" stroke="rgb(0,0,0)" fill="none" stroke-width="1.25" />
<polyline points="230.5647 340.1558 224.1069 332.7703 217.649 324.608 211.1912 316.82 204.7334 308.8687 198.2756 299.4869 191.8178 291.3437 185.36 283.4055 178.9021 275.0837 172.4443 265.5777 165.9865 257.5093 159.5287 249.1206 153.0709 240.8699 146.613 231.2521 140.1552 224.2604 133.6974 215.1753 127.2396 204.6247 120.7818 195.8136 114.324 190.6729 107.8661 182.6561 101.4083 173.7723" stroke="rgb(0,0,0)" fill="none" stroke-width="1.25" />
<polyline points="239.6974 340.1559 233.2396 332.7988 226.7818 324.5161 220.324 316.9371 213.8661 307.4582 207.4083 299.4792 200.9505 291.6218 194.4927 283.4294 188.0349 274.9518 181.5771 266.6841 175.1192 257.8565 168.6614 249.1918 162.2036 240.7685 155.7458 233.9425 149.288 222.8501 142.8301 216.8224 136.3723 206.884 129.9145 198.6053 123.4567 189.5969 116.9989 181.4884 110.5411 173.2188" stroke="rgb(0,0,0)" fill="none" stroke-width="1.25" />
<polyline points="248.8301 340.1558 242.3723 332.8001 235.9145 324.8969 229.4567 316.814 222.9989 307.9534 216.5411 299.6809 210.0832 291.213 203.6254 283.0713 197.1676 275.2158 190.7098 266.8452 184.252 257.2901 177.7942 248.679 171.3363 242.0619 164.8785 232.7896 158.4207 222.5155 151.9629 216.7459 145.5051 208.7334 139.0472 197.9009 132.5894 189.8979 126.1316 181.4259 119.6738 173.4983" stroke="rgb(0,0,0)" fill="none" stroke-width="1.25" />
<polyline points="257.9629 340.1558 251.5051 332.7592 245.0472 324.9458 238.5894 316.9231 232.1316 309.259 225.6738 299.6626 219.216 291.0288 212.7582 282.9587 206.3003 275.1706 199.8425 265.6165 193.3847 257.0395 186.9269 248.4934 180.4691 241.9371 174.0112 230.792 167.5534 222.473 161.0956 213.8996 154.6378 206.4686 148.18 198.1682 141.7222 189.4041 135.2643 181.0177 128.8065 173.4444" stroke="rgb(0,0,0)" fill="none" stroke-width="1.25" />
<polyline points="267.0956 340.1559 260.6378 332.8118 254.18 324.8315 247.7222 316.9457 241.2643 309.2725 234.8065 299.751 228.3487 291.3141 221.8909 283.5765 215.4331 274.9206 208.9753 265.4473 202.5174 256.8753 196.0596 248.2888 189.6018 242.2456 183.144 232.2138 176.6862 222.3222 170.2283 213.9996 163.7705 206.5243 157.3127 197.6788 150.8549 189.3711 144.3971 180.8507 137.9393 173.3127" stroke="rgb(0,0,0)" fill="none" stroke-width="1.25" />
<polyline points="276.2283 340.1558 269.7705 332.7924 263.3127 324.9351 256.8549 316.909 250.3971 307.8641 243.9393 299.68 237.4814 291.0827 231.0236 283.4723 224.5658 275.129 218.108 265.5151 211.6502 256.8707 205.1924 250.7192 198.7345 241.8165 192.2767 230.9148 185.8189 222.1491 179.3611 214.6103 172.9033 206.2301 166.4454 197.7462 159.9876 189.0281 153.5298 180.7611 147.072 172.6499" stroke="rgb(0,0,0)" fill="none" stroke-width="1.25" />
<polyline points="285.3611 340.1557 278.9033 332.7933 272.4454 325.2538 265.9876 317.032 259.5298 308.9112 253.072 300.0734 246.6142 291.7127 240.1564 283.2623 233.6985 274.7631 227.2407 265.8446 220.7829 257.3553 214.3251 249.8496 207.8673 241.9218 201.4094 231.4256 194.9516 223.1999 188.4938 214.5245 182.036 206.0131 175.5782 198.1705 169.1204 189.5341 162.6625 180.5034 156.2047 172.4654" stroke="rgb(0,0,0)" fill="none" stroke-width="1.25" />
<polyline points="294.4938 340.1559 288.036 332.8134 281.5782 325.2615 275.1204 317.099 268.6625 308.9911 262.2047 300.0402 255.7469 291.7602 249.2891 283.2489 242.8313 274.8245 236.3735 265.7607 229.9156 257.2854 223.4578 250.1895 217 242.0069 210.5422 229.6362 204.0844 223.6034 197.6265 214.6945 191.1687 206.8171 184.7109 199.0221 178.2531 189.8325 171.7953 181.819 165.3375 171.8593" stroke="rgb(0,0,0)" fill="none" stroke-width="1.25" />
<polyline points="303.6265 340.1559 297.1687 332.8088 290.7109 325.3428 284.2531 315.8591 277.7953 308.9437 271.3375 300.0203 264.8796 291.6636 258.4218 283.1721 251.964 274.9686 245.5062 266.31 239.0484 257.3577 232.5906 250.525 226.1327 240.2594 219.6749 233.951 213.2171 223.593 206.7593 214.9387 200.3015 206.6936 193.8436 198.5985 187.3858 190.0637 180.928 179.8719 174.4702 173.2921" stroke="rgb(0,0,0)" fill="none" stroke-width="1.25" />
<polyline points="312.7593 340.1558 306.3015 332.8195 299.8436 325.3136 293.3858 317.1974 286.928 308.8146 280.4702 300.0699 274.0124 291.6793 267.5546 283.594 261.0967 275.8633 254.6389 266.1109 248.1811 257.8251 241.7233 249.9574 235.2655 240.4616 228.8076 234.5434 222.3498 223.5325 215.892 215.2341 209.4342 207.5698 202.9764 198.7781 196.5186 190.2343 190.0607 181.2228 183.6029 173.2159" stroke="rgb(0,0,0)" fill="none" stroke-width="1.25" />
<polyline points="321.892 340.1559 315.4342 332.8251 308.9764 325.3208 302.5186 317.1012 296.0607 309.0258 289.6029 300.1523 283.1451 292.0002 276.6873 283.5233 270.2295 275.3403 263.7717 266.3217 257.3138 257.5496 250.856 250.3 244.3982 241.7809 237.9404 231.3768 231.4826 223.7839 225.0247 215.0971 218.5669 206.8348 212.1091 198.741 205.6513 190.2564 199.1935 181.3742 192.7357 173.8443" stroke="rgb(0,0,0)" fill="none" stroke-width="1.25" />
<polyline points="331.0247 340.1558 324.5669 332.8118 318.1091 325.355 311.6513 317.1344 305.1935 308.954 298.7357 300.1403 292.2778 292.1551 285.82 283.4946 279.3622 275.117 272.9044 266.4587 266.4466 257.5162 259.9888 250.6681 253.5309 242.6869 247.0731 233.9061 240.6153 223.753 234.1575 215.1212 227.6997 206.791 221.2418 198.8938 214.784 189.8062 208.3262 181.2403 201.8684 173.6692" stroke="rgb(0,0,0)" fill="none" stroke-width="1.25" />
<polygon points="157.5028 340.152 166.6355 340.1546 175.7683 340.1557 184.901 340.1557 194.0337 340.1558 203.1665 340.1558 212.2992 340.1559 221.4319 340.1558 230.5647 340.1558 239.6974 340.1559 248.8301 340.1558 257.9629 340.1558 267.0956 340.1559 276.2283 340.1558 285.3611 340.1557 294.4938 340.1559 303.6265 340.1559 312.7593 340.1558 321.892 340.1559 331.0247 340.1558 340.1575 340.1559 340.1575 340.1559 333.6997 332.8057 327.2418 325.4073 320.784 317.2405 314.3262 309.4484 307.8684 300.6133 301.4106 291.6196 294.9528 283.4517 288.4949 276.0121 282.0371 265.9432 275.5793 257.8841 269.1215 249.9391 262.6637 239.1605 256.2058 232.3373 249.748 223.2993 243.2902 215.2107 236.8324 207.5572 230.3746 198.0284 223.9168 190.4548 217.4589 181.0632 211.0011 172.4805 211.0011 172.4805 201.8684 173.6692 192.7357 173.8443 183.6029 173.2159 174.4702 173.2921 165.3375 171.8593 156.2047 172.4654 147.072 172.6499 137.9393 173.3127 128.8065 173.4444 119.6738 173.4983 110.5411 173.2188 101.4083 173.7723 92.2756 174.1772 83.1429 172.7054 74.0101 173.4228 64.8774 171.191 55.7447 171.8639 46.6119 173.8024 37.4792 173.8521 28.3465 175.4117 28.3465 175.4117 34.8043 183.9314 41.2621 191.289 47.7199 199.6301 54.1777 210.5749 60.6355 218.6456 67.0934 226.2795 73.5512 234.5078 80.009 242.506 86.4668 250.9596 92.9246 257.7279 99.3825 266.8121 105.8403 275.0549 112.2981 283.2128 118.7559 291.1704 125.2137 299.2518 131.6715 307.1788 138.1294 316.1781 144.5872 324.2337 151.045 332.22 157.5028 340.152" stroke="rgb(0,0,0)" fill="none" stroke-width="1.25" />
<polygon points="157.5028 340.1575 340.1575 340.1575 340.1575 157.5028 211.0011 28.3465 28.3465 28.3465 28.3465 211.0011" stroke="rgb(0,0,0)" fill="none" stroke-width="0.25" />
<polyline points="157.5028 340.1575 157.5028 157.5028 340.1575 157.5028" stroke="rgb(0,0,0)" fill="none" stroke-width="0.25" />
<line x1="28.3465" y1="28.3465" x2="157.5028" y2="157.5028" stroke="rgb(0,0,0)" fill="none" stroke-width="0.25" />
<polyline points="28.3465 211.0011 211.0011 211.0011 211.0011 28.3465" stroke="rgb(0,0,0)" fill="none" stroke-width="0.25" />
<line x1="211.0011" y1="211.0011" x2="340.1575" y2="340.1575" stroke="rgb(0,0,0)" fill="none" stroke-width="0.25" />
<path d="M235.2101,357.0207 L236.5901,361.0407 L237.8301,357.0207 L239.4601,357.0207 L240.6901,361.0407 L242.0801,357.0207 L243.7701,357.0207 L241.3301,364.0107 L240.1701,364.0107 L238.6401,359.1507 L237.1201,364.0107 L235.9601,364.0107 L233.5201,357.0207 L235.2101,357.0207 z" fill="rgb(0,0,0)" />
<path d="M245.9501,358.6307 L245.9501,364.0107 L244.4501,364.0107 L244.4501,358.6307 L245.9501,358.6307 z M245.2001,358.2007 Q244.8301,358.2007,244.5751,357.9457 Q244.3201,357.6907,244.3201,357.3207 Q244.3201,356.9507,244.5751,356.6957 Q244.8301,356.4407,245.2001,356.4407 Q245.5701,356.4407,245.8251,356.6957 Q246.0801,356.9507,246.0801,357.3207 Q246.0801,357.6907,245.8251,357.9457 Q245.5701,358.2007,245.2001,358.2007 z" fill="rgb(0,0,0)" />
<path d="M251.1101,363.3007 Q250.4801,364.0907,249.5251,364.0907 Q248.5701,364.0907,247.8201,363.2807 Q247.0701,362.4707,247.0701,361.2707 Q247.0701,360.0707,247.8001,359.3057 Q248.5301,358.5407,249.5101,358.5407 Q250.4901,358.5407,251.1101,359.2307 L251.1101,356.5907 L252.6101,356.5907 L252.6101,364.0107 L251.1101,364.0107 L251.1101,363.3007 z M248.9601,360.2407 Q248.5801,360.6807,248.5801,361.3307 Q248.5801,361.9807,248.9701,362.3957 Q249.3601,362.8107,249.8801,362.8107 Q250.4001,362.8107,250.7651,362.3957 Q251.1301,361.9807,251.1301,361.3257 Q251.1301,360.6707,250.7651,360.2357 Q250.4001,359.8007,249.8701,359.8007 Q249.3401,359.8007,248.9601,360.2407 z" fill="rgb(0,0,0)" />
<path d="M257.1201,359.7107 L255.8201,359.7107 L255.8201,362.1207 Q255.8201,362.4307,255.9801,362.6057 Q256.1401,362.7807,256.3601,362.7807 Q256.7801,362.7807,257.0701,362.4007 L257.6301,363.4507 Q256.9301,364.0907,256.1551,364.0907 Q255.3801,364.0907,254.8451,363.5807 Q254.3101,363.0707,254.3101,362.1907 L254.3101,359.7107 L253.6801,359.7107 L253.6801,358.6307 L254.3101,358.6307 L254.3101,357.0207 L255.8201,357.0207 L255.8201,358.6307 L257.1201,358.6307 L257.1201,359.7107 z" fill="rgb(0,0,0)" />
<path d="M260.2651,360.1557 Q259.9301,360.4807,259.9301,361.1107 L259.9301,364.0107 L258.4301,364.0107 L258.4301,356.5907 L259.9301,356.5907 L259.9301,359.2307 Q260.6101,358.5407,261.4551,358.5407 Q262.3001,358.5407,262.8801,359.1407 Q263.4601,359.7407,263.4601,360.7407 L263.4601,364.0107 L261.9601,364.0107 L261.9601,361.0707 Q261.9601,359.8307,261.0501,359.8307 Q260.6001,359.8307,260.2651,360.1557 z" fill="rgb(0,0,0)" />
<path d="M233.8401,370.0707 L233.8401,369.0207 L236.3801,369.0207 L236.3801,376.0107 L235.2601,376.0107 L235.2601,370.0707 L233.8401,370.0707 z" fill="rgb(0,0,0)" />
<path d="M244.6601,373.7507 L240.9201,373.7507 L240.9201,373.0807 L244.6601,373.0807 L244.6601,373.7507 z" fill="rgb(0,0,0)" />
<path d="M249.0601,369.0107 L253.0801,369.0107 L253.0801,370.0807 L250.1301,370.0807 L250.1301,371.8007 Q250.5701,371.5607,251.1301,371.5607 Q252.1101,371.5607,252.8201,372.1507 Q253.5301,372.7407,253.5301,373.7507 Q253.5301,374.7607,252.7901,375.4257 Q252.0501,376.0907,250.9701,376.0907 Q249.5601,376.0907,248.7201,375.1507 L249.3501,374.2907 Q249.4301,374.3707,249.5651,374.4807 Q249.7001,374.5907,250.1201,374.7757 Q250.5401,374.9607,251.0401,374.9607 Q251.5401,374.9607,251.9501,374.6607 Q252.3601,374.3607,252.3601,373.7857 Q252.3601,373.2107,251.9251,372.8957 Q251.4901,372.5807,250.8251,372.5807 Q250.1601,372.5807,249.5601,372.9107 L249.0601,372.3707 L249.0601,369.0107 z" fill="rgb(0,0,0)" />
<path d="M257.4501,369.8607 Q256.5701,369.8607,256.1551,370.5807 Q255.7401,371.3007,255.7401,372.4707 Q255.7401,373.6407,256.1551,374.3607 Q256.5701,375.0807,257.4501,375.0807 Q258.3301,375.0807,258.7351,374.3657 Q259.1401,373.6507,259.1401,372.4707 Q259.1401,371.2907,258.7351,370.5757 Q258.3301,369.8607,257.4501,369.8607 z M257.4501,376.0907 Q256.0201,376.0907,255.3101,375.1057 Q254.6001,374.1207,254.6001,372.4707 Q254.6001,370.8207,255.3101,369.8357 Q256.0201,368.8507,257.4501,368.8507 Q258.8801,368.8507,259.5901,369.8357 Q260.3001,370.8207,260.3001,372.4707 Q260.3001,374.1207,259.5901,375.1057 Q258.8801,376.0907,257.4501,376.0907 z" fill="rgb(0,0,0)" />
<path d="M267.0701,369.8607 Q266.1901,369.8607,265.7751,370.5807 Q265.3601,371.3007,265.3601,372.4707 Q265.3601,373.6407,265.7751,374.3607 Q266.1901,375.0807,267.0701,375.0807 Q267.9501,375.0807,268.3551,374.3657 Q268.7601,373.6507,268.7601,372.4707 Q268.7601,371.2907,268.3551,370.5757 Q267.9501,369.8607,267.0701,369.8607 z M267.0701,376.0907 Q265.6401,376.0907,264.9301,375.1057 Q264.2201,374.1207,264.2201,372.4707 Q264.2201,370.8207,264.9301,369.8357 Q265.6401,368.8507,267.0701,368.8507 Q268.5001,368.8507,269.2101,369.8357 Q269.9201,370.8207,269.9201,372.4707 Q269.9201,374.1207,269.2101,375.1057 Q268.5001,376.0907,267.0701,376.0907 z" fill="rgb(0,0,0)" />
<path d="M273.9501,369.8607 Q273.0701,369.8607,272.6551,370.5807 Q272.2401,371.3007,272.2401,372.4707 Q272.2401,373.6407,272.6551,374.3607 Q273.0701,375.0807,273.9501,375.0807 Q274.8301,375.0807,275.2351,374.3657 Q275.6401,373.6507,275.6401,372.4707 Q275.6401,371.2907,275.2351,370.5757 Q274.8301,369.8607,273.9501,369.8607 z M273.9501,376.0907 Q272.5201,376.0907,271.8101,375.1057 Q271.1001,374.1207,271.1001,372.4707 Q271.1001,370.8207,271.8101,369.8357 Q272.5201,368.8507,273.9501,368.8507 Q275.3801,368.8507,276.0901,369.8357 Q276.8001,370.8207,276.8001,372.4707 Q276.8001,374.1207,276.0901,375.1057 Q275.3801,376.0907,273.9501,376.0907 z" fill="rgb(0,0,0)" />
<path d="M280.8301,369.8607 Q279.9501,369.8607,279.5351,370.5807 Q279.1201,371.3007,279.1201,372.4707 Q279.1201,373.6407,279.5351,374.3607 Q279.9501,375.0807,280.8301,375.0807 Q281.7101,375.0807,282.1151,374.3657 Q282.5201,373.6507,282.5201,372.4707 Q282.5201,371.2907,282.1151,370.5757 Q281.7101,369.8607,280.8301,369.8607 z M280.8301,376.0907 Q279.4001,376.0907,278.6901,375.1057 Q277.9801,374.1207,277.9801,372.4707 Q277.9801,370.8207,278.6901,369.8357 Q279.4001,368.8507,280.8301,368.8507 Q282.2601,368.8507,282.9701,369.8357 Q283.6801,370.8207,283.6801,372.4707 Q283.6801,374.1207,282.9701,375.1057 Q282.2601,376.0907,280.8301,376.0907 z" fill="rgb(0,0,0)" />
<path d="M292.4201,375.1107 Q291.4501,376.0907,290.1801,376.0907 Q289.0701,376.0907,288.2701,375.3357 Q287.4701,374.5807,287.4701,373.3607 Q287.4701,372.1407,288.3051,371.3757 Q289.1401,370.6107,290.3401,370.6107 Q291.5401,370.6107,292.3701,371.4407 L291.7101,372.2507 Q291.0201,371.6507,290.3201,371.6507 Q289.6201,371.6507,289.1051,372.1157 Q288.5901,372.5807,288.5901,373.3157 Q288.5901,374.0507,289.1001,374.5607 Q289.6101,375.0707,290.3551,375.0707 Q291.1001,375.0707,291.7601,374.3907 L292.4201,375.1107 z" fill="rgb(0,0,0)" />
<path d="M295.1301,372.0057 Q294.7001,372.3907,294.7001,373.1307 L294.7001,376.0107 L293.5801,376.0107 L293.5801,368.6007 L294.7001,368.6007 L294.7001,371.6607 Q294.9401,371.1707,295.4251,370.8907 Q295.9101,370.6107,296.4701,370.6107 Q297.3701,370.6107,297.9251,371.1607 Q298.4801,371.7107,298.4801,372.7507 L298.4801,376.0107 L297.3601,376.0107 L297.3601,373.0907 Q297.3601,371.6207,296.1401,371.6207 Q295.5601,371.6207,295.1301,372.0057 z" fill="rgb(0,0,0)" />
<path d="M304.3501,372.5807 L304.3501,376.0107 L303.3301,376.0107 L303.3301,375.3007 Q302.6701,376.0907,301.5601,376.0907 Q300.7301,376.0907,300.1851,375.6207 Q299.6401,375.1507,299.6401,374.3657 Q299.6401,373.5807,300.2201,373.1907 Q300.8001,372.8007,301.7901,372.8007 L303.2401,372.8007 L303.2401,372.6007 Q303.2401,371.5407,302.0601,371.5407 Q301.3201,371.5407,300.5201,372.0807 L300.0201,371.3807 Q300.9901,370.6107,302.2201,370.6107 Q303.1601,370.6107,303.7551,371.0857 Q304.3501,371.5607,304.3501,372.5807 z M302.8301,374.8407 Q303.2301,374.5407,303.2301,374.0307 L303.2301,373.5807 L301.9701,373.5807 Q300.7601,373.5807,300.7601,374.3407 Q300.7601,374.7307,301.0601,374.9357 Q301.3601,375.1407,301.8951,375.1407 Q302.4301,375.1407,302.8301,374.8407 z" fill="rgb(0,0,0)" />
<path d="M308.7601,371.7407 Q308.7301,371.7407,308.7001,371.7407 Q307.8701,371.7407,307.4501,372.2807 Q307.0301,372.8207,307.0301,373.7307 L307.0301,376.0107 L305.9101,376.0107 L305.9101,370.6907 L307.0301,370.6907 L307.0301,371.7607 Q307.3001,371.2607,307.7651,370.9407 Q308.2301,370.6207,308.7501,370.6107 L308.7601,371.7407 z" fill="rgb(0,0,0)" />
<path d="M314.1901,372.5807 L314.1901,376.0107 L313.1701,376.0107 L313.1701,375.3007 Q312.5101,376.0907,311.4001,376.0907 Q310.5701,376.0907,310.0251,375.6207 Q309.4801,375.1507,309.4801,374.3657 Q309.4801,373.5807,310.0601,373.1907 Q310.6401,372.8007,311.6301,372.8007 L313.0801,372.8007 L313.0801,372.6007 Q313.0801,371.5407,311.9001,371.5407 Q311.1601,371.5407,310.3601,372.0807 L309.8601,371.3807 Q310.8301,370.6107,312.0601,370.6107 Q313.0001,370.6107,313.5951,371.0857 Q314.1901,371.5607,314.1901,372.5807 z M312.6701,374.8407 Q313.0701,374.5407,313.0701,374.0307 L313.0701,373.5807 L311.8101,373.5807 Q310.6001,373.5807,310.6001,374.3407 Q310.6001,374.7307,310.9001,374.9357 Q311.2001,375.1407,311.7351,375.1407 Q312.2701,375.1407,312.6701,374.8407 z" fill="rgb(0,0,0)" />
<path d="M320.3501,375.1107 Q319.3801,376.0907,318.1101,376.0907 Q317.0001,376.0907,316.2001,375.3357 Q315.4001,374.5807,315.4001,373.3607 Q315.4001,372.1407,316.2351,371.3757 Q317.0701,370.6107,318.2701,370.6107 Q319.4701,370.6107,320.3001,371.4407 L319.6401,372.2507 Q318.9501,371.6507,318.2501,371.6507 Q317.5501,371.6507,317.0351,372.1157 Q316.5201,372.5807,316.5201,373.3157 Q316.5201,374.0507,317.0301,374.5607 Q317.5401,375.0707,318.2851,375.0707 Q319.0301,375.0707,319.6901,374.3907 L320.3501,375.1107 z" fill="rgb(0,0,0)" />
<path d="M324.2901,371.5907 L322.8901,371.5907 L322.8901,374.2907 Q322.8901,374.6707,323.0901,374.8957 Q323.2901,375.1207,323.6501,375.1207 Q324.0101,375.1207,324.3401,374.7707 L324.8001,375.5607 Q324.2101,376.0907,323.4951,376.0907 Q322.7801,376.0907,322.2751,375.5957 Q321.7701,375.1007,321.7701,374.2607 L321.7701,371.5907 L321.1001,371.5907 L321.1001,370.6907 L321.7701,370.6907 L321.7701,369.0207 L322.8901,369.0207 L322.8901,370.6907 L324.2901,370.6907 L324.2901,371.5907 z" fill="rgb(0,0,0)" />
<path d="M330.6401,373.0707 L330.6401,373.8407 L326.4701,373.8407 Q326.5101,374.4207,327.0001,374.7757 Q327.4901,375.1307,328.1201,375.1307 Q329.1201,375.1307,329.6401,374.5007 L330.2801,375.2007 Q329.4201,376.0907,328.0401,376.0907 Q326.9201,376.0907,326.1351,375.3457 Q325.3501,374.6007,325.3501,373.3457 Q325.3501,372.0907,326.1501,371.3507 Q326.9501,370.6107,328.0351,370.6107 Q329.1201,370.6107,329.8801,371.2657 Q330.6401,371.9207,330.6401,373.0707 z M326.9601,371.9457 Q326.4701,372.3207,326.4701,372.9607 L329.5201,372.9607 Q329.5201,372.2907,329.1001,371.9307 Q328.6801,371.5707,328.0651,371.5707 Q327.4501,371.5707,326.9601,371.9457 z" fill="rgb(0,0,0)" />
<path d="M334.7201,371.7407 Q334.6901,371.7407,334.6601,371.7407 Q333.8301,371.7407,333.4101,372.2807 Q332.9901,372.8207,332.9901,373.7307 L332.9901,376.0107 L331.8701,376.0107 L331.8701,370.6907 L332.9901,370.6907 L332.9901,371.7607 Q333.2601,371.2607,333.7251,370.9407 Q334.1901,370.6207,334.7101,370.6107 L334.7201,371.7407 z" fill="rgb(0,0,0)" />
<path d="M339.0901,373.3007 Q339.6301,373.6607,339.6301,374.4207 Q339.6301,375.1807,339.0801,375.6357 Q338.5301,376.0907,337.6701,376.0907 Q337.0901,376.0907,336.4651,375.8807 Q335.8401,375.6707,335.3601,375.2907 L335.9001,374.4207 Q336.8301,375.1207,337.7001,375.1207 Q338.0801,375.1207,338.3001,374.9457 Q338.5201,374.7707,338.5201,374.5007 Q338.5201,374.1007,337.4601,373.7807 Q337.3801,373.7507,337.3401,373.7407 Q335.6801,373.2907,335.6801,372.2407 Q335.6801,371.5007,336.2551,371.0557 Q336.8301,370.6107,337.7501,370.6107 Q338.6701,370.6107,339.4901,371.1507 L339.0701,371.9807 Q338.4201,371.5507,337.6601,371.5507 Q337.2601,371.5507,337.0101,371.6957 Q336.7601,371.8407,336.7601,372.1307 Q336.7601,372.3907,337.0201,372.5107 Q337.2001,372.6007,337.5251,372.6807 Q337.8501,372.7607,338.1001,372.8407 Q338.3501,372.9207,338.5851,373.0207 Q338.8201,373.1207,339.0901,373.3007 z" fill="rgb(0,0,0)" />
<path d="M292.3925,76.7814 Q292.9825,77.3714,293.8225,77.3714 Q294.9725,77.3714,295.7025,76.4614 L296.7025,77.4914 Q295.5125,78.8314,293.8975,78.8314 Q292.2825,78.8314,291.2375,77.8114 Q290.1925,76.7914,290.1925,75.2364 Q290.1925,73.6814,291.2575,72.6414 Q292.3225,71.6014,293.8625,71.6014 Q295.5825,71.6014,296.7425,72.9114 L295.7725,74.0114 Q295.0325,73.0914,293.9325,73.0914 Q293.0525,73.0914,292.4275,73.6664 Q291.8025,74.2414,291.8025,75.2164 Q291.8025,76.1914,292.3925,76.7814 z" fill="rgb(0,0,0)" />
<path d="M299.3575,74.9814 Q298.9825,75.4014,298.9825,76.0614 Q298.9825,76.7214,299.3575,77.1364 Q299.7325,77.5514,300.3175,77.5514 Q300.9025,77.5514,301.2775,77.1364 Q301.6525,76.7214,301.6525,76.0614 Q301.6525,75.4014,301.2775,74.9814 Q300.9025,74.5614,300.3175,74.5614 Q299.7325,74.5614,299.3575,74.9814 z M302.3525,74.0864 Q303.1625,74.8914,303.1625,76.0614 Q303.1625,77.2314,302.3525,78.0314 Q301.5425,78.8314,300.3175,78.8314 Q299.0925,78.8314,298.2825,78.0314 Q297.4725,77.2314,297.4725,76.0614 Q297.4725,74.8914,298.2825,74.0864 Q299.0925,73.2814,300.3175,73.2814 Q301.5425,73.2814,302.3525,74.0864 z" fill="rgb(0,0,0)" />
<path d="M307.4125,77.2164 Q307.7425,76.8914,307.7425,76.2714 L307.7425,73.3714 L309.2525,73.3714 L309.2525,78.7514 L307.7425,78.7514 L307.7425,78.0414 Q307.1825,78.8314,306.2975,78.8314 Q305.4125,78.8314,304.8125,78.2764 Q304.2125,77.7214,304.2125,76.6314 L304.2125,73.3714 L305.7225,73.3714 L305.7225,76.3014 Q305.7225,77.5414,306.6325,77.5414 Q307.0825,77.5414,307.4125,77.2164 z" fill="rgb(0,0,0)" />
<path d="M312.5075,74.7964 Q312.1725,75.1214,312.1725,75.7514 L312.1725,78.7514 L310.6725,78.7514 L310.6725,73.3714 L312.1725,73.3714 L312.1725,73.9714 Q312.8525,73.2814,313.7025,73.2814 Q314.5525,73.2814,315.1275,73.8814 Q315.7025,74.4814,315.7025,75.4814 L315.7025,78.7514 L314.2025,78.7514 L314.2025,75.7114 Q314.2025,74.4714,313.2925,74.4714 Q312.8425,74.4714,312.5075,74.7964 z" fill="rgb(0,0,0)" />
<path d="M320.1525,74.4514 L318.8525,74.4514 L318.8525,76.8614 Q318.8525,77.1714,319.0125,77.3464 Q319.1725,77.5214,319.3925,77.5214 Q319.8125,77.5214,320.1025,77.1414 L320.6625,78.1914 Q319.9625,78.8314,319.1875,78.8314 Q318.4125,78.8314,317.8775,78.3214 Q317.3425,77.8114,317.3425,76.9314 L317.3425,74.4514 L316.7125,74.4514 L316.7125,73.3714 L317.3425,73.3714 L317.3425,71.7614 L318.8525,71.7614 L318.8525,73.3714 L320.1525,73.3714 L320.1525,74.4514 z" fill="rgb(0,0,0)" />
<path d="M290.0425,84.8114 L290.0425,83.7614 L292.5825,83.7614 L292.5825,90.7514 L291.4625,90.7514 L291.4625,84.8114 L290.0425,84.8114 z" fill="rgb(0,0,0)" />
<path d="M300.8625,88.4914 L297.1225,88.4914 L297.1225,87.8214 L300.8625,87.8214 L300.8625,88.4914 z" fill="rgb(0,0,0)" />
<path d="M307.1225,87.6214 Q307.8325,86.9014,308.1325,86.4914 Q308.4325,86.0814,308.4325,85.6614 Q308.4325,85.2414,308.1125,84.9464 Q307.7925,84.6514,307.3025,84.6514 Q306.4425,84.6514,305.8725,85.5314 L304.9225,84.9814 Q305.3825,84.2914,305.9375,83.9414 Q306.4925,83.5914,307.3675,83.5914 Q308.2425,83.5914,308.9025,84.1464 Q309.5625,84.7014,309.5625,85.6614 Q309.5625,86.2014,309.2825,86.6914 Q309.0025,87.1814,308.2525,87.9514 L306.6125,89.6214 L309.7825,89.6214 L309.7825,90.7514 L305.0025,90.7514 L305.0025,89.7514 L307.1225,87.6214 z" fill="rgb(0,0,0)" />
<path d="M311.1525,83.7514 L315.1725,83.7514 L315.1725,84.8214 L312.2225,84.8214 L312.2225,86.5414 Q312.6625,86.3014,313.2225,86.3014 Q314.2025,86.3014,314.9125,86.8914 Q315.6225,87.4814,315.6225,88.4914 Q315.6225,89.5014,314.8825,90.1664 Q314.1425,90.8314,313.0625,90.8314 Q311.6525,90.8314,310.8125,89.8914 L311.4425,89.0314 Q311.5225,89.1114,311.6575,89.2214 Q311.7925,89.3314,312.2125,89.5164 Q312.6325,89.7014,313.1325,89.7014 Q313.6325,89.7014,314.0425,89.4014 Q314.4525,89.1014,314.4525,88.5264 Q314.4525,87.9514,314.0175,87.6364 Q313.5825,87.3214,312.9175,87.3214 Q312.2525,87.3214,311.6525,87.6514 L311.1525,87.1114 L311.1525,83.7514 z" fill="rgb(0,0,0)" />
<path d="M319.5425,84.6014 Q318.6625,84.6014,318.2475,85.3214 Q317.8325,86.0414,317.8325,87.2114 Q317.8325,88.3814,318.2475,89.1014 Q318.6625,89.8214,319.5425,89.8214 Q320.4225,89.8214,320.8275,89.1064 Q321.2325,88.3914,321.2325,87.2114 Q321.2325,86.0314,320.8275,85.3164 Q320.4225,84.6014,319.5425,84.6014 z M319.5425,90.8314 Q318.1125,90.8314,317.4025,89.8464 Q316.6925,88.8614,316.6925,87.2114 Q316.6925,85.5614,317.4025,84.5764 Q318.1125,83.5914,319.5425,83.5914 Q320.9725,83.5914,321.6825,84.5764 Q322.3925,85.5614,322.3925,87.2114 Q322.3925,88.8614,321.6825,89.8464 Q320.9725,90.8314,319.5425,90.8314 z" fill="rgb(0,0,0)" />
<path d="M329.1625,84.6014 Q328.2825,84.6014,327.8675,85.3214 Q327.4525,86.0414,327.4525,87.2114 Q327.4525,88.3814,327.8675,89.1014 Q328.2825,89.8214,329.1625,89.8214 Q330.0425,89.8214,330.4475,89.1064 Q330.8525,88.3914,330.8525,87.2114 Q330.8525,86.0314,330.4475,85.3164 Q330.0425,84.6014,329.1625,84.6014 z M329.1625,90.8314 Q327.7325,90.8314,327.0225,89.8464 Q326.3125,88.8614,326.3125,87.2114 Q326.3125,85.5614,327.0225,84.5764 Q327.7325,83.5914,329.1625,83.5914 Q330.5925,83.5914,331.3025,84.5764 Q332.0125,85.5614,332.0125,87.2114 Q332.0125,88.8614,331.3025,89.8464 Q330.5925,90.8314,329.1625,90.8314 z" fill="rgb(0,0,0)" />
<path d="M336.0425,84.6014 Q335.1625,84.6014,334.7475,85.3214 Q334.3325,86.0414,334.3325,87.2114 Q334.3325,88.3814,334.7475,89.1014 Q335.1625,89.8214,336.0425,89.8214 Q336.9225,89.8214,337.3275,89.1064 Q337.7325,88.3914,337.7325,87.2114 Q337.7325,86.0314,337.3275,85.3164 Q336.9225,84.6014,336.0425,84.6014 z M336.0425,90.8314 Q334.6125,90.8314,333.9025,89.8464 Q333.1925,88.8614,333.1925,87.2114 Q333.1925,85.5614,333.9025,84.5764 Q334.6125,83.5914,336.0425,83.5914 Q337.4725,83.5914,338.1825,84.5764 Q338.8925,85.5614,338.8925,87.2114 Q338.8925,88.8614,338.1825,89.8464 Q337.4725,90.8314,336.0425,90.8314 z" fill="rgb(0,0,0)" />
<path d="M342.9225,84.6014 Q342.0425,84.6014,341.6275,85.3214 Q341.2125,86.0414,341.2125,87.2114 Q341.2125,88.3814,341.6275,89.1014 Q342.0425,89.8214,342.9225,89.8214 Q343.8025,89.8214,344.2075,89.1064 Q344.6125,88.3914,344.6125,87.2114 Q344.6125,86.0314,344.2075,85.3164 Q343.8025,84.6014,342.9225,84.6014 z M342.9225,90.8314 Q341.4925,90.8314,340.7825,89.8464 Q340.0725,88.8614,340.0725,87.2114 Q340.0725,85.5614,340.7825,84.5764 Q341.4925,83.5914,342.9225,83.5914 Q344.3525,83.5914,345.0625,84.5764 Q345.7725,85.5614,345.7725,87.2114 Q345.7725,88.8614,345.0625,89.8464 Q344.3525,90.8314,342.9225,90.8314 z" fill="rgb(0,0,0)" />
<path d="M353.6625,87.1114 L352.4025,90.7514 L351.1225,90.7514 L349.2825,85.4314 L350.4425,85.4314 L351.7625,89.4514 L353.0825,85.4314 L354.2425,85.4314 L355.5625,89.4514 L356.8825,85.4314 L358.0425,85.4314 L356.2025,90.7514 L354.9225,90.7514 L353.6625,87.1114 z" fill="rgb(0,0,0)" />
<path d="M359.8025,88.0914 Q359.8025,88.8614,360.2775,89.3464 Q360.7525,89.8314,361.4825,89.8314 Q362.2125,89.8314,362.6875,89.3464 Q363.1625,88.8614,363.1625,88.0914 Q363.1625,87.3214,362.6875,86.8364 Q362.2125,86.3514,361.4825,86.3514 Q360.7525,86.3514,360.2775,86.8364 Q359.8025,87.3214,359.8025,88.0914 z M364.2825,88.0914 Q364.2825,89.2414,363.4825,90.0364 Q362.6825,90.8314,361.4825,90.8314 Q360.2825,90.8314,359.4825,90.0364 Q358.6825,89.2414,358.6825,88.0914 Q358.6825,86.9414,359.4825,86.1464 Q360.2825,85.3514,361.4825,85.3514 Q362.6825,85.3514,363.4825,86.1464 Q364.2825,86.9414,364.2825,88.0914 z" fill="rgb(0,0,0)" />
<path d="M368.4025,86.4814 Q368.3725,86.4814,368.3425,86.4814 Q367.5125,86.4814,367.0925,87.0214 Q366.6725,87.5614,366.6725,88.4714 L366.6725,90.7514 L365.5525,90.7514 L365.5525,85.4314 L366.6725,85.4314 L366.6725,86.5014 Q366.9425,86.0014,367.4075,85.6814 Q367.8725,85.3614,368.3925,85.3514 L368.4025,86.4814 z" fill="rgb(0,0,0)" />
<path d="M371.6925,90.8314 Q370.6825,90.8314,369.9325,90.0714 Q369.1825,89.3114,369.1825,88.0714 Q369.1825,86.8314,369.9525,86.0914 Q370.7225,85.3514,371.7875,85.3514 Q372.8525,85.3514,373.5025,86.2514 L373.5025,83.3314 L374.6225,83.3314 L374.6225,90.7514 L373.5025,90.7514 L373.5025,89.9514 Q372.8825,90.8314,371.6925,90.8314 z M370.7825,86.8414 Q370.3025,87.3514,370.3025,88.1164 Q370.3025,88.8814,370.7925,89.3614 Q371.2825,89.8414,371.9425,89.8414 Q372.6025,89.8414,373.0625,89.3564 Q373.5225,88.8714,373.5225,88.1114 Q373.5225,87.3514,373.0625,86.8414 Q372.6025,86.3314,371.9325,86.3314 Q371.2625,86.3314,370.7825,86.8414 z" fill="rgb(0,0,0)" />
<path d="M379.4925,88.0414 Q380.0325,88.4014,380.0325,89.1614 Q380.0325,89.9214,379.4825,90.3764 Q378.9325,90.8314,378.0725,90.8314 Q377.4925,90.8314,376.8675,90.6214 Q376.2425,90.4114,375.7625,90.0314 L376.3025,89.1614 Q377.2325,89.8614,378.1025,89.8614 Q378.4825,89.8614,378.7025,89.6864 Q378.9225,89.5114,378.9225,89.2414 Q378.9225,88.8414,377.8625,88.5214 Q377.7825,88.4914,377.7425,88.4814 Q376.0825,88.0314,376.0825,86.9814 Q376.0825,86.2414,376.6575,85.7964 Q377.2325,85.3514,378.1525,85.3514 Q379.0725,85.3514,379.8925,85.8914 L379.4725,86.7214 Q378.8225,86.2914,378.0625,86.2914 Q377.6625,86.2914,377.4125,86.4364 Q377.1625,86.5814,377.1625,86.8714 Q377.1625,87.1314,377.4225,87.2514 Q377.6025,87.3414,377.9275,87.4214 Q378.2525,87.5014,378.5025,87.5814 Q378.7525,87.6614,378.9875,87.7614 Q379.2225,87.8614,379.4925,88.0414 z" fill="rgb(0,0,0)" />
<path d="M361.1307,246.8701 L359.1507,246.8701 L359.1507,252.5101 L357.5907,252.5101 L357.5907,246.8701 L355.6107,246.8701 L355.6107,245.5201 L361.1307,245.5201 L361.1307,246.8701 z" fill="rgb(0,0,0)" />
<path d="M363.6207,247.1301 L363.6207,252.5101 L362.1207,252.5101 L362.1207,247.1301 L363.6207,247.1301 z M362.8707,246.7001 Q362.5007,246.7001,362.2457,246.4451 Q361.9907,246.1901,361.9907,245.8201 Q361.9907,245.4501,362.2457,245.1951 Q362.5007,244.9401,362.8707,244.9401 Q363.2407,244.9401,363.4957,245.1951 Q363.7507,245.4501,363.7507,245.8201 Q363.7507,246.1901,363.4957,246.4451 Q363.2407,246.7001,362.8707,246.7001 z" fill="rgb(0,0,0)" />
<path d="M370.3107,248.6551 Q369.9807,248.9801,369.9807,249.6101 L369.9807,252.5101 L368.4707,252.5101 L368.4707,249.5701 Q368.4707,248.9301,368.2757,248.6301 Q368.0807,248.3301,367.6457,248.3301 Q367.2107,248.3301,366.8757,248.6551 Q366.5407,248.9801,366.5407,249.6101 L366.5407,252.5101 L365.0407,252.5101 L365.0407,247.1301 L366.5407,247.1301 L366.5407,247.7401 Q367.1607,247.0401,367.9607,247.0401 Q368.4707,247.0401,368.8857,247.3401 Q369.3007,247.6401,369.5107,248.0701 Q369.8207,247.5801,370.3457,247.3101 Q370.8707,247.0401,371.4007,247.0401 Q372.3507,247.0401,372.9307,247.6051 Q373.5107,248.1701,373.5107,249.2401 L373.5107,252.5101 L372.0007,252.5101 L372.0007,249.5701 Q372.0007,248.3301,371.0907,248.3301 Q370.6407,248.3301,370.3107,248.6551 z" fill="rgb(0,0,0)" />
<path d="M378.6907,250.8201 L379.5307,251.7301 Q378.6207,252.5901,377.3957,252.5901 Q376.1707,252.5901,375.3707,251.8351 Q374.5707,251.0801,374.5707,249.8101 Q374.5707,248.5401,375.3857,247.7901 Q376.2007,247.0401,377.3107,247.0401 Q378.4207,247.0401,379.1957,247.7101 Q379.9707,248.3801,379.9707,249.5501 L379.9707,250.3501 L376.0507,250.3501 Q376.1207,250.7901,376.5107,251.0701 Q376.9007,251.3501,377.3907,251.3501 Q378.1807,251.3501,378.6907,250.8201 z M378.4507,249.2801 Q378.4007,248.8001,378.0907,248.5401 Q377.7807,248.2801,377.3357,248.2801 Q376.8907,248.2801,376.5207,248.5501 Q376.1507,248.8201,376.0907,249.2801 L378.4507,249.2801 z" fill="rgb(0,0,0)" />
<path d="M358.7707,258.3601 Q357.8907,258.3601,357.4757,259.0801 Q357.0607,259.8001,357.0607,260.9701 Q357.0607,262.1401,357.4757,262.8601 Q357.8907,263.5801,358.7707,263.5801 Q359.6507,263.5801,360.0557,262.8651 Q360.4607,262.1501,360.4607,260.9701 Q360.4607,259.7901,360.0557,259.0751 Q359.6507,258.3601,358.7707,258.3601 z M358.7707,264.5901 Q357.3407,264.5901,356.6307,263.6051 Q355.9207,262.6201,355.9207,260.9701 Q355.9207,259.3201,356.6307,258.3351 Q357.3407,257.3501,358.7707,257.3501 Q360.2007,257.3501,360.9107,258.3351 Q361.6207,259.3201,361.6207,260.9701 Q361.6207,262.6201,360.9107,263.6051 Q360.2007,264.5901,358.7707,264.5901 z" fill="rgb(0,0,0)" />
<path d="M363.6107,264.5901 Q363.3007,264.5901,363.0857,264.3701 Q362.8707,264.1501,362.8707,263.8401 Q362.8707,263.5301,363.0857,263.3151 Q363.3007,263.1001,363.6107,263.1001 Q363.9207,263.1001,364.1407,263.3151 Q364.3607,263.5301,364.3607,263.8401 Q364.3607,264.1501,364.1407,264.3701 Q363.9207,264.5901,363.6107,264.5901 z" fill="rgb(0,0,0)" />
<path d="M368.4507,258.3601 Q367.5707,258.3601,367.1557,259.0801 Q366.7407,259.8001,366.7407,260.9701 Q366.7407,262.1401,367.1557,262.8601 Q367.5707,263.5801,368.4507,263.5801 Q369.3307,263.5801,369.7357,262.8651 Q370.1407,262.1501,370.1407,260.9701 Q370.1407,259.7901,369.7357,259.0751 Q369.3307,258.3601,368.4507,258.3601 z M368.4507,264.5901 Q367.0207,264.5901,366.3107,263.6051 Q365.6007,262.6201,365.6007,260.9701 Q365.6007,259.3201,366.3107,258.3351 Q367.0207,257.3501,368.4507,257.3501 Q369.8807,257.3501,370.5907,258.3351 Q371.3007,259.3201,371.3007,260.9701 Q371.3007,262.6201,370.5907,263.6051 Q369.8807,264.5901,368.4507,264.5901 z" fill="rgb(0,0,0)" />
<path d="M379.1907,262.2501 L375.4507,262.2501 L375.4507,261.5801 L379.1907,261.5801 L379.1907,262.2501 z" fill="rgb(0,0,0)" />
<path d="M383.0407,258.5701 L383.0407,257.5201 L385.5807,257.5201 L385.5807,264.5101 L384.4607,264.5101 L384.4607,258.5701 L383.0407,258.5701 z" fill="rgb(0,0,0)" />
<path d="M387.9607,264.5901 Q387.6507,264.5901,387.4357,264.3701 Q387.2207,264.1501,387.2207,263.8401 Q387.2207,263.5301,387.4357,263.3151 Q387.6507,263.1001,387.9607,263.1001 Q388.2707,263.1001,388.4907,263.3151 Q388.7107,263.5301,388.7107,263.8401 Q388.7107,264.1501,388.4907,264.3701 Q388.2707,264.5901,387.9607,264.5901 z" fill="rgb(0,0,0)" />
<path d="M392.8007,258.3601 Q391.9207,258.3601,391.5057,259.0801 Q391.0907,259.8001,391.0907,260.9701 Q391.0907,262.1401,391.5057,262.8601 Q391.9207,263.5801,392.8007,263.5801 Q393.6807,263.5801,394.0857,262.8651 Q394.4907,262.1501,394.4907,260.9701 Q394.4907,259.7901,394.0857,259.0751 Q393.6807,258.3601,392.8007,258.3601 z M392.8007,264.5901 Q391.3707,264.5901,390.6607,263.6051 Q389.9507,262.6201,389.9507,260.9701 Q389.9507,259.3201,390.6607,258.3351 Q391.3707,257.3501,392.8007,257.3501 Q394.2307,257.3501,394.9407,258.3351 Q395.6507,259.3201,395.6507,260.9701 Q395.6507,262.6201,394.9407,263.6051 Q394.2307,264.5901,392.8007,264.5901 z" fill="rgb(0,0,0)" />
<path d="M403.0407,261.8001 Q403.5807,262.1601,403.5807,262.9201 Q403.5807,263.6801,403.0307,264.1351 Q402.4807,264.5901,401.6207,264.5901 Q401.0407,264.5901,400.4157,264.3801 Q399.7907,264.1701,399.3107,263.7901 L399.8507,262.9201 Q400.7807,263.6201,401.6507,263.6201 Q402.0307,263.6201,402.2507,263.4451 Q402.4707,263.2701,402.4707,263.0001 Q402.4707,262.6001,401.4107,262.2801 Q401.3307,262.2501,401.2907,262.2401 Q399.6307,261.7901,399.6307,260.7401 Q399.6307,260.0001,400.2057,259.5551 Q400.7807,259.1101,401.7007,259.1101 Q402.6207,259.1101,403.4407,259.6501 L403.0207,260.4801 Q402.3707,260.0501,401.6107,260.0501 Q401.2107,260.0501,400.9607,260.1951 Q400.7107,260.3401,400.7107,260.6301 Q400.7107,260.8901,400.9707,261.0101 Q401.1507,261.1001,401.4757,261.1801 Q401.8007,261.2601,402.0507,261.3401 Q402.3007,261.4201,402.5357,261.5201 Q402.7707,261.6201,403.0407,261.8001 z" fill="rgb(0,0,0)" />
<path d="M409.8007,261.5701 L409.8007,262.3401 L405.6307,262.3401 Q405.6707,262.9201,406.1607,263.2751 Q406.6507,263.6301,407.2807,263.6301 Q408.2807,263.6301,408.8007,263.0001 L409.4407,263.7001 Q408.5807,264.5901,407.2007,264.5901 Q406.0807,264.5901,405.2957,263.8451 Q404.5107,263.1001,404.5107,261.8451 Q404.5107,260.5901,405.3107,259.8501 Q406.1107,259.1101,407.1957,259.1101 Q408.2807,259.1101,409.0407,259.7651 Q409.8007,260.4201,409.8007,261.5701 z M406.1207,260.4451 Q405.6307,260.8201,405.6307,261.4601 L408.6807,261.4601 Q408.6807,260.7901,408.2607,260.4301 Q407.8407,260.0701,407.2257,260.0701 Q406.6107,260.0701,406.1207,260.4451 z" fill="rgb(0,0,0)" />
<path d="M415.6307,263.6101 Q414.6607,264.5901,413.3907,264.5901 Q412.2807,264.5901,411.4807,263.8351 Q410.6807,263.0801,410.6807,261.8601 Q410.6807,260.6401,411.5157,259.8751 Q412.3507,259.1101,413.5507,259.1101 Q414.7507,259.1101,415.5807,259.9401 L414.9207,260.7501 Q414.2307,260.1501,413.5307,260.1501 Q412.8307,260.1501,412.3157,260.6151 Q411.8007,261.0801,411.8007,261.8151 Q411.8007,262.5501,412.3107,263.0601 Q412.8207,263.5701,413.5657,263.5701 Q414.3107,263.5701,414.9707,262.8901 L415.6307,263.6101 z" fill="rgb(0,0,0)" />
<path d="M417.5607,261.8501 Q417.5607,262.6201,418.0357,263.1051 Q418.5107,263.5901,419.2407,263.5901 Q419.9707,263.5901,420.4457,263.1051 Q420.9207,262.6201,420.9207,261.8501 Q420.9207,261.0801,420.4457,260.5951 Q419.9707,260.1101,419.2407,260.1101 Q418.5107,260.1101,418.0357,260.5951 Q417.5607,261.0801,417.5607,261.8501 z M422.0407,261.8501 Q422.0407,263.0001,421.2407,263.7951 Q420.4407,264.5901,419.2407,264.5901 Q418.0407,264.5901,417.2407,263.7951 Q416.4407,263.0001,416.4407,261.8501 Q416.4407,260.7001,417.2407,259.9051 Q418.0407,259.1101,419.2407,259.1101 Q420.4407,259.1101,421.2407,259.9051 Q422.0407,260.7001,422.0407,261.8501 z" fill="rgb(0,0,0)" />
<path d="M424.8607,260.5051 Q424.4307,260.8901,424.4307,261.6301 L424.4307,264.5101 L423.3107,264.5101 L423.3107,259.1901 L424.4307,259.1901 L424.4307,260.1601 Q424.7007,259.6701,425.1757,259.3901 Q425.6507,259.1101,426.2007,259.1101 Q427.1007,259.1101,427.6557,259.6601 Q428.2107,260.2101,428.2107,261.2501 L428.2107,264.5101 L427.0907,264.5101 L427.0907,261.5901 Q427.0907,260.1201,425.8707,260.1201 Q425.2907,260.1201,424.8607,260.5051 z" fill="rgb(0,0,0)" />
<path d="M431.9407,264.5901 Q430.9307,264.5901,430.1807,263.8301 Q429.4307,263.0701,429.4307,261.8301 Q429.4307,260.5901,430.2007,259.8501 Q430.9707,259.1101,432.0357,259.1101 Q433.1007,259.1101,433.7507,260.0101 L433.7507,257.0901 L434.8707,257.0901 L434.8707,264.5101 L433.7507,264.5101 L433.7507,263.7101 Q433.1307,264.5901,431.9407,264.5901 z M431.0307,260.6001 Q430.5507,261.1101,430.5507,261.8751 Q430.5507,262.6401,431.0407,263.1201 Q431.5307,263.6001,432.1907,263.6001 Q432.8507,263.6001,433.3107,263.1151 Q433.7707,262.6301,433.7707,261.8701 Q433.7707,261.1101,433.3107,260.6001 Q432.8507,260.0901,432.1807,260.0901 Q431.5107,260.0901,431.0307,260.6001 z" fill="rgb(0,0,0)" />
</svg>