<?xml version="1.0" encoding="UTF-8"?>
<!-- Flat -->
<svg version="1.1" xmlns="http://www.w3.org/2000/svg" xmlns:xlink="http://www.w3.org/1999/xlink" width="453.5433" height="396.8504">
<title>Untitled</title>
<polyline points="150.7051 333.3561 160.3185 333.3572 169.9319 333.3589 179.5453 333.3594 189.1587 333.3594 198.7721 333.3594 208.3855 333.3594 217.9989 333.3594 227.6123 333.3594 237.2257 333.3594 246.8391 333.3594 256.4525 333.3594 266.066 333.3594 275.6794 333.3594 285.2928 333.3594 294.9062 333.3594 304.5196 333.3594 314.133 333.3594 323.7464 333.3594 333.3598 333.3594" stroke="rgb(0,0,0)" fill="none" stroke-width="1.25" />
<polyline points="143.9074 326.5579 153.5208 326.5605 163.1342 326.5602 172.7476 326.5608 182.361 326.5613 191.9744 326.5614 201.5878 326.5614 211.2012 326.5616 220.8146 326.5616 230.428 326.5615 240.0414 326.5613 249.6548 326.5614 259.2682 326.5613 268.8817 326.5616 278.4951 326.5616 288.1085 326.5614 297.7219 326.5613 307.3353 326.5615 316.9487 326.5614 326.5621 326.5615" stroke="rgb(0,0,0)" fill="none" stroke-width="1.25" />
<polyline points="137.1097 319.76 146.7231 319.7616 156.3365 319.7629 165.9499 319.7633 175.5633 319.7633 185.1767 319.7632 194.7901 319.7633 204.4035 319.7633 214.0169 319.7633 223.6303 319.7633 233.2437 319.7633 242.8571 319.7633 252.4705 319.7633 262.0839 319.7633 271.6974 319.7633 281.3108 319.7633 290.9242 319.7633 300.5376 319.7633 310.151 319.7633 319.7644 319.7633" stroke="rgb(0,0,0)" fill="none" stroke-width="1.25" />
<polyline points="130.312 312.9621 139.9254 312.964 149.5388 312.9639 159.1522 312.9643 168.7656 312.9647 178.379 312.9647 187.9924 312.9647 197.6058 312.9648 207.2192 312.9647 216.8326 312.9649 226.446 312.9648 236.0594 312.9648 245.6728 312.9647 255.2862 312.9647 264.8997 312.9648 274.5131 312.9647 284.1265 312.9647 293.7399 312.9647 303.3533 312.9647 312.9667 312.9648" stroke="rgb(0,0,0)" fill="none" stroke-width="1.25" />
<polyline points="123.5143 306.1622 133.1277 306.1653 142.7411 306.1655 152.3545 306.1659 161.9679 306.1655 171.5813 306.1655 181.1947 306.1653 190.8081 306.1653 200.4215 306.1654 210.0349 306.1651 219.6483 306.1651 229.2617 306.1654 238.8751 306.1653 248.4885 306.1654 258.1019 306.1653 267.7154 306.1654 277.3288 306.1654 286.9422 306.1653 296.5556 306.1654 306.169 306.1653" stroke="rgb(0,0,0)" fill="none" stroke-width="1.25" />
<polyline points="116.7166 299.3636 126.33 299.3665 135.9434 299.3645 145.5568 299.3653 155.1702 299.3645 164.7836 299.3649 174.397 299.3643 184.0104 299.3643 193.6238 299.3641 203.2372 299.3641 212.8506 299.364 222.464 299.364 232.0774 299.3639 241.6908 299.364 251.3042 299.364 260.9176 299.3639 270.5311 299.364 280.1445 299.3642 289.7579 299.3639 299.3713 299.3639" stroke="rgb(0,0,0)" fill="none" stroke-width="1.25" />
<polyline points="109.9189 292.5624 119.5323 292.5659 129.1457 292.5633 138.7591 292.5637 148.3725 292.5606 157.9859 292.5608 167.5993 292.5591 177.2127 292.5593 186.8261 292.5589 196.4395 292.559 206.0529 292.5588 215.6663 292.5586 225.2797 292.5586 234.8931 292.5586 244.5065 292.5582 254.1199 292.5588 263.7333 292.5564 273.3468 292.5588 282.9602 292.5586 292.5736 292.5588" stroke="rgb(0,0,0)" fill="none" stroke-width="1.25" />
<polyline points="103.1212 285.7581 112.7346 285.7631 122.348 285.7534 131.9614 285.7563 141.5748 285.7503 151.1882 285.7505 160.8016 285.745 170.415 285.745 180.0284 285.7435 189.6418 285.7439 199.2552 285.7453 208.8686 285.7453 218.482 285.7452 228.0954 285.7432 237.7088 285.743 247.3222 285.7432 256.9356 285.7437 266.549 285.7432 276.1625 285.7448 285.7759 285.743" stroke="rgb(0,0,0)" fill="none" stroke-width="1.25" />
<polyline points="96.3235 278.95 105.9369 278.9544 115.5503 278.9385 125.1637 278.9404 134.7771 278.9257 144.3905 278.923 154.0039 278.9175 163.6173 278.9155 173.2307 278.9141 182.8441 278.9142 192.4575 278.9106 202.0709 278.912 211.6843 278.9095 221.2977 278.9098 230.9111 278.91 240.5245 278.9106 250.1379 278.9106 259.7513 278.9115 269.3648 278.91 278.9782 278.9119" stroke="rgb(0,0,0)" fill="none" stroke-width="1.25" />
<polyline points="89.5258 272.1275 99.1392 272.1361 108.7526 272.1039 118.366 272.1059 127.9794 272.0705 137.5928 272.0727 147.2062 272.0529 156.8196 272.0492 166.433 272.0444 176.0464 272.044 185.6598 272.0391 195.2732 272.0405 204.8866 272.0401 214.5 272.0367 224.1134 272.036 233.7268 272.0417 243.3402 272.0365 252.9536 272.0396 262.567 272.0356 272.1805 272.0429" stroke="rgb(0,0,0)" fill="none" stroke-width="1.25" />
<polyline points="82.7281 265.2852 92.3415 265.2991 101.9549 265.2368 111.5683 265.2396 121.1817 265.1678 130.7951 265.1696 140.4085 265.1203 150.0219 265.1226 159.6353 265.1029 169.2487 265.1018 178.8621 265.0925 188.4755 265.0923 198.0889 265.0916 207.7023 265.0891 217.3157 265.0888 226.9291 265.0929 236.5425 265.0879 246.1559 265.0872 255.7693 265.0878 265.3827 265.0878" stroke="rgb(0,0,0)" fill="none" stroke-width="1.25" />
<polyline points="75.9304 258.413 85.5438 258.4088 95.1572 258.2979 104.7706 258.3036 114.384 258.1538 123.9974 258.1558 133.6108 258.0562 143.2242 258.0566 152.8376 258.0088 162.451 258.0075 172.0644 257.987 181.6778 257.9901 191.2912 257.9828 200.9046 257.9808 210.518 257.9772 220.1314 257.9801 229.7448 257.9759 239.3582 257.9779 248.9716 257.9766 258.585 257.9748" stroke="rgb(0,0,0)" fill="none" stroke-width="1.25" />
<polyline points="69.1327 251.4421 78.7461 251.4542 88.3595 251.2357 97.9729 251.2378 107.5863 250.9199 117.1997 250.926 126.8131 250.7177 136.4265 250.7082 146.0399 250.6116 155.6533 250.6092 165.2667 250.5528 174.8801 250.5597 184.4935 250.5259 194.1069 250.5409 203.7203 250.5241 213.3337 250.5268 222.9471 250.5281 232.5605 250.525 242.1739 250.5278 251.7873 250.5186" stroke="rgb(0,0,0)" fill="none" stroke-width="1.25" />
<polyline points="62.335 244.3279 71.9484 244.3407 81.5618 243.8994 91.1752 243.8886 100.7886 243.2681 110.402 243.2719 120.0154 242.7613 129.6288 242.7928 139.2422 242.562 148.8556 242.5521 158.469 242.4009 168.0824 242.4217 177.6958 242.3978 187.3092 242.3614 196.9226 242.3797 206.536 242.3731 216.1494 242.3415 225.7628 242.3784 235.3762 242.3329 244.9896 242.3318" stroke="rgb(0,0,0)" fill="none" stroke-width="1.25" />
<polyline points="55.5373 236.8823 65.1507 236.9131 74.7641 236.0439 84.3775 235.9973 93.9909 234.7242 103.6043 234.6813 113.2177 233.7105 122.8311 233.7477 132.4445 233.1961 142.0579 233.175 151.6713 232.9061 161.2847 232.9262 170.8981 232.7998 180.5115 232.8195 190.1249 232.7691 199.7383 232.7865 209.3517 232.7512 218.9651 232.7625 228.5785 232.7355 238.1919 232.7724" stroke="rgb(0,0,0)" fill="none" stroke-width="1.25" />
<polyline points="48.7396 228.8356 58.353 228.8466 67.9664 227.1634 77.5798 227.1242 87.1932 224.429 96.8066 224.4448 106.42 222.296 116.0334 222.3163 125.6468 221.1258 135.2602 221.1325 144.8736 220.5752 154.487 220.5888 164.1004 220.3113 173.7138 220.3056 183.3272 220.2209 192.9406 220.2129 202.554 220.1745 212.1674 220.1725 221.7808 220.161 231.3942 220.1471" stroke="rgb(0,0,0)" fill="none" stroke-width="1.25" />
<polyline points="41.9419 219.4579 51.5553 219.4725 61.1687 216.1564 70.7821 216.1699 80.3955 210.7241 90.0089 210.7219 99.6223 206.1818 109.2357 206.2063 118.8491 203.6161 128.4625 203.6369 138.0759 202.3706 147.6893 202.3662 157.3027 201.7815 166.9161 201.7916 176.5295 201.5072 186.1429 201.5199 195.7563 201.4507 205.3697 201.4039 214.9831 201.3641 224.5965 201.4019" stroke="rgb(0,0,0)" fill="none" stroke-width="1.25" />
<polyline points="35.1442 207.6149 44.7576 207.6659 54.371 201.1179 63.9844 201.0748 73.5978 190.0026 83.2112 190.0106 92.8246 180.4965 102.438 180.4602 112.0514 174.8075 121.6648 174.8869 131.2782 172.0926 140.8916 172.0519 150.505 170.8407 160.1184 170.7877 169.7318 170.237 179.3452 170.2325 188.9586 170.0037 198.572 170.0235 208.1854 169.9042 217.7988 169.8852" stroke="rgb(0,0,0)" fill="none" stroke-width="1.25" />
<polyline points="167.1162 340.154 160.3185 333.3572 153.5208 326.5605 146.7231 319.7616 139.9254 312.964 133.1277 306.1653 126.33 299.3665 119.5323 292.5659 112.7346 285.7631 105.9369 278.9544 99.1392 272.1361 92.3415 265.2991 85.5438 258.4088 78.7461 251.4542 71.9484 244.3407 65.1507 236.9131 58.353 228.8466 51.5553 219.4725 44.7576 207.6659 37.9599 190.7944" stroke="rgb(0,0,0)" fill="none" stroke-width="1.25" />
<polyline points="176.7296 340.1549 169.9319 333.3589 163.1342 326.5602 156.3365 319.7629 149.5388 312.9639 142.7411 306.1655 135.9434 299.3645 129.1457 292.5633 122.348 285.7534 115.5503 278.9385 108.7526 272.1039 101.9549 265.2368 95.1572 258.2979 88.3595 251.2357 81.5618 243.8994 74.7641 236.0439 67.9664 227.1634 61.1687 216.1564 54.371 201.1179 47.5733 177.7428" stroke="rgb(0,0,0)" fill="none" stroke-width="1.25" />
<polyline points="186.343 340.154 179.5453 333.3594 172.7476 326.5608 165.9499 319.7633 159.1522 312.9643 152.3545 306.1659 145.5568 299.3653 138.7591 292.5637 131.9614 285.7563 125.1637 278.9404 118.366 272.1059 111.5683 265.2396 104.7706 258.3036 97.9729 251.2378 91.1752 243.8886 84.3775 235.9973 77.5798 227.1242 70.7821 216.1699 63.9844 201.0748 57.1867 177.7782" stroke="rgb(0,0,0)" fill="none" stroke-width="1.25" />
<polyline points="195.9564 340.1553 189.1587 333.3594 182.361 326.5613 175.5633 319.7633 168.7656 312.9647 161.9679 306.1655 155.1702 299.3645 148.3725 292.5606 141.5748 285.7503 134.7771 278.9257 127.9794 272.0705 121.1817 265.1678 114.384 258.1538 107.5863 250.9199 100.7886 243.2681 93.9909 234.7242 87.1932 224.429 80.3955 210.7241 73.5978 190.0026 66.8001 155.3499" stroke="rgb(0,0,0)" fill="none" stroke-width="1.25" />
<polyline points="205.5698 340.1553 198.7721 333.3594 191.9744 326.5614 185.1767 319.7632 178.379 312.9647 171.5813 306.1655 164.7836 299.3649 157.9859 292.5608 151.1882 285.7505 144.3905 278.923 137.5928 272.0727 130.7951 265.1696 123.9974 258.1558 117.1997 250.926 110.402 243.2719 103.6043 234.6813 96.8066 224.4448 90.0089 210.7219 83.2112 190.0106 76.4135 155.3629" stroke="rgb(0,0,0)" fill="none" stroke-width="1.25" />
<polyline points="215.1832 340.1553 208.3855 333.3594 201.5878 326.5614 194.7901 319.7633 187.9924 312.9647 181.1947 306.1653 174.397 299.3643 167.5993 292.5591 160.8016 285.745 154.0039 278.9175 147.2062 272.0529 140.4085 265.1203 133.6108 258.0562 126.8131 250.7177 120.0154 242.7613 113.2177 233.7105 106.42 222.296 99.6223 206.1818 92.8246 180.4965 86.0269 135.273" stroke="rgb(0,0,0)" fill="none" stroke-width="1.25" />
<polyline points="224.7966 340.1553 217.9989 333.3594 211.2012 326.5616 204.4035 319.7633 197.6058 312.9648 190.8081 306.1653 184.0104 299.3643 177.2127 292.5593 170.415 285.745 163.6173 278.9155 156.8196 272.0492 150.0219 265.1226 143.2242 258.0566 136.4265 250.7082 129.6288 242.7928 122.8311 233.7477 116.0334 222.3163 109.2357 206.2063 102.438 180.4602 95.6403 135.1766" stroke="rgb(0,0,0)" fill="none" stroke-width="1.25" />
<polyline points="234.41 340.1553 227.6123 333.3594 220.8146 326.5616 214.0169 319.7633 207.2192 312.9647 200.4215 306.1654 193.6238 299.3641 186.8261 292.5589 180.0284 285.7435 173.2307 278.9141 166.433 272.0444 159.6353 265.1029 152.8376 258.0088 146.0399 250.6116 139.2422 242.562 132.4445 233.1961 125.6468 221.1258 118.8491 203.6161 112.0514 174.8075 105.2537 123.0841" stroke="rgb(0,0,0)" fill="none" stroke-width="1.25" />
<polyline points="244.0234 340.1553 237.2257 333.3594 230.428 326.5615 223.6303 319.7633 216.8326 312.9649 210.0349 306.1651 203.2372 299.3641 196.4395 292.559 189.6418 285.7439 182.8441 278.9142 176.0464 272.044 169.2487 265.1018 162.451 258.0075 155.6533 250.6092 148.8556 242.5521 142.0579 233.175 135.2602 221.1325 128.4625 203.6369 121.6648 174.8869 114.8671 123.1245" stroke="rgb(0,0,0)" fill="none" stroke-width="1.25" />
<polyline points="253.6368 340.1553 246.8391 333.3594 240.0414 326.5613 233.2437 319.7633 226.446 312.9648 219.6483 306.1651 212.8506 299.364 206.0529 292.5588 199.2552 285.7453 192.4575 278.9106 185.6598 272.0391 178.8621 265.0925 172.0644 257.987 165.2667 250.5528 158.469 242.4009 151.6713 232.9061 144.8736 220.5752 138.0759 202.3706 131.2782 172.0926 124.4805 116.9839" stroke="rgb(0,0,0)" fill="none" stroke-width="1.25" />
<polyline points="263.2503 340.1553 256.4525 333.3594 249.6548 326.5614 242.8571 319.7633 236.0594 312.9648 229.2617 306.1654 222.464 299.364 215.6663 292.5586 208.8686 285.7453 202.0709 278.912 195.2732 272.0405 188.4755 265.0923 181.6778 257.9901 174.8801 250.5597 168.0824 242.4217 161.2847 232.9262 154.487 220.5888 147.6893 202.3662 140.8916 172.0519 134.0939 117.1027" stroke="rgb(0,0,0)" fill="none" stroke-width="1.25" />
<polyline points="272.8637 340.1553 266.066 333.3594 259.2682 326.5613 252.4705 319.7633 245.6728 312.9647 238.8751 306.1653 232.0774 299.3639 225.2797 292.5586 218.482 285.7452 211.6843 278.9095 204.8866 272.0401 198.0889 265.0916 191.2912 257.9828 184.4935 250.5259 177.6958 242.3978 170.8981 232.7998 164.1004 220.3113 157.3027 201.7815 150.505 170.8407 143.7073 114.2009" stroke="rgb(0,0,0)" fill="none" stroke-width="1.25" />
<polyline points="282.4771 340.1553 275.6794 333.3594 268.8817 326.5616 262.0839 319.7633 255.2862 312.9647 248.4885 306.1654 241.6908 299.364 234.8931 292.5586 228.0954 285.7432 221.2977 278.9098 214.5 272.0367 207.7023 265.0891 200.9046 257.9808 194.1069 250.5409 187.3092 242.3614 180.5115 232.8195 173.7138 220.3056 166.9161 201.7916 160.1184 170.7877 153.3207 114.3032" stroke="rgb(0,0,0)" fill="none" stroke-width="1.25" />
<polyline points="292.0905 340.1553 285.2928 333.3594 278.4951 326.5616 271.6974 319.7633 264.8997 312.9648 258.1019 306.1653 251.3042 299.364 244.5065 292.5582 237.7088 285.743 230.9111 278.91 224.1134 272.036 217.3157 265.0888 210.518 257.9772 203.7203 250.5241 196.9226 242.3797 190.1249 232.7691 183.3272 220.2209 176.5295 201.5072 169.7318 170.237 162.9341 112.9691" stroke="rgb(0,0,0)" fill="none" stroke-width="1.25" />
<polyline points="301.7039 340.1553 294.9062 333.3594 288.1085 326.5614 281.3108 319.7633 274.5131 312.9647 267.7154 306.1654 260.9176 299.3639 254.1199 292.5588 247.3222 285.7432 240.5245 278.9106 233.7268 272.0417 226.9291 265.0929 220.1314 257.9801 213.3337 250.5268 206.536 242.3731 199.7383 232.7865 192.9406 220.2129 186.1429 201.5199 179.3452 170.2325 172.5475 112.9907" stroke="rgb(0,0,0)" fill="none" stroke-width="1.25" />
<polyline points="311.3173 340.1551 304.5196 333.3594 297.7219 326.5613 290.9242 319.7633 284.1265 312.9647 277.3288 306.1654 270.5311 299.364 263.7333 292.5564 256.9356 285.7437 250.1379 278.9106 243.3402 272.0365 236.5425 265.0879 229.7448 257.9759 222.9471 250.5281 216.1494 242.3415 209.3517 232.7512 202.554 220.1745 195.7563 201.4507 188.9586 170.0037 182.1609 112.4473" stroke="rgb(0,0,0)" fill="none" stroke-width="1.25" />
<polyline points="320.9307 340.1553 314.133 333.3594 307.3353 326.5615 300.5376 319.7633 293.7399 312.9647 286.9422 306.1653 280.1445 299.3642 273.3468 292.5588 266.549 285.7432 259.7513 278.9115 252.9536 272.0396 246.1559 265.0872 239.3582 257.9779 232.5605 250.525 225.7628 242.3784 218.9651 232.7625 212.1674 220.1725 205.3697 201.4039 198.572 170.0235 191.7743 112.3638" stroke="rgb(0,0,0)" fill="none" stroke-width="1.25" />
<polyline points="330.5441 340.1553 323.7464 333.3594 316.9487 326.5614 310.151 319.7633 303.3533 312.9647 296.5556 306.1654 289.7579 299.3639 282.9602 292.5586 276.1625 285.7448 269.3648 278.91 262.567 272.0356 255.7693 265.0878 248.9716 257.9766 242.1739 250.5278 235.3762 242.3329 228.5785 232.7355 221.7808 220.161 214.9831 201.3641 208.1854 169.9042 201.3877 112.1988" stroke="rgb(0,0,0)" fill="none" stroke-width="1.25" />
<polygon points="157.5028 340.1472 167.1162 340.154 176.7296 340.1549 186.343 340.154 195.9564 340.1553 205.5698 340.1553 215.1832 340.1553 224.7966 340.1553 234.41 340.1553 244.0234 340.1553 253.6368 340.1553 263.2503 340.1553 272.8637 340.1553 282.4771 340.1553 292.0905 340.1553 301.7039 340.1553 311.3173 340.1551 320.9307 340.1553 330.5441 340.1553 340.1575 340.1553 340.1575 340.1553 333.3598 333.3594 326.5621 326.5615 319.7644 319.7633 312.9667 312.9648 306.169 306.1653 299.3713 299.3639 292.5736 292.5588 285.7759 285.743 278.9782 278.9119 272.1805 272.0429 265.3827 265.0878 258.585 257.9748 251.7873 250.5186 244.9896 242.3318 238.1919 232.7724 231.3942 220.1471 224.5965 201.4019 217.7988 169.8852 211.0011 112.0443 211.0011 112.0443 201.3877 112.1988 191.7743 112.3638 182.1609 112.4473 172.5475 112.9907 162.9341 112.9691 153.3207 114.3032 143.7073 114.2009 134.0939 117.1027 124.4805 116.9839 114.8671 123.1245 105.2537 123.0841 95.6403 135.1766 86.0269 135.273 76.4135 155.3629 66.8001 155.3499 57.1867 177.7782 47.5733 177.7428 37.9599 190.7944 28.3465 190.7603 28.3465 190.7603 35.1442 207.6149 41.9419 219.4579 48.7396 228.8356 55.5373 236.8823 62.335 244.3279 69.1327 251.4421 75.9304 258.413 82.7281 265.2852 89.5258 272.1275 96.3235 278.95 103.1212 285.7581 109.9189 292.5624 116.7166 299.3636 123.5143 306.1622 130.312 312.9621 137.1097 319.76 143.9074 326.5579 150.7051 333.3561 157.5028 340.1472" stroke="rgb(0,0,0)" fill="none" stroke-width="1.25" />
<polygon points="157.5028 340.1575 340.1575 340.1575 340.1575 157.5028 211.0011 28.3465 28.3465 28.3465 28.3465 211.0011" stroke="rgb(0,0,0)" fill="none" stroke-width="0.25" />
<polyline points="157.5028 340.1575 157.5028 157.5028 340.1575 157.5028" stroke="rgb(0,0,0)" fill="none" stroke-width="0.25" />
<line x1="28.3465" y1="28.3465" x2="157.5028" y2="157.5028" stroke="rgb(0,0,0)" fill="none" stroke-width="0.25" />
<polyline points="28.3465 211.0011 211.0011 211.0011 211.0011 28.3465" stroke="rgb(0,0,0)" fill="none" stroke-width="0.25" />
<line x1="211.0011" y1="211.0011" x2="340.1575" y2="340.1575" stroke="rgb(0,0,0)" fill="none" stroke-width="0.25" />
<path d="M235.2101,357.0207 L236.5901,361.0407 L237.8301,357.0207 L239.4601,357.0207 L240.6901,361.0407 L242.0801,357.0207 L243.7701,357.0207 L241.3301,364.0107 L240.1701,364.0107 L238.6401,359.1507 L237.1201,364.0107 L235.9601,364.0107 L233.5201,357.0207 L235.2101,357.0207 z" fill="rgb(0,0,0)" />
<path d="M245.9501,358.6307 L245.9501,364.0107 L244.4501,364.0107 L244.4501,358.6307 L245.9501,358.6307 z M245.2001,358.2007 Q244.8301,358.2007,244.5751,357.9457 Q244.3201,357.6907,244.3201,357.3207 Q244.3201,356.9507,244.5751,356.6957 Q244.8301,356.4407,245.2001,356.4407 Q245.5701,356.4407,245.8251,356.6957 Q246.0801,356.9507,246.0801,357.3207 Q246.0801,357.6907,245.8251,357.9457 Q245.5701,358.2007,245.2001,358.2007 z" fill="rgb(0,0,0)" />
<path d="M251.1101,363.3007 Q250.4801,364.0907,249.5251,364.0907 Q248.5701,364.0907,247.8201,363.2807 Q247.0701,362.4707,247.0701,361.2707 Q247.0701,360.0707,247.8001,359.3057 Q248.5301,358.5407,249.5101,358.5407 Q250.4901,358.5407,251.1101,359.2307 L251.1101,356.5907 L252.6101,356.5907 L252.6101,364.0107 L251.1101,364.0107 L251.1101,363.3007 z M248.9601,360.2407 Q248.5801,360.6807,248.5801,361.3307 Q248.5801,361.9807,248.9701,362.3957 Q249.3601,362.8107,249.8801,362.8107 Q250.4001,362.8107,250.7651,362.3957 Q251.1301,361.9807,251.1301,361.3257 Q251.1301,360.6707,250.7651,360.2357 Q250.4001,359.8007,249.8701,359.8007 Q249.3401,359.8007,248.9601,360.2407 z" fill="rgb(0,0,0)" />
<path d="M257.1201,359.7107 L255.8201,359.7107 L255.8201,362.1207 Q255.8201,362.4307,255.9801,362.6057 Q256.1401,362.7807,256.3601,362.7807 Q256.7801,362.7807,257.0701,362.4007 L257.6301,363.4507 Q256.9301,364.0907,256.1551,364.0907 Q255.3801,364.0907,254.8451,363.5807 Q254.3101,363.0707,254.3101,362.1907 L254.3101,359.7107 L253.6801,359.7107 L253.6801,358.6307 L254.3101,358.6307 L254.3101,357.0207 L255.8201,357.0207 L255.8201,358.6307 L257.1201,358.6307 L257.1201,359.7107 z" fill="rgb(0,0,0)" />
<path d="M260.2651,360.1557 Q259.9301,360.4807,259.9301,361.1107 L259.9301,364.0107 L258.4301,364.0107 L258.4301,356.5907 L259.9301,356.5907 L259.9301,359.2307 Q260.6101,358.5407,261.4551,358.5407 Q262.3001,358.5407,262.8801,359.1407 Q263.4601,359.7407,263.4601,360.7407 L263.4601,364.0107 L261.9601,364.0107 L261.9601,361.0707 Q261.9601,359.8307,261.0501,359.8307 Q260.6001,359.8307,260.2651,360.1557 z" fill="rgb(0,0,0)" />
<path d="M233.8401,370.0707 L233.8401,369.0207 L236.3801,369.0207 L236.3801,376.0107 L235.2601,376.0107 L235.2601,370.0707 L233.8401,370.0707 z" fill="rgb(0,0,0)" />
<path d="M244.6601,373.7507 L240.9201,373.7507 L240.9201,373.0807 L244.6601,373.0807 L244.6601,373.7507 z" fill="rgb(0,0,0)" />
<path d="M250.9201,372.8807 Q251.6301,372.1607,251.9301,371.7507 Q252.2301,371.3407,252.2301,370.9207 Q252.2301,370.5007,251.9101,370.2057 Q251.5901,369.9107,251.1001,369.9107 Q250.2401,369.9107,249.6701,370.7907 L248.7201,370.2407 Q249.1801,369.5507,249.7351,369.2007 Q250.2901,368.8507,251.1651,368.8507 Q252.0401,368.8507,252.7001,369.4057 Q253.3601,369.9607,253.3601,370.9207 Q253.3601,371.4607,253.0801,371.9507 Q252.8001,372.4407,252.0501,373.2107 L250.4101,374.8807 L253.5801,374.8807 L253.5801,376.0107 L248.8001,376.0107 L248.8001,375.0107 L250.9201,372.8807 z" fill="rgb(0,0,0)" />
<path d="M257.5501,369.8607 Q256.6701,369.8607,256.2551,370.5807 Q255.8401,371.3007,255.8401,372.4707 Q255.8401,373.6407,256.2551,374.3607 Q256.6701,375.0807,257.5501,375.0807 Q258.4301,375.0807,258.8351,374.3657 Q259.2401,373.6507,259.2401,372.4707 Q259.2401,371.2907,258.8351,370.5757 Q258.4301,369.8607,257.5501,369.8607 z M257.5501,376.0907 Q256.1201,376.0907,255.4101,375.1057 Q254.7001,374.1207,254.7001,372.4707 Q254.7001,370.8207,255.4101,369.8357 Q256.1201,368.8507,257.5501,368.8507 Q258.9801,368.8507,259.6901,369.8357 Q260.4001,370.8207,260.4001,372.4707 Q260.4001,374.1207,259.6901,375.1057 Q258.9801,376.0907,257.5501,376.0907 z" fill="rgb(0,0,0)" />
<path d="M269.1401,375.1107 Q268.1701,376.0907,266.9001,376.0907 Q265.7901,376.0907,264.9901,375.3357 Q264.1901,374.5807,264.1901,373.3607 Q264.1901,372.1407,265.0251,371.3757 Q265.8601,370.6107,267.0601,370.6107 Q268.2601,370.6107,269.0901,371.4407 L268.4301,372.2507 Q267.7401,371.6507,267.0401,371.6507 Q266.3401,371.6507,265.8251,372.1157 Q265.3101,372.5807,265.3101,373.3157 Q265.3101,374.0507,265.8201,374.5607 Q266.3301,375.0707,267.0751,375.0707 Q267.8201,375.0707,268.4801,374.3907 L269.1401,375.1107 z" fill="rgb(0,0,0)" />
<path d="M271.8501,372.0057 Q271.4201,372.3907,271.4201,373.1307 L271.4201,376.0107 L270.3001,376.0107 L270.3001,368.6007 L271.4201,368.6007 L271.4201,371.6607 Q271.6601,371.1707,272.1451,370.8907 Q272.6301,370.6107,273.1901,370.6107 Q274.0901,370.6107,274.6451,371.1607 Q275.2001,371.7107,275.2001,372.7507 L275.2001,376.0107 L274.0801,376.0107 L274.0801,373.0907 Q274.0801,371.6207,272.8601,371.6207 Q272.2801,371.6207,271.8501,372.0057 z" fill="rgb(0,0,0)" />
<path d="M281.0701,372.5807 L281.0701,376.0107 L280.0501,376.0107 L280.0501,375.3007 Q279.3901,376.0907,278.2801,376.0907 Q277.4501,376.0907,276.9051,375.6207 Q276.3601,375.1507,276.3601,374.3657 Q276.3601,373.5807,276.9401,373.1907 Q277.5201,372.8007,278.5101,372.8007 L279.9601,372.8007 L279.9601,372.6007 Q279.9601,371.5407,278.7801,371.5407 Q278.0401,371.5407,277.2401,372.0807 L276.7401,371.3807 Q277.7101,370.6107,278.9401,370.6107 Q279.8801,370.6107,280.4751,371.0857 Q281.0701,371.5607,281.0701,372.5807 z M279.5501,374.8407 Q279.9501,374.5407,279.9501,374.0307 L279.9501,373.5807 L278.6901,373.5807 Q277.4801,373.5807,277.4801,374.3407 Q277.4801,374.7307,277.7801,374.9357 Q278.0801,375.1407,278.6151,375.1407 Q279.1501,375.1407,279.5501,374.8407 z" fill="rgb(0,0,0)" />
<path d="M285.4801,371.7407 Q285.4501,371.7407,285.4201,371.7407 Q284.5901,371.7407,284.1701,372.2807 Q283.7501,372.8207,283.7501,373.7307 L283.7501,376.0107 L282.6301,376.0107 L282.6301,370.6907 L283.7501,370.6907 L283.7501,371.7607 Q284.0201,371.2607,284.4851,370.9407 Q284.9501,370.6207,285.4701,370.6107 L285.4801,371.7407 z" fill="rgb(0,0,0)" />
<path d="M290.9101,372.5807 L290.9101,376.0107 L289.8901,376.0107 L289.8901,375.3007 Q289.2301,376.0907,288.1201,376.0907 Q287.2901,376.0907,286.7451,375.6207 Q286.2001,375.1507,286.2001,374.3657 Q286.2001,373.5807,286.7801,373.1907 Q287.3601,372.8007,288.3501,372.8007 L289.8001,372.8007 L289.8001,372.6007 Q289.8001,371.5407,288.6201,371.5407 Q287.8801,371.5407,287.0801,372.0807 L286.5801,371.3807 Q287.5501,370.6107,288.7801,370.6107 Q289.7201,370.6107,290.3151,371.0857 Q290.9101,371.5607,290.9101,372.5807 z M289.3901,374.8407 Q289.7901,374.5407,289.7901,374.0307 L289.7901,373.5807 L288.5301,373.5807 Q287.3201,373.5807,287.3201,374.3407 Q287.3201,374.7307,287.6201,374.9357 Q287.9201,375.1407,288.4551,375.1407 Q288.9901,375.1407,289.3901,374.8407 z" fill="rgb(0,0,0)" />
<path d="M297.0701,375.1107 Q296.1001,376.0907,294.8301,376.0907 Q293.7201,376.0907,292.9201,375.3357 Q292.1201,374.5807,292.1201,373.3607 Q292.1201,372.1407,292.9551,371.3757 Q293.7901,370.6107,294.9901,370.6107 Q296.1901,370.6107,297.0201,371.4407 L296.3601,372.2507 Q295.6701,371.6507,294.9701,371.6507 Q294.2701,371.6507,293.7551,372.1157 Q293.2401,372.5807,293.2401,373.3157 Q293.2401,374.0507,293.7501,374.5607 Q294.2601,375.0707,295.0051,375.0707 Q295.7501,375.0707,296.4101,374.3907 L297.0701,375.1107 z" fill="rgb(0,0,0)" />
<path d="M301.0101,371.5907 L299.6101,371.5907 L299.6101,374.2907 Q299.6101,374.6707,299.8101,374.8957 Q300.0101,375.1207,300.3701,375.1207 Q300.7301,375.1207,301.0601,374.7707 L301.5201,375.5607 Q300.9301,376.0907,300.2151,376.0907 Q299.5001,376.0907,298.9951,375.5957 Q298.4901,375.1007,298.4901,374.2607 L298.4901,371.5907 L297.8201,371.5907 L297.8201,370.6907 L298.4901,370.6907 L298.4901,369.0207 L299.6101,369.0207 L299.6101,370.6907 L301.0101,370.6907 L301.0101,371.5907 z" fill="rgb(0,0,0)" />
<path d="M307.3601,373.0707 L307.3601,373.8407 L303.1901,373.8407 Q303.2301,374.4207,303.7201,374.7757 Q304.2101,375.1307,304.8401,375.1307 Q305.8401,375.1307,306.3601,374.5007 L307.0001,375.2007 Q306.1401,376.0907,304.7601,376.0907 Q303.6401,376.0907,302.8551,375.3457 Q302.0701,374.6007,302.0701,373.3457 Q302.0701,372.0907,302.8701,371.3507 Q303.6701,370.6107,304.7551,370.6107 Q305.8401,370.6107,306.6001,371.2657 Q307.3601,371.9207,307.3601,373.0707 z M303.6801,371.9457 Q303.1901,372.3207,303.1901,372.9607 L306.2401,372.9607 Q306.2401,372.2907,305.8201,371.9307 Q305.4001,371.5707,304.7851,371.5707 Q304.1701,371.5707,303.6801,371.9457 z" fill="rgb(0,0,0)" />
<path d="M311.4401,371.7407 Q311.4101,371.7407,311.3801,371.7407 Q310.5501,371.7407,310.1301,372.2807 Q309.7101,372.8207,309.7101,373.7307 L309.7101,376.0107 L308.5901,376.0107 L308.5901,370.6907 L309.7101,370.6907 L309.7101,371.7607 Q309.9801,371.2607,310.4451,370.9407 Q310.9101,370.6207,311.4301,370.6107 L311.4401,371.7407 z" fill="rgb(0,0,0)" />
<path d="M315.8101,373.3007 Q316.3501,373.6607,316.3501,374.4207 Q316.3501,375.1807,315.8001,375.6357 Q315.2501,376.0907,314.3901,376.0907 Q313.8101,376.0907,313.1851,375.8807 Q312.5601,375.6707,312.0801,375.2907 L312.6201,374.4207 Q313.5501,375.1207,314.4201,375.1207 Q314.8001,375.1207,315.0201,374.9457 Q315.2401,374.7707,315.2401,374.5007 Q315.2401,374.1007,314.1801,373.7807 Q314.1001,373.7507,314.0601,373.7407 Q312.4001,373.2907,312.4001,372.2407 Q312.4001,371.5007,312.9751,371.0557 Q313.5501,370.6107,314.4701,370.6107 Q315.3901,370.6107,316.2101,371.1507 L315.7901,371.9807 Q315.1401,371.5507,314.3801,371.5507 Q313.9801,371.5507,313.7301,371.6957 Q313.4801,371.8407,313.4801,372.1307 Q313.4801,372.3907,313.7401,372.5107 Q313.9201,372.6007,314.2451,372.6807 Q314.5701,372.7607,314.8201,372.8407 Q315.0701,372.9207,315.3051,373.0207 Q315.5401,373.1207,315.8101,373.3007 z" fill="rgb(0,0,0)" />
<path d="M292.3925,76.7814 Q292.9825,77.3714,293.8225,77.3714 Q294.9725,77.3714,295.7025,76.4614 L296.7025,77.4914 Q295.5125,78.8314,293.8975,78.8314 Q292.2825,78.8314,291.2375,77.8114 Q290.1925,76.7914,290.1925,75.2364 Q290.1925,73.6814,291.2575,72.6414 Q292.3225,71.6014,293.8625,71.6014 Q295.5825,71.6014,296.7425,72.9114 L295.7725,74.0114 Q295.0325,73.0914,293.9325,73.0914 Q293.0525,73.0914,292.4275,73.6664 Q291.8025,74.2414,291.8025,75.2164 Q291.8025,76.1914,292.3925,76.7814 z" fill="rgb(0,0,0)" />
<path d="M299.3575,74.9814 Q298.9825,75.4014,298.9825,76.0614 Q298.9825,76.7214,299.3575,77.1364 Q299.7325,77.5514,300.3175,77.5514 Q300.9025,77.5514,301.2775,77.1364 Q301.6525,76.7214,301.6525,76.0614 Q301.6525,75.4014,301.2775,74.9814 Q300.9025,74.5614,300.3175,74.5614 Q299.7325,74.5614,299.3575,74.9814 z M302.3525,74.0864 Q303.1625,74.8914,303.1625,76.0614 Q303.1625,77.2314,302.3525,78.0314 Q301.5425,78.8314,300.3175,78.8314 Q299.0925,78.8314,298.2825,78.0314 Q297.4725,77.2314,297.4725,76.0614 Q297.4725,74.8914,298.2825,74.0864 Q299.0925,73.2814,300.3175,73.2814 Q301.5425,73.2814,302.3525,74.0864 z" fill="rgb(0,0,0)" />
<path d="M307.4125,77.2164 Q307.7425,76.8914,307.7425,76.2714 L307.7425,73.3714 L309.2525,73.3714 L309.2525,78.7514 L307.7425,78.7514 L307.7425,78.0414 Q307.1825,78.8314,306.2975,78.8314 Q305.4125,78.8314,304.8125,78.2764 Q304.2125,77.7214,304.2125,76.6314 L304.2125,73.3714 L305.7225,73.3714 L305.7225,76.3014 Q305.7225,77.5414,306.6325,77.5414 Q307.0825,77.5414,307.4125,77.2164 z" fill="rgb(0,0,0)" />
<path d="M312.5075,74.7964 Q312.1725,75.1214,312.1725,75.7514 L312.1725,78.7514 L310.6725,78.7514 L310.6725,73.3714 L312.1725,73.3714 L312.1725,73.9714 Q312.8525,73.2814,313.7025,73.2814 Q314.5525,73.2814,315.1275,73.8814 Q315.7025,74.4814,315.7025,75.4814 L315.7025,78.7514 L314.2025,78.7514 L314.2025,75.7114 Q314.2025,74.4714,313.2925,74.4714 Q312.8425,74.4714,312.5075,74.7964 z" fill="rgb(0,0,0)" />
<path d="M320.1525,74.4514 L318.8525,74.4514 L318.8525,76.8614 Q318.8525,77.1714,319.0125,77.3464 Q319.1725,77.5214,319.3925,77.5214 Q319.8125,77.5214,320.1025,77.1414 L320.6625,78.1914 Q319.9625,78.8314,319.1875,78.8314 Q318.4125,78.8314,317.8775,78.3214 Q317.3425,77.8114,317.3425,76.9314 L317.3425,74.4514 L316.7125,74.4514 L316.7125,73.3714 L317.3425,73.3714 L317.3425,71.7614 L318.8525,71.7614 L318.8525,73.3714 L320.1525,73.3714 L320.1525,74.4514 z" fill="rgb(0,0,0)" />
<path d="M290.0425,84.8114 L290.0425,83.7614 L292.5825,83.7614 L292.5825,90.7514 L291.4625,90.7514 L291.4625,84.8114 L290.0425,84.8114 z" fill="rgb(0,0,0)" />
<path d="M300.8625,88.4914 L297.1225,88.4914 L297.1225,87.8214 L300.8625,87.8214 L300.8625,88.4914 z" fill="rgb(0,0,0)" />
<path d="M307.1225,87.6214 Q307.8325,86.9014,308.1325,86.4914 Q308.4325,86.0814,308.4325,85.6614 Q308.4325,85.2414,308.1125,84.9464 Q307.7925,84.6514,307.3025,84.6514 Q306.4425,84.6514,305.8725,85.5314 L304.9225,84.9814 Q305.3825,84.2914,305.9375,83.9414 Q306.4925,83.5914,307.3675,83.5914 Q308.2425,83.5914,308.9025,84.1464 Q309.5625,84.7014,309.5625,85.6614 Q309.5625,86.2014,309.2825,86.6914 Q309.0025,87.1814,308.2525,87.9514 L306.6125,89.6214 L309.7825,89.6214 L309.7825,90.7514 L305.0025,90.7514 L305.0025,89.7514 L307.1225,87.6214 z" fill="rgb(0,0,0)" />
<path d="M313.7525,84.6014 Q312.8725,84.6014,312.4575,85.3214 Q312.0425,86.0414,312.0425,87.2114 Q312.0425,88.3814,312.4575,89.1014 Q312.8725,89.8214,313.7525,89.8214 Q314.6325,89.8214,315.0375,89.1064 Q315.4425,88.3914,315.4425,87.2114 Q315.4425,86.0314,315.0375,85.3164 Q314.6325,84.6014,313.7525,84.6014 z M313.7525,90.8314 Q312.3225,90.8314,311.6125,89.8464 Q310.9025,88.8614,310.9025,87.2114 Q310.9025,85.5614,311.6125,84.5764 Q312.3225,83.5914,313.7525,83.5914 Q315.1825,83.5914,315.8925,84.5764 Q316.6025,85.5614,316.6025,87.2114 Q316.6025,88.8614,315.8925,89.8464 Q315.1825,90.8314,313.7525,90.8314 z" fill="rgb(0,0,0)" />
<path d="M324.4925,87.1114 L323.2325,90.7514 L321.9525,90.7514 L320.1125,85.4314 L321.2725,85.4314 L322.5925,89.4514 L323.9125,85.4314 L325.0725,85.4314 L326.3925,89.4514 L327.7125,85.4314 L328.8725,85.4314 L327.0325,90.7514 L325.7525,90.7514 L324.4925,87.1114 z" fill="rgb(0,0,0)" />
<path d="M330.6325,88.0914 Q330.6325,88.8614,331.1075,89.3464 Q331.5825,89.8314,332.3125,89.8314 Q333.0425,89.8314,333.5175,89.3464 Q333.9925,88.8614,333.9925,88.0914 Q333.9925,87.3214,333.5175,86.8364 Q333.0425,86.3514,332.3125,86.3514 Q331.5825,86.3514,331.1075,86.8364 Q330.6325,87.3214,330.6325,88.0914 z M335.1125,88.0914 Q335.1125,89.2414,334.3125,90.0364 Q333.5125,90.8314,332.3125,90.8314 Q331.1125,90.8314,330.3125,90.0364 Q329.5125,89.2414,329.5125,88.0914 Q329.5125,86.9414,330.3125,86.1464 Q331.1125,85.3514,332.3125,85.3514 Q333.5125,85.3514,334.3125,86.1464 Q335.1125,86.9414,335.1125,88.0914 z" fill="rgb(0,0,0)" />
<path d="M339.2325,86.4814 Q339.2025,86.4814,339.1725,86.4814 Q338.3425,86.4814,337.9225,87.0214 Q337.5025,87.5614,337.5025,88.4714 L337.5025,90.7514 L336.3825,90.7514 L336.3825,85.4314 L337.5025,85.4314 L337.5025,86.5014 Q337.7725,86.0014,338.2375,85.6814 Q338.7025,85.3614,339.2225,85.3514 L339.2325,86.4814 z" fill="rgb(0,0,0)" />
<path d="M342.5225,90.8314 Q341.5125,90.8314,340.7625,90.0714 Q340.0125,89.3114,340.0125,88.0714 Q340.0125,86.8314,340.7825,86.0914 Q341.5525,85.3514,342.6175,85.3514 Q343.6825,85.3514,344.3325,86.2514 L344.3325,83.3314 L345.4525,83.3314 L345.4525,90.7514 L344.3325,90.7514 L344.3325,89.9514 Q343.7125,90.8314,342.5225,90.8314 z M341.6125,86.8414 Q341.1325,87.3514,341.1325,88.1164 Q341.1325,88.8814,341.6225,89.3614 Q342.1125,89.8414,342.7725,89.8414 Q343.4325,89.8414,343.8925,89.3564 Q344.3525,88.8714,344.3525,88.1114 Q344.3525,87.3514,343.8925,86.8414 Q343.4325,86.3314,342.7625,86.3314 Q342.0925,86.3314,341.6125,86.8414 z" fill="rgb(0,0,0)" />
<path d="M350.3225,88.0414 Q350.8625,88.4014,350.8625,89.1614 Q350.8625,89.9214,350.3125,90.3764 Q349.7625,90.8314,348.9025,90.8314 Q348.3225,90.8314,347.6975,90.6214 Q347.0725,90.4114,346.5925,90.0314 L347.1325,89.1614 Q348.0625,89.8614,348.9325,89.8614 Q349.3125,89.8614,349.5325,89.6864 Q349.7525,89.5114,349.7525,89.2414 Q349.7525,88.8414,348.6925,88.5214 Q348.6125,88.4914,348.5725,88.4814 Q346.9125,88.0314,346.9125,86.9814 Q346.9125,86.2414,347.4875,85.7964 Q348.0625,85.3514,348.9825,85.3514 Q349.9025,85.3514,350.7225,85.8914 L350.3025,86.7214 Q349.6525,86.2914,348.8925,86.2914 Q348.4925,86.2914,348.2425,86.4364 Q347.9925,86.5814,347.9925,86.8714 Q347.9925,87.1314,348.2525,87.2514 Q348.4325,87.3414,348.7575,87.4214 Q349.0825,87.5014,349.3325,87.5814 Q349.5825,87.6614,349.8175,87.7614 Q350.0525,87.8614,350.3225,88.0414 z" fill="rgb(0,0,0)" />
<path d="M361.1307,246.8701 L359.1507,246.8701 L359.1507,252.5101 L357.5907,252.5101 L357.5907,246.8701 L355.6107,246.8701 L355.6107,245.5201 L361.1307,245.5201 L361.1307,246.8701 z" fill="rgb(0,0,0)" />
<path d="M363.6207,247.1301 L363.6207,252.5101 L362.1207,252.5101 L362.1207,247.1301 L363.6207,247.1301 z M362.8707,246.7001 Q362.5007,246.7001,362.2457,246.4451 Q361.9907,246.1901,361.9907,245.8201 Q361.9907,245.4501,362.2457,245.1951 Q362.5007,244.9401,362.8707,244.9401 Q363.2407,244.9401,363.4957,245.1951 Q363.7507,245.4501,363.7507,245.8201 Q363.7507,246.1901,363.4957,246.4451 Q363.2407,246.7001,362.8707,246.7001 z" fill="rgb(0,0,0)" />
<path d="M370.3107,248.6551 Q369.9807,248.9801,369.9807,249.6101 L369.9807,252.5101 L368.4707,252.5101 L368.4707,249.5701 Q368.4707,248.9301,368.2757,248.6301 Q368.0807,248.3301,367.6457,248.3301 Q367.2107,248.3301,366.8757,248.6551 Q366.5407,248.9801,366.5407,249.6101 L366.5407,252.5101 L365.0407,252.5101 L365.0407,247.1301 L366.5407,247.1301 L366.5407,247.7401 Q367.1607,247.0401,367.9607,247.0401 Q368.4707,247.0401,368.8857,247.3401 Q369.3007,247.6401,369.5107,248.0701 Q369.8207,247.5801,370.3457,247.3101 Q370.8707,247.0401,371.4007,247.0401 Q372.3507,247.0401,372.9307,247.6051 Q373.5107,248.1701,373.5107,249.2401 L373.5107,252.5101 L372.0007,252.5101 L372.0007,249.5701 Q372.0007,248.3301,371.0907,248.3301 Q370.6407,248.3301,370.3107,248.6551 z" fill="rgb(0,0,0)" />
<path d="M378.6907,250.8201 L379.5307,251.7301 Q378.6207,252.5901,377.3957,252.5901 Q376.1707,252.5901,375.3707,251.8351 Q374.5707,251.0801,374.5707,249.8101 Q374.5707,248.5401,375.3857,247.7901 Q376.2007,247.0401,377.3107,247.0401 Q378.4207,247.0401,379.1957,247.7101 Q379.9707,248.3801,379.9707,249.5501 L379.9707,250.3501 L376.0507,250.3501 Q376.1207,250.7901,376.5107,251.0701 Q376.9007,251.3501,377.3907,251.3501 Q378.1807,251.3501,378.6907,250.8201 z M378.4507,249.2801 Q378.4007,248.8001,378.0907,248.5401 Q377.7807,248.2801,377.3357,248.2801 Q376.8907,248.2801,376.5207,248.5501 Q376.1507,248.8201,376.0907,249.2801 L378.4507,249.2801 z" fill="rgb(0,0,0)" />
<path d="M358.7707,258.3601 Q357.8907,258.3601,357.4757,259.0801 Q357.0607,259.8001,357.0607,260.9701 Q357.0607,262.1401,357.4757,262.8601 Q357.8907,263.5801,358.7707,263.5801 Q359.6507,263.5801,360.0557,262.8651 Q360.4607,262.1501,360.4607,260.9701 Q360.4607,259.7901,360.0557,259.0751 Q359.6507,258.3601,358.7707,258.3601 z M358.7707,264.5901 Q357.3407,264.5901,356.6307,263.6051 Q355.9207,262.6201,355.9207,260.9701 Q355.9207,259.3201,356.6307,258.3351 Q357.3407,257.3501,358.7707,257.3501 Q360.2007,257.3501,360.9107,258.3351 Q361.6207,259.3201,361.6207,260.9701 Q361.6207,262.6201,360.9107,263.6051 Q360.2007,264.5901,358.7707,264.5901 z" fill="rgb(0,0,0)" />
<path d="M363.6107,264.5901 Q363.3007,264.5901,363.0857,264.3701 Q362.8707,264.1501,362.8707,263.8401 Q362.8707,263.5301,363.0857,263.3151 Q363.3007,263.1001,363.6107,263.1001 Q363.9207,263.1001,364.1407,263.3151 Q364.3607,263.5301,364.3607,263.8401 Q364.3607,264.1501,364.1407,264.3701 Q363.9207,264.5901,363.6107,264.5901 z" fill="rgb(0,0,0)" />
<path d="M368.4507,258.3601 Q367.5707,258.3601,367.1557,259.0801 Q366.7407,259.8001,366.7407,260.9701 Q366.7407,262.1401,367.1557,262.8601 Q367.5707,263.5801,368.4507,263.5801 Q369.3307,263.5801,369.7357,262.8651 Q370.1407,262.1501,370.1407,260.9701 Q370.1407,259.7901,369.7357,259.0751 Q369.3307,258.3601,368.4507,258.3601 z M368.4507,264.5901 Q367.0207,264.5901,366.3107,263.6051 Q365.6007,262.6201,365.6007,260.9701 Q365.6007,259.3201,366.3107,258.3351 Q367.0207,257.3501,368.4507,257.3501 Q369.8807,257.3501,370.5907,258.3351 Q371.3007,259.3201,371.3007,260.9701 Q371.3007,262.6201,370.5907,263.6051 Q369.8807,264.5901,368.4507,264.5901 z" fill="rgb(0,0,0)" />
<path d="M379.1907,262.2501 L375.4507,262.2501 L375.4507,261.5801 L379.1907,261.5801 L379.1907,262.2501 z" fill="rgb(0,0,0)" />
<path d="M383.0407,258.5701 L383.0407,257.5201 L385.5807,257.5201 L385.5807,264.5101 L384.4607,264.5101 L384.4607,258.5701 L383.0407,258.5701 z" fill="rgb(0,0,0)" />
<path d="M387.9607,264.5901 Q387.6507,264.5901,387.4357,264.3701 Q387.2207,264.1501,387.2207,263.8401 Q387.2207,263.5301,387.4357,263.3151 Q387.6507,263.1001,387.9607,263.1001 Q388.2707,263.1001,388.4907,263.3151 Q388.7107,263.5301,388.7107,263.8401 Q388.7107,264.1501,388.4907,264.3701 Q388.2707,264.5901,387.9607,264.5901 z" fill="rgb(0,0,0)" />
<path d="M392.8007,258.3601 Q391.9207,258.3601,391.5057,259.0801 Q391.0907,259.8001,391.0907,260.9701 Q391.0907,262.1401,391.5057,262.8601 Q391.9207,263.5801,392.8007,263.5801 Q393.6807,263.5801,394.0857,262.8651 Q394.4907,262.1501,394.4907,260.9701 Q394.4907,259.7901,394.0857,259.0751 Q393.6807,258.3601,392.8007,258.3601 z M392.8007,264.5901 Q391.3707,264.5901,390.6607,263.6051 Q389.9507,262.6201,389.9507,260.9701 Q389.9507,259.3201,390.6607,258.3351 Q391.3707,257.3501,392.8007,257.3501 Q394.2307,257.3501,394.9407,258.3351 Q395.6507,259.3201,395.6507,260.9701 Q395.6507,262.6201,394.9407,263.6051 Q394.2307,264.5901,392.8007,264.5901 z" fill="rgb(0,0,0)" />
<path d="M403.0407,261.8001 Q403.5807,262.1601,403.5807,262.9201 Q403.5807,263.6801,403.0307,264.1351 Q402.4807,264.5901,401.6207,264.5901 Q401.0407,264.5901,400.4157,264.3801 Q399.7907,264.1701,399.3107,263.7901 L399.8507,262.9201 Q400.7807,263.6201,401.6507,263.6201 Q402.0307,263.6201,402.2507,263.4451 Q402.4707,263.2701,402.4707,263.0001 Q402.4707,262.6001,401.4107,262.2801 Q401.3307,262.2501,401.2907,262.2401 Q399.6307,261.7901,399.6307,260.7401 Q399.6307,260.0001,400.2057,259.5551 Q400.7807,259.1101,401.7007,259.1101 Q402.6207,259.1101,403.4407,259.6501 L403.0207,260.4801 Q402.3707,260.0501,401.6107,260.0501 Q401.2107,260.0501,400.9607,260.1951 Q400.7107,260.3401,400.7107,260.6301 Q400.7107,260.8901,400.9707,261.0101 Q401.1507,261.1001,401.4757,261.1801 Q401.8007,261.2601,402.0507,261.3401 Q402.3007,261.4201,402.5357,261.5201 Q402.7707,261.6201,403.0407,261.8001 z" fill="rgb(0,0,0)" />
<path d="M409.8007,261.5701 L409.8007,262.3401 L405.6307,262.3401 Q405.6707,262.9201,406.1607,263.2751 Q406.6507,263.6301,407.2807,263.6301 Q408.2807,263.6301,408.8007,263.0001 L409.4407,263.7001 Q408.5807,264.5901,407.2007,264.5901 Q406.0807,264.5901,405.2957,263.8451 Q404.5107,263.1001,404.5107,261.8451 Q404.5107,260.5901,405.3107,259.8501 Q406.1107,259.1101,407.1957,259.1101 Q408.2807,259.1101,409.0407,259.7651 Q409.8007,260.4201,409.8007,261.5701 z M406.1207,260.4451 Q405.6307,260.8201,405.6307,261.4601 L408.6807,261.4601 Q408.6807,260.7901,408.2607,260.4301 Q407.8407,260.0701,407.2257,260.0701 Q406.6107,260.0701,406.1207,260.4451 z" fill="rgb(0,0,0)" />
<path d="M415.6307,263.6101 Q414.6607,264.5901,413.3907,264.5901 Q412.2807,264.5901,411.4807,263.8351 Q410.6807,263.0801,410.6807,261.8601 Q410.6807,260.6401,411.5157,259.8751 Q412.3507,259.1101,413.5507,259.1101 Q414.7507,259.1101,415.5807,259.9401 L414.9207,260.7501 Q414.2307,260.1501,413.5307,260.1501 Q412.8307,260.1501,412.3157,260.6151 Q411.8007,261.0801,411.8007,261.8151 Q411.8007,262.5501,412.3107,263.0601 Q412.8207,263.5701,413.5657,263.5701 Q414.3107,263.5701,414.9707,262.8901 L415.6307,263.6101 z" fill="rgb(0,0,0)" />
<path d="M417.5607,261.8501 Q417.5607,262.6201,418.0357,263.1051 Q418.5107,263.5901,419.2407,263.5901 Q419.9707,263.5901,420.4457,263.1051 Q420.9207,262.6201,420.9207,261.8501 Q420.9207,261.0801,420.4457,260.5951 Q419.9707,260.1101,419.2407,260.1101 Q418.5107,260.1101,418.0357,260.5951 Q417.5607,261.0801,417.5607,261.8501 z M422.0407,261.8501 Q422.0407,263.0001,421.2407,263.7951 Q420.4407,264.5901,419.2407,264.5901 Q418.0407,264.5901,417.2407,263.7951 Q416.4407,263.0001,416.4407,261.8501 Q416.4407,260.7001,417.2407,259.9051 Q418.0407,259.1101,419.2407,259.1101 Q420.4407,259.1101,421.2407,259.9051 Q422.0407,260.7001,422.0407,261.8501 z" fill="rgb(0,0,0)" />
<path d="M424.8607,260.5051 Q424.4307,260.8901,424.4307,261.6301 L424.4307,264.5101 L423.3107,264.5101 L423.3107,259.1901 L424.4307,259.1901 L424.4307,260.1601 Q424.7007,259.6701,425.1757,259.3901 Q425.6507,259.1101,426.2007,259.1101 Q427.1007,259.1101,427.6557,259.6601 Q428.2107,260.2101,428.2107,261.2501 L428.2107,264.5101 L427.0907,264.5101 L427.0907,261.5901 Q427.0907,260.1201,425.8707,260.1201 Q425.2907,260.1201,424.8607,260.5051 z" fill="rgb(0,0,0)" />
<path d="M431.9407,264.5901 Q430.9307,264.5901,430.1807,263.8301 Q429.4307,263.0701,429.4307,261.8301 Q429.4307,260.5901,430.2007,259.8501 Q430.9707,259.1101,432.0357,259.1101 Q433.1007,259.1101,433.7507,260.0101 L433.7507,257.0901 L434.8707,257.0901 L434.8707,264.5101 L433.7507,264.5101 L433.7507,263.7101 Q433.1307,264.5901,431.9407,264.5901 z M431.0307,260.6001 Q430.5507,261.1101,430.5507,261.8751 Q430.5507,262.6401,431.0407,263.1201 Q431.5307,263.6001,432.1907,263.6001 Q432.8507,263.6001,433.3107,263.1151 Q433.7707,262.6301,433.7707,261.8701 Q433.7707,261.1101,433.3107,260.6001 Q432.8507,260.0901,432.1807,260.0901 Q431.5107,260.0901,431.0307,260.6001 z" fill="rgb(0,0,0)" />
</svg>