<?xml version="1.0" encoding="UTF-8"?>
<!-- Flat -->
<svg version="1.1" xmlns="http://www.w3.org/2000/svg" xmlns:xlink="http://www.w3.org/1999/xlink" width="453.5433" height="396.8504">
<title>Untitled</title>
<polyline points="151.045 333.671 160.1777 333.1745 169.3105 332.7888 178.4432 332.4205 187.5759 332.0843 196.7087 331.8448 205.8414 331.6103 214.9741 331.4395 224.1069 331.2998 233.2396 331.3135 242.3723 331.3655 251.5051 331.339 260.6378 331.3226 269.7705 331.329 278.9033 331.3564 288.036 331.3547 297.1687 331.3557 306.3015 331.325 315.4342 331.36 324.5669 331.3644 333.6997 331.3642" stroke="rgb(0,0,0)" fill="none" stroke-width="1.25" />
<polyline points="144.5872 327.1841 153.7199 326.2172 162.8526 325.3258 171.9854 324.4341 181.1181 323.5705 190.2508 322.9038 199.3836 322.1334 208.5163 321.4574 217.649 320.7733 226.7818 320.2399 235.9145 319.8156 245.0472 319.2755 254.18 318.8361 263.3127 318.4825 272.4454 318.1801 281.5782 317.8797 290.7109 317.7681 299.8436 317.702 308.9764 317.6638 318.1091 317.7009 327.2418 317.8952" stroke="rgb(0,0,0)" fill="none" stroke-width="1.25" />
<polyline points="138.1294 320.6854 147.2621 319.2461 156.3948 317.8312 165.5276 316.4999 174.6603 315.1837 183.793 313.9328 192.9258 312.7293 202.0585 311.5308 211.1912 310.3924 220.324 309.2989 229.4567 308.3523 238.5894 307.229 247.7222 306.3541 256.8549 305.4845 265.9876 304.6905 275.1204 304.03 284.2531 303.2434 293.3858 302.5085 302.5186 301.7755 311.6513 301.2712 320.784 300.7797" stroke="rgb(0,0,0)" fill="none" stroke-width="1.25" />
<polyline points="131.6715 314.1754 140.8043 312.2688 149.937 310.3411 159.0697 308.5083 168.2025 306.725 177.3352 304.9909 186.4679 303.2721 195.6007 301.5987 204.7334 299.99 213.8661 298.3759 222.9989 296.8755 232.1316 295.3592 241.2643 293.7763 250.3971 292.5262 259.5298 291.2124 268.6625 289.8534 277.7953 288.497 286.928 287.3585 296.0607 286.294 305.1935 285.1159 314.3262 284.4231" stroke="rgb(0,0,0)" fill="none" stroke-width="1.25" />
<polyline points="125.2137 307.6901 134.3465 305.2828 143.4792 302.8467 152.6119 300.5173 161.7447 298.2452 170.8774 296.0574 180.0101 293.7676 189.1429 291.6574 198.2756 289.5176 207.4083 287.3815 216.5411 285.4031 225.6738 283.3726 234.8065 281.4136 243.9393 279.5149 253.072 277.6642 262.2047 275.7475 271.3375 274.0219 280.4702 272.4232 289.6029 270.2214 298.7357 268.9465 307.8684 267.3653" stroke="rgb(0,0,0)" fill="none" stroke-width="1.25" />
<polyline points="118.7559 301.1618 127.8886 298.2872 137.0214 295.3656 146.1541 292.5429 155.2868 289.783 164.4196 287.0647 173.5523 284.3594 182.685 281.659 191.8178 278.9874 200.9505 276.4296 210.0832 273.9247 219.216 271.3593 228.3487 268.8688 237.4814 266.4932 246.6142 264.0776 255.7469 261.6713 264.8796 259.4531 274.0124 257.182 283.1451 254.9505 292.2778 252.7472 301.4106 250.8757" stroke="rgb(0,0,0)" fill="none" stroke-width="1.25" />
<polyline points="112.2981 294.6821 121.4308 291.2854 130.5636 287.9008 139.6963 284.5813 148.829 281.2913 157.9618 278.074 167.0945 274.8843 176.2272 271.7161 185.36 268.4576 194.4927 265.4168 203.6254 262.4139 212.7582 259.3407 221.8909 256.4013 231.0236 253.3632 240.1564 250.549 249.2891 247.6253 258.4218 244.6873 267.5546 241.8078 276.6873 239.2747 285.82 235.3799 294.9528 233.7775" stroke="rgb(0,0,0)" fill="none" stroke-width="1.25" />
<polyline points="105.8403 288.1631 114.973 284.2902 124.1057 280.35 133.2385 276.5183 142.3712 272.8119 151.5039 269.0356 160.6367 265.3014 169.7694 261.6001 178.9021 257.9644 188.0349 254.3323 197.1676 250.7473 206.3003 246.4233 215.4331 243.7597 224.5658 240.2173 233.6985 235.6043 242.8313 233.437 251.964 229.0425 261.0967 226.8472 270.2295 222.3517 279.3622 218.97 288.4949 217.0781" stroke="rgb(0,0,0)" fill="none" stroke-width="1.25" />
<polyline points="99.3825 281.6757 108.5152 277.2216 117.6479 272.8656 126.7807 268.5437 135.9134 264.269 145.0461 260.0082 154.1789 255.7889 163.3116 251.616 172.4443 247.3778 181.5771 243.3105 190.7098 238.9573 199.8425 235.0774 208.9753 231.1079 218.108 226.0507 227.2407 223.1142 236.3735 218.0976 245.5062 215.0976 254.6389 210.2329 263.7717 207.7445 272.9044 203.7387 282.0371 198.8345" stroke="rgb(0,0,0)" fill="none" stroke-width="1.25" />
<polyline points="92.9246 275.1802 102.0574 270.1915 111.1901 265.3433 120.3228 260.5324 129.4556 255.7394 138.5883 250.9393 147.721 246.2188 156.8538 241.4479 165.9865 236.7504 175.1192 232.1232 184.252 227.49 193.3847 222.9181 202.5174 218.3549 211.6502 213.2586 220.7829 209.3392 229.9156 204.9684 239.0484 200.4089 248.1811 195.3064 257.3138 191.3274 266.4466 186.2632 275.5793 181.908" stroke="rgb(0,0,0)" fill="none" stroke-width="1.25" />
<polyline points="86.4668 268.6816 95.5995 263.1781 104.7323 257.8267 113.865 252.4924 122.9978 247.1529 132.1305 241.8618 141.2632 236.5523 150.396 231.3445 159.5287 226.095 168.6614 220.8285 177.7942 215.6869 186.9269 210.6797 196.0596 205.5116 205.1924 200.4932 214.3251 195.4583 223.4578 190.3522 232.5906 185.1898 241.7233 180.3882 250.856 175.3256 259.9888 170.0792 269.1215 164.7742" stroke="rgb(0,0,0)" fill="none" stroke-width="1.25" />
<polyline points="80.009 262.1888 89.1417 256.1654 98.2745 250.2302 107.4072 244.3982 116.5399 238.4771 125.6727 232.7498 134.8054 226.8959 143.9381 221.1107 153.0709 215.3305 162.2036 209.6891 171.3363 203.9425 180.4691 198.4322 189.6018 192.626 198.7345 187.07 207.8673 181.607 217 176.1493 226.1327 170.4236 235.2655 164.6262 244.3982 159.5871 253.5309 152.9797 262.6637 147.391" stroke="rgb(0,0,0)" fill="none" stroke-width="1.25" />
<polyline points="73.5512 255.6601 82.6839 249.511 91.8166 243.5636 100.9494 237.5404 110.0821 231.4534 119.2148 225.415 128.3476 219.4296 137.4803 213.3998 146.613 207.379 155.7458 201.2895 164.8785 195.4302 174.0112 189.3089 183.144 183.5774 192.2767 177.7136 201.4094 171.7534 210.5422 165.5133 219.6749 160.025 228.8076 152.9013 237.9404 147.1167 247.0731 141.1924 256.2058 135.0379" stroke="rgb(0,0,0)" fill="none" stroke-width="1.25" />
<polyline points="67.0934 249.1803 76.2261 242.5363 85.3588 236.0387 94.4916 229.5828 103.6243 223.121 112.757 216.5707 121.8898 210.0901 131.0225 203.5976 140.1552 197.1324 149.288 190.5639 158.4207 184.1737 167.5534 177.7545 176.6862 171.4051 185.8189 164.8224 194.9516 158.7299 204.0844 151.8285 213.2171 145.8183 222.3498 139.1915 231.4826 131.87 240.6153 125.4603 249.748 119.0697" stroke="rgb(0,0,0)" fill="none" stroke-width="1.25" />
<polyline points="60.6355 242.6126 69.7683 235.5555 78.901 228.6192 88.0337 221.6758 97.1665 214.696 106.2992 207.5926 115.4319 200.8583 124.5647 193.8067 133.6974 186.8631 142.8301 179.9439 151.9629 172.991 161.0956 166.1665 170.2283 158.949 179.3611 152.3863 188.4938 144.5568 197.6265 138.3266 206.7593 131.5768 215.892 123.2056 225.0247 116.6974 234.1575 109.7815 243.2902 102.7248" stroke="rgb(0,0,0)" fill="none" stroke-width="1.25" />
<polyline points="54.1777 236.0844 63.3105 228.6372 72.4432 221.2338 81.5759 213.8088 90.7087 206.3122 99.8414 198.9796 108.9741 191.5403 118.1069 184.0755 127.2396 176.648 136.3723 169.0604 145.5051 161.6461 154.6378 154.4356 163.7705 147.0587 172.9033 139.7142 182.036 131.8141 191.1687 124.9255 200.3015 116.4451 209.4342 109.0488 218.5669 102.6954 227.6997 93.5378 236.8324 86.4033" stroke="rgb(0,0,0)" fill="none" stroke-width="1.25" />
<polyline points="47.7199 229.6277 56.8526 221.6552 65.9854 213.7749 75.1181 205.9329 84.2508 197.9935 93.3836 190.1356 102.5163 182.194 111.649 174.1637 120.7818 166.1682 129.9145 158.5779 139.0472 150.6533 148.18 142.6863 157.3127 134.9349 166.4454 127.005 175.5782 119.1401 184.7109 111.1446 193.8436 103.5578 202.9764 94.8916 212.1091 86.3711 221.2418 78.3447 230.3746 70.6698" stroke="rgb(0,0,0)" fill="none" stroke-width="1.25" />
<polyline points="41.2621 223.107 50.3948 214.6348 59.5276 206.3465 68.6603 197.6834 77.793 189.6754 86.9258 180.6517 96.0585 172.9221 105.1912 164.5878 114.324 156.1177 123.4567 147.7739 132.5894 139.4585 141.7222 131.1645 150.8549 122.8216 159.9876 114.435 169.1204 104.9958 178.2531 96.6627 187.3858 89.1626 196.5186 81.009 205.6513 71.3946 214.784 61.6173 223.9168 54.4792" stroke="rgb(0,0,0)" fill="none" stroke-width="1.25" />
<polyline points="34.8043 216.6279 43.937 207.6453 53.0697 198.8946 62.2025 190.1979 71.3352 181.312 80.4679 171.4357 89.6007 163.6294 98.7334 154.7857 107.8661 145.9391 116.9989 136.9919 126.1316 127.031 135.2643 119.5173 144.3971 109.6659 153.5298 100.6509 162.6625 92.7351 171.7953 82.9657 180.928 74.4457 190.0607 64.9284 199.1935 56.5049 208.3262 47.2532 217.4589 38.5704" stroke="rgb(0,0,0)" fill="none" stroke-width="1.25" />
<polyline points="166.6355 340.1553 160.1777 333.1745 153.7199 326.2172 147.2621 319.2461 140.8043 312.2688 134.3465 305.2828 127.8886 298.2872 121.4308 291.2854 114.973 284.2902 108.5152 277.2216 102.0574 270.1915 95.5995 263.1781 89.1417 256.1654 82.6839 249.511 76.2261 242.5363 69.7683 235.5555 63.3105 228.6372 56.8526 221.6552 50.3948 214.6348 43.937 207.6453 37.4792 200.8052" stroke="rgb(0,0,0)" fill="none" stroke-width="1.25" />
<polyline points="175.7683 340.156 169.3105 332.7888 162.8526 325.3258 156.3948 317.8312 149.937 310.3411 143.4792 302.8467 137.0214 295.3656 130.5636 287.9008 124.1057 280.35 117.6479 272.8656 111.1901 265.3433 104.7323 257.8267 98.2745 250.2302 91.8166 243.5636 85.3588 236.0387 78.901 228.6192 72.4432 221.2338 65.9854 213.7749 59.5276 206.3465 53.0697 198.8946 46.6119 191.521" stroke="rgb(0,0,0)" fill="none" stroke-width="1.25" />
<polyline points="184.901 340.1562 178.4432 332.4205 171.9854 324.4341 165.5276 316.4999 159.0697 308.5083 152.6119 300.5173 146.1541 292.5429 139.6963 284.5813 133.2385 276.5183 126.7807 268.5437 120.3228 260.5324 113.865 252.4924 107.4072 244.3982 100.9494 237.5404 94.4916 229.5828 88.0337 221.6758 81.5759 213.8088 75.1181 205.9329 68.6603 197.6834 62.2025 190.1979 55.7447 182.2136" stroke="rgb(0,0,0)" fill="none" stroke-width="1.25" />
<polyline points="194.0337 340.1564 187.5759 332.0843 181.1181 323.5705 174.6603 315.1837 168.2025 306.725 161.7447 298.2452 155.2868 289.783 148.829 281.2913 142.3712 272.8119 135.9134 264.269 129.4556 255.7394 122.9978 247.1529 116.5399 238.4771 110.0821 231.4534 103.6243 223.121 97.1665 214.696 90.7087 206.3122 84.2508 197.9935 77.793 189.6754 71.3352 181.312 64.8774 173.0418" stroke="rgb(0,0,0)" fill="none" stroke-width="1.25" />
<polyline points="203.1665 340.156 196.7087 331.8448 190.2508 322.9038 183.793 313.9328 177.3352 304.9909 170.8774 296.0574 164.4196 287.0647 157.9618 278.074 151.5039 269.0356 145.0461 260.0082 138.5883 250.9393 132.1305 241.8618 125.6727 232.7498 119.2148 225.415 112.757 216.5707 106.2992 207.5926 99.8414 198.9796 93.3836 190.1356 86.9258 180.6517 80.4679 171.4357 74.0101 163.6631" stroke="rgb(0,0,0)" fill="none" stroke-width="1.25" />
<polyline points="212.2992 340.1562 205.8414 331.6103 199.3836 322.1334 192.9258 312.7293 186.4679 303.2721 180.0101 293.7676 173.5523 284.3594 167.0945 274.8843 160.6367 265.3014 154.1789 255.7889 147.721 246.2188 141.2632 236.5523 134.8054 226.8959 128.3476 219.4296 121.8898 210.0901 115.4319 200.8583 108.9741 191.5403 102.5163 182.194 96.0585 172.9221 89.6007 163.6294 83.1429 154.0575" stroke="rgb(0,0,0)" fill="none" stroke-width="1.25" />
<polyline points="221.4319 340.1564 214.9741 331.4395 208.5163 321.4574 202.0585 311.5308 195.6007 301.5987 189.1429 291.6574 182.685 281.659 176.2272 271.7161 169.7694 261.6001 163.3116 251.616 156.8538 241.4479 150.396 231.3445 143.9381 221.1107 137.4803 213.3998 131.0225 203.5976 124.5647 193.8067 118.1069 184.0755 111.649 174.1637 105.1912 164.5878 98.7334 154.7857 92.2756 144.7769" stroke="rgb(0,0,0)" fill="none" stroke-width="1.25" />
<polyline points="230.5647 340.1564 224.1069 331.2998 217.649 320.7733 211.1912 310.3924 204.7334 299.99 198.2756 289.5176 191.8178 278.9874 185.36 268.4576 178.9021 257.9644 172.4443 247.3778 165.9865 236.7504 159.5287 226.095 153.0709 215.3305 146.613 207.379 140.1552 197.1324 133.6974 186.8631 127.2396 176.648 120.7818 166.1682 114.324 156.1177 107.8661 145.9391 101.4083 135.5881" stroke="rgb(0,0,0)" fill="none" stroke-width="1.25" />
<polyline points="239.6974 340.1562 233.2396 331.3135 226.7818 320.2399 220.324 309.2989 213.8661 298.3759 207.4083 287.3815 200.9505 276.4296 194.4927 265.4168 188.0349 254.3323 181.5771 243.3105 175.1192 232.1232 168.6614 220.8285 162.2036 209.6891 155.7458 201.2895 149.288 190.5639 142.8301 179.9439 136.3723 169.0604 129.9145 158.5779 123.4567 147.7739 116.9989 136.9919 110.5411 125.1068" stroke="rgb(0,0,0)" fill="none" stroke-width="1.25" />
<polyline points="248.8301 340.1564 242.3723 331.3655 235.9145 319.8156 229.4567 308.3523 222.9989 296.8755 216.5411 285.4031 210.0832 273.9247 203.6254 262.4139 197.1676 250.7473 190.7098 238.9573 184.252 227.49 177.7942 215.6869 171.3363 203.9425 164.8785 195.4302 158.4207 184.1737 151.9629 172.991 145.5051 161.6461 139.0472 150.6533 132.5894 139.4585 126.1316 127.031 119.6738 116.8684" stroke="rgb(0,0,0)" fill="none" stroke-width="1.25" />
<polyline points="257.9629 340.1562 251.5051 331.339 245.0472 319.2755 238.5894 307.229 232.1316 295.3592 225.6738 283.3726 219.216 271.3593 212.7582 259.3407 206.3003 246.4233 199.8425 235.0774 193.3847 222.9181 186.9269 210.6797 180.4691 198.4322 174.0112 189.3089 167.5534 177.7545 161.0956 166.1665 154.6378 154.4356 148.18 142.6863 141.7222 131.1645 135.2643 119.5173 128.8065 106.7338" stroke="rgb(0,0,0)" fill="none" stroke-width="1.25" />
<polyline points="267.0956 340.1562 260.6378 331.3226 254.18 318.8361 247.7222 306.3541 241.2643 293.7763 234.8065 281.4136 228.3487 268.8688 221.8909 256.4013 215.4331 243.7597 208.9753 231.1079 202.5174 218.3549 196.0596 205.5116 189.6018 192.626 183.144 183.5774 176.6862 171.4051 170.2283 158.949 163.7705 147.0587 157.3127 134.9349 150.8549 122.8216 144.3971 109.6659 137.9393 98.4389" stroke="rgb(0,0,0)" fill="none" stroke-width="1.25" />
<polyline points="276.2283 340.1564 269.7705 331.329 263.3127 318.4825 256.8549 305.4845 250.3971 292.5262 243.9393 279.5149 237.4814 266.4932 231.0236 253.3632 224.5658 240.2173 218.108 226.0507 211.6502 213.2586 205.1924 200.4932 198.7345 187.07 192.2767 177.7136 185.8189 164.8224 179.3611 152.3863 172.9033 139.7142 166.4454 127.005 159.9876 114.435 153.5298 100.6509 147.072 89.0483" stroke="rgb(0,0,0)" fill="none" stroke-width="1.25" />
<polyline points="285.3611 340.1564 278.9033 331.3564 272.4454 318.1801 265.9876 304.6905 259.5298 291.2124 253.072 277.6642 246.6142 264.0776 240.1564 250.549 233.6985 235.6043 227.2407 223.1142 220.7829 209.3392 214.3251 195.4583 207.8673 181.607 201.4094 171.7534 194.9516 158.7299 188.4938 144.5568 182.036 131.8141 175.5782 119.1401 169.1204 104.9958 162.6625 92.7351 156.2047 78.8567" stroke="rgb(0,0,0)" fill="none" stroke-width="1.25" />
<polyline points="294.4938 340.1564 288.036 331.3547 281.5782 317.8797 275.1204 304.03 268.6625 289.8534 262.2047 275.7475 255.7469 261.6713 249.2891 247.6253 242.8313 233.437 236.3735 218.0976 229.9156 204.9684 223.4578 190.3522 217 176.1493 210.5422 165.5133 204.0844 151.8285 197.6265 138.3266 191.1687 124.9255 184.7109 111.1446 178.2531 96.6627 171.7953 82.9657 165.3375 69.1541" stroke="rgb(0,0,0)" fill="none" stroke-width="1.25" />
<polyline points="303.6265 340.1564 297.1687 331.3557 290.7109 317.7681 284.2531 303.2434 277.7953 288.497 271.3375 274.0219 264.8796 259.4531 258.4218 244.6873 251.964 229.0425 245.5062 215.0976 239.0484 200.4089 232.5906 185.1898 226.1327 170.4236 219.6749 160.025 213.2171 145.8183 206.7593 131.5768 200.3015 116.4451 193.8436 103.5578 187.3858 89.1626 180.928 74.4457 174.4702 60.276" stroke="rgb(0,0,0)" fill="none" stroke-width="1.25" />
<polyline points="312.7593 340.1563 306.3015 331.325 299.8436 317.702 293.3858 302.5085 286.928 287.3585 280.4702 272.4232 274.0124 257.182 267.5546 241.8078 261.0967 226.8472 254.6389 210.2329 248.1811 195.3064 241.7233 180.3882 235.2655 164.6262 228.8076 152.9013 222.3498 139.1915 215.892 123.2056 209.4342 109.0488 202.9764 94.8916 196.5186 81.009 190.0607 64.9284 183.6029 50.7995" stroke="rgb(0,0,0)" fill="none" stroke-width="1.25" />
<polyline points="321.892 340.1564 315.4342 331.36 308.9764 317.6638 302.5186 301.7755 296.0607 286.294 289.6029 270.2214 283.1451 254.9505 276.6873 239.2747 270.2295 222.3517 263.7717 207.7445 257.3138 191.3274 250.856 175.3256 244.3982 159.5871 237.9404 147.1167 231.4826 131.87 225.0247 116.6974 218.5669 102.6954 212.1091 86.3711 205.6513 71.3946 199.1935 56.5049 192.7357 41.3306" stroke="rgb(0,0,0)" fill="none" stroke-width="1.25" />
<polyline points="331.0247 340.1564 324.5669 331.3644 318.1091 317.7009 311.6513 301.2712 305.1935 285.1159 298.7357 268.9465 292.2778 252.7472 285.82 235.3799 279.3622 218.97 272.9044 203.7387 266.4466 186.2632 259.9888 170.0792 253.5309 152.9797 247.0731 141.1924 240.6153 125.4603 234.1575 109.7815 227.6997 93.5378 221.2418 78.3447 214.784 61.6173 208.3262 47.2532 201.8684 31.7241" stroke="rgb(0,0,0)" fill="none" stroke-width="1.25" />
<polygon points="157.5028 340.1542 166.6355 340.1553 175.7683 340.156 184.901 340.1562 194.0337 340.1564 203.1665 340.156 212.2992 340.1562 221.4319 340.1564 230.5647 340.1564 239.6974 340.1562 248.8301 340.1564 257.9629 340.1562 267.0956 340.1562 276.2283 340.1564 285.3611 340.1564 294.4938 340.1564 303.6265 340.1564 312.7593 340.1563 321.892 340.1564 331.0247 340.1564 340.1575 340.1563 340.1575 340.1563 333.6997 331.3642 327.2418 317.8952 320.784 300.7797 314.3262 284.4231 307.8684 267.3653 301.4106 250.8757 294.9528 233.7775 288.4949 217.0781 282.0371 198.8345 275.5793 181.908 269.1215 164.7742 262.6637 147.391 256.2058 135.0379 249.748 119.0697 243.2902 102.7248 236.8324 86.4033 230.3746 70.6698 223.9168 54.4792 217.4589 38.5704 211.0011 22.0586 211.0011 22.0586 201.8684 31.7241 192.7357 41.3306 183.6029 50.7995 174.4702 60.276 165.3375 69.1541 156.2047 78.8567 147.072 89.0483 137.9393 98.4389 128.8065 106.7338 119.6738 116.8684 110.5411 125.1068 101.4083 135.5881 92.2756 144.7769 83.1429 154.0575 74.0101 163.6631 64.8774 173.0418 55.7447 182.2136 46.6119 191.521 37.4792 200.8052 28.3465 210.1134 28.3465 210.1134 34.8043 216.6279 41.2621 223.107 47.7199 229.6277 54.1777 236.0844 60.6355 242.6126 67.0934 249.1803 73.5512 255.6601 80.009 262.1888 86.4668 268.6816 92.9246 275.1802 99.3825 281.6757 105.8403 288.1631 112.2981 294.6821 118.7559 301.1618 125.2137 307.6901 131.6715 314.1754 138.1294 320.6854 144.5872 327.1841 151.045 333.671 157.5028 340.1542" stroke="rgb(0,0,0)" fill="none" stroke-width="1.25" />
<polygon points="157.5028 340.1575 340.1575 340.1575 340.1575 157.5028 211.0011 28.3465 28.3465 28.3465 28.3465 211.0011" stroke="rgb(0,0,0)" fill="none" stroke-width="0.25" />
<polyline points="157.5028 340.1575 157.5028 157.5028 340.1575 157.5028" stroke="rgb(0,0,0)" fill="none" stroke-width="0.25" />
<line x1="28.3465" y1="28.3465" x2="157.5028" y2="157.5028" stroke="rgb(0,0,0)" fill="none" stroke-width="0.25" />
<polyline points="28.3465 211.0011 211.0011 211.0011 211.0011 28.3465" stroke="rgb(0,0,0)" fill="none" stroke-width="0.25" />
<line x1="211.0011" y1="211.0011" x2="340.1575" y2="340.1575" stroke="rgb(0,0,0)" fill="none" stroke-width="0.25" />
<path d="M235.2101,357.0207 L236.5901,361.0407 L237.8301,357.0207 L239.4601,357.0207 L240.6901,361.0407 L242.0801,357.0207 L243.7701,357.0207 L241.3301,364.0107 L240.1701,364.0107 L238.6401,359.1507 L237.1201,364.0107 L235.9601,364.0107 L233.5201,357.0207 L235.2101,357.0207 z" fill="rgb(0,0,0)" />
<path d="M245.9501,358.6307 L245.9501,364.0107 L244.4501,364.0107 L244.4501,358.6307 L245.9501,358.6307 z M245.2001,358.2007 Q244.8301,358.2007,244.5751,357.9457 Q244.3201,357.6907,244.3201,357.3207 Q244.3201,356.9507,244.5751,356.6957 Q244.8301,356.4407,245.2001,356.4407 Q245.5701,356.4407,245.8251,356.6957 Q246.0801,356.9507,246.0801,357.3207 Q246.0801,357.6907,245.8251,357.9457 Q245.5701,358.2007,245.2001,358.2007 z" fill="rgb(0,0,0)" />
<path d="M251.1101,363.3007 Q250.4801,364.0907,249.5251,364.0907 Q248.5701,364.0907,247.8201,363.2807 Q247.0701,362.4707,247.0701,361.2707 Q247.0701,360.0707,247.8001,359.3057 Q248.5301,358.5407,249.5101,358.5407 Q250.4901,358.5407,251.1101,359.2307 L251.1101,356.5907 L252.6101,356.5907 L252.6101,364.0107 L251.1101,364.0107 L251.1101,363.3007 z M248.9601,360.2407 Q248.5801,360.6807,248.5801,361.3307 Q248.5801,361.9807,248.9701,362.3957 Q249.3601,362.8107,249.8801,362.8107 Q250.4001,362.8107,250.7651,362.3957 Q251.1301,361.9807,251.1301,361.3257 Q251.1301,360.6707,250.7651,360.2357 Q250.4001,359.8007,249.8701,359.8007 Q249.3401,359.8007,248.9601,360.2407 z" fill="rgb(0,0,0)" />
<path d="M257.1201,359.7107 L255.8201,359.7107 L255.8201,362.1207 Q255.8201,362.4307,255.9801,362.6057 Q256.1401,362.7807,256.3601,362.7807 Q256.7801,362.7807,257.0701,362.4007 L257.6301,363.4507 Q256.9301,364.0907,256.1551,364.0907 Q255.3801,364.0907,254.8451,363.5807 Q254.3101,363.0707,254.3101,362.1907 L254.3101,359.7107 L253.6801,359.7107 L253.6801,358.6307 L254.3101,358.6307 L254.3101,357.0207 L255.8201,357.0207 L255.8201,358.6307 L257.1201,358.6307 L257.1201,359.7107 z" fill="rgb(0,0,0)" />
<path d="M260.2651,360.1557 Q259.9301,360.4807,259.9301,361.1107 L259.9301,364.0107 L258.4301,364.0107 L258.4301,356.5907 L259.9301,356.5907 L259.9301,359.2307 Q260.6101,358.5407,261.4551,358.5407 Q262.3001,358.5407,262.8801,359.1407 Q263.4601,359.7407,263.4601,360.7407 L263.4601,364.0107 L261.9601,364.0107 L261.9601,361.0707 Q261.9601,359.8307,261.0501,359.8307 Q260.6001,359.8307,260.2651,360.1557 z" fill="rgb(0,0,0)" />
<path d="M233.8401,370.0707 L233.8401,369.0207 L236.3801,369.0207 L236.3801,376.0107 L235.2601,376.0107 L235.2601,370.0707 L233.8401,370.0707 z" fill="rgb(0,0,0)" />
<path d="M244.6601,373.7507 L240.9201,373.7507 L240.9201,373.0807 L244.6601,373.0807 L244.6601,373.7507 z" fill="rgb(0,0,0)" />
<path d="M249.0601,369.0107 L253.0801,369.0107 L253.0801,370.0807 L250.1301,370.0807 L250.1301,371.8007 Q250.5701,371.5607,251.1301,371.5607 Q252.1101,371.5607,252.8201,372.1507 Q253.5301,372.7407,253.5301,373.7507 Q253.5301,374.7607,252.7901,375.4257 Q252.0501,376.0907,250.9701,376.0907 Q249.5601,376.0907,248.7201,375.1507 L249.3501,374.2907 Q249.4301,374.3707,249.5651,374.4807 Q249.7001,374.5907,250.1201,374.7757 Q250.5401,374.9607,251.0401,374.9607 Q251.5401,374.9607,251.9501,374.6607 Q252.3601,374.3607,252.3601,373.7857 Q252.3601,373.2107,251.9251,372.8957 Q251.4901,372.5807,250.8251,372.5807 Q250.1601,372.5807,249.5601,372.9107 L249.0601,372.3707 L249.0601,369.0107 z" fill="rgb(0,0,0)" />
<path d="M260.1901,369.8607 Q259.3101,369.8607,258.8951,370.5807 Q258.4801,371.3007,258.4801,372.4707 Q258.4801,373.6407,258.8951,374.3607 Q259.3101,375.0807,260.1901,375.0807 Q261.0701,375.0807,261.4751,374.3657 Q261.8801,373.6507,261.8801,372.4707 Q261.8801,371.2907,261.4751,370.5757 Q261.0701,369.8607,260.1901,369.8607 z M260.1901,376.0907 Q258.7601,376.0907,258.0501,375.1057 Q257.3401,374.1207,257.3401,372.4707 Q257.3401,370.8207,258.0501,369.8357 Q258.7601,368.8507,260.1901,368.8507 Q261.6201,368.8507,262.3301,369.8357 Q263.0401,370.8207,263.0401,372.4707 Q263.0401,374.1207,262.3301,375.1057 Q261.6201,376.0907,260.1901,376.0907 z" fill="rgb(0,0,0)" />
<path d="M267.0701,369.8607 Q266.1901,369.8607,265.7751,370.5807 Q265.3601,371.3007,265.3601,372.4707 Q265.3601,373.6407,265.7751,374.3607 Q266.1901,375.0807,267.0701,375.0807 Q267.9501,375.0807,268.3551,374.3657 Q268.7601,373.6507,268.7601,372.4707 Q268.7601,371.2907,268.3551,370.5757 Q267.9501,369.8607,267.0701,369.8607 z M267.0701,376.0907 Q265.6401,376.0907,264.9301,375.1057 Q264.2201,374.1207,264.2201,372.4707 Q264.2201,370.8207,264.9301,369.8357 Q265.6401,368.8507,267.0701,368.8507 Q268.5001,368.8507,269.2101,369.8357 Q269.9201,370.8207,269.9201,372.4707 Q269.9201,374.1207,269.2101,375.1057 Q268.5001,376.0907,267.0701,376.0907 z" fill="rgb(0,0,0)" />
<path d="M273.9501,369.8607 Q273.0701,369.8607,272.6551,370.5807 Q272.2401,371.3007,272.2401,372.4707 Q272.2401,373.6407,272.6551,374.3607 Q273.0701,375.0807,273.9501,375.0807 Q274.8301,375.0807,275.2351,374.3657 Q275.6401,373.6507,275.6401,372.4707 Q275.6401,371.2907,275.2351,370.5757 Q274.8301,369.8607,273.9501,369.8607 z M273.9501,376.0907 Q272.5201,376.0907,271.8101,375.1057 Q271.1001,374.1207,271.1001,372.4707 Q271.1001,370.8207,271.8101,369.8357 Q272.5201,368.8507,273.9501,368.8507 Q275.3801,368.8507,276.0901,369.8357 Q276.8001,370.8207,276.8001,372.4707 Q276.8001,374.1207,276.0901,375.1057 Q275.3801,376.0907,273.9501,376.0907 z" fill="rgb(0,0,0)" />
<path d="M285.5401,375.1107 Q284.5701,376.0907,283.3001,376.0907 Q282.1901,376.0907,281.3901,375.3357 Q280.5901,374.5807,280.5901,373.3607 Q280.5901,372.1407,281.4251,371.3757 Q282.2601,370.6107,283.4601,370.6107 Q284.6601,370.6107,285.4901,371.4407 L284.8301,372.2507 Q284.1401,371.6507,283.4401,371.6507 Q282.7401,371.6507,282.2251,372.1157 Q281.7101,372.5807,281.7101,373.3157 Q281.7101,374.0507,282.2201,374.5607 Q282.7301,375.0707,283.4751,375.0707 Q284.2201,375.0707,284.8801,374.3907 L285.5401,375.1107 z" fill="rgb(0,0,0)" />
<path d="M288.2501,372.0057 Q287.8201,372.3907,287.8201,373.1307 L287.8201,376.0107 L286.7001,376.0107 L286.7001,368.6007 L287.8201,368.6007 L287.8201,371.6607 Q288.0601,371.1707,288.5451,370.8907 Q289.0301,370.6107,289.5901,370.6107 Q290.4901,370.6107,291.0451,371.1607 Q291.6001,371.7107,291.6001,372.7507 L291.6001,376.0107 L290.4801,376.0107 L290.4801,373.0907 Q290.4801,371.6207,289.2601,371.6207 Q288.6801,371.6207,288.2501,372.0057 z" fill="rgb(0,0,0)" />
<path d="M297.4701,372.5807 L297.4701,376.0107 L296.4501,376.0107 L296.4501,375.3007 Q295.7901,376.0907,294.6801,376.0907 Q293.8501,376.0907,293.3051,375.6207 Q292.7601,375.1507,292.7601,374.3657 Q292.7601,373.5807,293.3401,373.1907 Q293.9201,372.8007,294.9101,372.8007 L296.3601,372.8007 L296.3601,372.6007 Q296.3601,371.5407,295.1801,371.5407 Q294.4401,371.5407,293.6401,372.0807 L293.1401,371.3807 Q294.1101,370.6107,295.3401,370.6107 Q296.2801,370.6107,296.8751,371.0857 Q297.4701,371.5607,297.4701,372.5807 z M295.9501,374.8407 Q296.3501,374.5407,296.3501,374.0307 L296.3501,373.5807 L295.0901,373.5807 Q293.8801,373.5807,293.8801,374.3407 Q293.8801,374.7307,294.1801,374.9357 Q294.4801,375.1407,295.0151,375.1407 Q295.5501,375.1407,295.9501,374.8407 z" fill="rgb(0,0,0)" />
<path d="M301.8801,371.7407 Q301.8501,371.7407,301.8201,371.7407 Q300.9901,371.7407,300.5701,372.2807 Q300.1501,372.8207,300.1501,373.7307 L300.1501,376.0107 L299.0301,376.0107 L299.0301,370.6907 L300.1501,370.6907 L300.1501,371.7607 Q300.4201,371.2607,300.8851,370.9407 Q301.3501,370.6207,301.8701,370.6107 L301.8801,371.7407 z" fill="rgb(0,0,0)" />
<path d="M307.3101,372.5807 L307.3101,376.0107 L306.2901,376.0107 L306.2901,375.3007 Q305.6301,376.0907,304.5201,376.0907 Q303.6901,376.0907,303.1451,375.6207 Q302.6001,375.1507,302.6001,374.3657 Q302.6001,373.5807,303.1801,373.1907 Q303.7601,372.8007,304.7501,372.8007 L306.2001,372.8007 L306.2001,372.6007 Q306.2001,371.5407,305.0201,371.5407 Q304.2801,371.5407,303.4801,372.0807 L302.9801,371.3807 Q303.9501,370.6107,305.1801,370.6107 Q306.1201,370.6107,306.7151,371.0857 Q307.3101,371.5607,307.3101,372.5807 z M305.7901,374.8407 Q306.1901,374.5407,306.1901,374.0307 L306.1901,373.5807 L304.9301,373.5807 Q303.7201,373.5807,303.7201,374.3407 Q303.7201,374.7307,304.0201,374.9357 Q304.3201,375.1407,304.8551,375.1407 Q305.3901,375.1407,305.7901,374.8407 z" fill="rgb(0,0,0)" />
<path d="M313.4701,375.1107 Q312.5001,376.0907,311.2301,376.0907 Q310.1201,376.0907,309.3201,375.3357 Q308.5201,374.5807,308.5201,373.3607 Q308.5201,372.1407,309.3551,371.3757 Q310.1901,370.6107,311.3901,370.6107 Q312.5901,370.6107,313.4201,371.4407 L312.7601,372.2507 Q312.0701,371.6507,311.3701,371.6507 Q310.6701,371.6507,310.1551,372.1157 Q309.6401,372.5807,309.6401,373.3157 Q309.6401,374.0507,310.1501,374.5607 Q310.6601,375.0707,311.4051,375.0707 Q312.1501,375.0707,312.8101,374.3907 L313.4701,375.1107 z" fill="rgb(0,0,0)" />
<path d="M317.4101,371.5907 L316.0101,371.5907 L316.0101,374.2907 Q316.0101,374.6707,316.2101,374.8957 Q316.4101,375.1207,316.7701,375.1207 Q317.1301,375.1207,317.4601,374.7707 L317.9201,375.5607 Q317.3301,376.0907,316.6151,376.0907 Q315.9001,376.0907,315.3951,375.5957 Q314.8901,375.1007,314.8901,374.2607 L314.8901,371.5907 L314.2201,371.5907 L314.2201,370.6907 L314.8901,370.6907 L314.8901,369.0207 L316.0101,369.0207 L316.0101,370.6907 L317.4101,370.6907 L317.4101,371.5907 z" fill="rgb(0,0,0)" />
<path d="M323.7601,373.0707 L323.7601,373.8407 L319.5901,373.8407 Q319.6301,374.4207,320.1201,374.7757 Q320.6101,375.1307,321.2401,375.1307 Q322.2401,375.1307,322.7601,374.5007 L323.4001,375.2007 Q322.5401,376.0907,321.1601,376.0907 Q320.0401,376.0907,319.2551,375.3457 Q318.4701,374.6007,318.4701,373.3457 Q318.4701,372.0907,319.2701,371.3507 Q320.0701,370.6107,321.1551,370.6107 Q322.2401,370.6107,323.0001,371.2657 Q323.7601,371.9207,323.7601,373.0707 z M320.0801,371.9457 Q319.5901,372.3207,319.5901,372.9607 L322.6401,372.9607 Q322.6401,372.2907,322.2201,371.9307 Q321.8001,371.5707,321.1851,371.5707 Q320.5701,371.5707,320.0801,371.9457 z" fill="rgb(0,0,0)" />
<path d="M327.8401,371.7407 Q327.8101,371.7407,327.7801,371.7407 Q326.9501,371.7407,326.5301,372.2807 Q326.1101,372.8207,326.1101,373.7307 L326.1101,376.0107 L324.9901,376.0107 L324.9901,370.6907 L326.1101,370.6907 L326.1101,371.7607 Q326.3801,371.2607,326.8451,370.9407 Q327.3101,370.6207,327.8301,370.6107 L327.8401,371.7407 z" fill="rgb(0,0,0)" />
<path d="M332.2101,373.3007 Q332.7501,373.6607,332.7501,374.4207 Q332.7501,375.1807,332.2001,375.6357 Q331.6501,376.0907,330.7901,376.0907 Q330.2101,376.0907,329.5851,375.8807 Q328.9601,375.6707,328.4801,375.2907 L329.0201,374.4207 Q329.9501,375.1207,330.8201,375.1207 Q331.2001,375.1207,331.4201,374.9457 Q331.6401,374.7707,331.6401,374.5007 Q331.6401,374.1007,330.5801,373.7807 Q330.5001,373.7507,330.4601,373.7407 Q328.8001,373.2907,328.8001,372.2407 Q328.8001,371.5007,329.3751,371.0557 Q329.9501,370.6107,330.8701,370.6107 Q331.7901,370.6107,332.6101,371.1507 L332.1901,371.9807 Q331.5401,371.5507,330.7801,371.5507 Q330.3801,371.5507,330.1301,371.6957 Q329.8801,371.8407,329.8801,372.1307 Q329.8801,372.3907,330.1401,372.5107 Q330.3201,372.6007,330.6451,372.6807 Q330.9701,372.7607,331.2201,372.8407 Q331.4701,372.9207,331.7051,373.0207 Q331.9401,373.1207,332.2101,373.3007 z" fill="rgb(0,0,0)" />
<path d="M292.3925,76.7814 Q292.9825,77.3714,293.8225,77.3714 Q294.9725,77.3714,295.7025,76.4614 L296.7025,77.4914 Q295.5125,78.8314,293.8975,78.8314 Q292.2825,78.8314,291.2375,77.8114 Q290.1925,76.7914,290.1925,75.2364 Q290.1925,73.6814,291.2575,72.6414 Q292.3225,71.6014,293.8625,71.6014 Q295.5825,71.6014,296.7425,72.9114 L295.7725,74.0114 Q295.0325,73.0914,293.9325,73.0914 Q293.0525,73.0914,292.4275,73.6664 Q291.8025,74.2414,291.8025,75.2164 Q291.8025,76.1914,292.3925,76.7814 z" fill="rgb(0,0,0)" />
<path d="M299.3575,74.9814 Q298.9825,75.4014,298.9825,76.0614 Q298.9825,76.7214,299.3575,77.1364 Q299.7325,77.5514,300.3175,77.5514 Q300.9025,77.5514,301.2775,77.1364 Q301.6525,76.7214,301.6525,76.0614 Q301.6525,75.4014,301.2775,74.9814 Q300.9025,74.5614,300.3175,74.5614 Q299.7325,74.5614,299.3575,74.9814 z M302.3525,74.0864 Q303.1625,74.8914,303.1625,76.0614 Q303.1625,77.2314,302.3525,78.0314 Q301.5425,78.8314,300.3175,78.8314 Q299.0925,78.8314,298.2825,78.0314 Q297.4725,77.2314,297.4725,76.0614 Q297.4725,74.8914,298.2825,74.0864 Q299.0925,73.2814,300.3175,73.2814 Q301.5425,73.2814,302.3525,74.0864 z" fill="rgb(0,0,0)" />
<path d="M307.4125,77.2164 Q307.7425,76.8914,307.7425,76.2714 L307.7425,73.3714 L309.2525,73.3714 L309.2525,78.7514 L307.7425,78.7514 L307.7425,78.0414 Q307.1825,78.8314,306.2975,78.8314 Q305.4125,78.8314,304.8125,78.2764 Q304.2125,77.7214,304.2125,76.6314 L304.2125,73.3714 L305.7225,73.3714 L305.7225,76.3014 Q305.7225,77.5414,306.6325,77.5414 Q307.0825,77.5414,307.4125,77.2164 z" fill="rgb(0,0,0)" />
<path d="M312.5075,74.7964 Q312.1725,75.1214,312.1725,75.7514 L312.1725,78.7514 L310.6725,78.7514 L310.6725,73.3714 L312.1725,73.3714 L312.1725,73.9714 Q312.8525,73.2814,313.7025,73.2814 Q314.5525,73.2814,315.1275,73.8814 Q315.7025,74.4814,315.7025,75.4814 L315.7025,78.7514 L314.2025,78.7514 L314.2025,75.7114 Q314.2025,74.4714,313.2925,74.4714 Q312.8425,74.4714,312.5075,74.7964 z" fill="rgb(0,0,0)" />
<path d="M320.1525,74.4514 L318.8525,74.4514 L318.8525,76.8614 Q318.8525,77.1714,319.0125,77.3464 Q319.1725,77.5214,319.3925,77.5214 Q319.8125,77.5214,320.1025,77.1414 L320.6625,78.1914 Q319.9625,78.8314,319.1875,78.8314 Q318.4125,78.8314,317.8775,78.3214 Q317.3425,77.8114,317.3425,76.9314 L317.3425,74.4514 L316.7125,74.4514 L316.7125,73.3714 L317.3425,73.3714 L317.3425,71.7614 L318.8525,71.7614 L318.8525,73.3714 L320.1525,73.3714 L320.1525,74.4514 z" fill="rgb(0,0,0)" />
<path d="M290.0425,84.8114 L290.0425,83.7614 L292.5825,83.7614 L292.5825,90.7514 L291.4625,90.7514 L291.4625,84.8114 L290.0425,84.8114 z" fill="rgb(0,0,0)" />
<path d="M300.8625,88.4914 L297.1225,88.4914 L297.1225,87.8214 L300.8625,87.8214 L300.8625,88.4914 z" fill="rgb(0,0,0)" />
<path d="M307.1225,87.6214 Q307.8325,86.9014,308.1325,86.4914 Q308.4325,86.0814,308.4325,85.6614 Q308.4325,85.2414,308.1125,84.9464 Q307.7925,84.6514,307.3025,84.6514 Q306.4425,84.6514,305.8725,85.5314 L304.9225,84.9814 Q305.3825,84.2914,305.9375,83.9414 Q306.4925,83.5914,307.3675,83.5914 Q308.2425,83.5914,308.9025,84.1464 Q309.5625,84.7014,309.5625,85.6614 Q309.5625,86.2014,309.2825,86.6914 Q309.0025,87.1814,308.2525,87.9514 L306.6125,89.6214 L309.7825,89.6214 L309.7825,90.7514 L305.0025,90.7514 L305.0025,89.7514 L307.1225,87.6214 z" fill="rgb(0,0,0)" />
<path d="M311.1525,83.7514 L315.1725,83.7514 L315.1725,84.8214 L312.2225,84.8214 L312.2225,86.5414 Q312.6625,86.3014,313.2225,86.3014 Q314.2025,86.3014,314.9125,86.8914 Q315.6225,87.4814,315.6225,88.4914 Q315.6225,89.5014,314.8825,90.1664 Q314.1425,90.8314,313.0625,90.8314 Q311.6525,90.8314,310.8125,89.8914 L311.4425,89.0314 Q311.5225,89.1114,311.6575,89.2214 Q311.7925,89.3314,312.2125,89.5164 Q312.6325,89.7014,313.1325,89.7014 Q313.6325,89.7014,314.0425,89.4014 Q314.4525,89.1014,314.4525,88.5264 Q314.4525,87.9514,314.0175,87.6364 Q313.5825,87.3214,312.9175,87.3214 Q312.2525,87.3214,311.6525,87.6514 L311.1525,87.1114 L311.1525,83.7514 z" fill="rgb(0,0,0)" />
<path d="M322.2825,84.6014 Q321.4025,84.6014,320.9875,85.3214 Q320.5725,86.0414,320.5725,87.2114 Q320.5725,88.3814,320.9875,89.1014 Q321.4025,89.8214,322.2825,89.8214 Q323.1625,89.8214,323.5675,89.1064 Q323.9725,88.3914,323.9725,87.2114 Q323.9725,86.0314,323.5675,85.3164 Q323.1625,84.6014,322.2825,84.6014 z M322.2825,90.8314 Q320.8525,90.8314,320.1425,89.8464 Q319.4325,88.8614,319.4325,87.2114 Q319.4325,85.5614,320.1425,84.5764 Q320.8525,83.5914,322.2825,83.5914 Q323.7125,83.5914,324.4225,84.5764 Q325.1325,85.5614,325.1325,87.2114 Q325.1325,88.8614,324.4225,89.8464 Q323.7125,90.8314,322.2825,90.8314 z" fill="rgb(0,0,0)" />
<path d="M329.1625,84.6014 Q328.2825,84.6014,327.8675,85.3214 Q327.4525,86.0414,327.4525,87.2114 Q327.4525,88.3814,327.8675,89.1014 Q328.2825,89.8214,329.1625,89.8214 Q330.0425,89.8214,330.4475,89.1064 Q330.8525,88.3914,330.8525,87.2114 Q330.8525,86.0314,330.4475,85.3164 Q330.0425,84.6014,329.1625,84.6014 z M329.1625,90.8314 Q327.7325,90.8314,327.0225,89.8464 Q326.3125,88.8614,326.3125,87.2114 Q326.3125,85.5614,327.0225,84.5764 Q327.7325,83.5914,329.1625,83.5914 Q330.5925,83.5914,331.3025,84.5764 Q332.0125,85.5614,332.0125,87.2114 Q332.0125,88.8614,331.3025,89.8464 Q330.5925,90.8314,329.1625,90.8314 z" fill="rgb(0,0,0)" />
<path d="M336.0425,84.6014 Q335.1625,84.6014,334.7475,85.3214 Q334.3325,86.0414,334.3325,87.2114 Q334.3325,88.3814,334.7475,89.1014 Q335.1625,89.8214,336.0425,89.8214 Q336.9225,89.8214,337.3275,89.1064 Q337.7325,88.3914,337.7325,87.2114 Q337.7325,86.0314,337.3275,85.3164 Q336.9225,84.6014,336.0425,84.6014 z M336.0425,90.8314 Q334.6125,90.8314,333.9025,89.8464 Q333.1925,88.8614,333.1925,87.2114 Q333.1925,85.5614,333.9025,84.5764 Q334.6125,83.5914,336.0425,83.5914 Q337.4725,83.5914,338.1825,84.5764 Q338.8925,85.5614,338.8925,87.2114 Q338.8925,88.8614,338.1825,89.8464 Q337.4725,90.8314,336.0425,90.8314 z" fill="rgb(0,0,0)" />
<path d="M346.7825,87.1114 L345.5225,90.7514 L344.2425,90.7514 L342.4025,85.4314 L343.5625,85.4314 L344.8825,89.4514 L346.2025,85.4314 L347.3625,85.4314 L348.6825,89.4514 L350.0025,85.4314 L351.1625,85.4314 L349.3225,90.7514 L348.0425,90.7514 L346.7825,87.1114 z" fill="rgb(0,0,0)" />
<path d="M352.9225,88.0914 Q352.9225,88.8614,353.3975,89.3464 Q353.8725,89.8314,354.6025,89.8314 Q355.3325,89.8314,355.8075,89.3464 Q356.2825,88.8614,356.2825,88.0914 Q356.2825,87.3214,355.8075,86.8364 Q355.3325,86.3514,354.6025,86.3514 Q353.8725,86.3514,353.3975,86.8364 Q352.9225,87.3214,352.9225,88.0914 z M357.4025,88.0914 Q357.4025,89.2414,356.6025,90.0364 Q355.8025,90.8314,354.6025,90.8314 Q353.4025,90.8314,352.6025,90.0364 Q351.8025,89.2414,351.8025,88.0914 Q351.8025,86.9414,352.6025,86.1464 Q353.4025,85.3514,354.6025,85.3514 Q355.8025,85.3514,356.6025,86.1464 Q357.4025,86.9414,357.4025,88.0914 z" fill="rgb(0,0,0)" />
<path d="M361.5225,86.4814 Q361.4925,86.4814,361.4625,86.4814 Q360.6325,86.4814,360.2125,87.0214 Q359.7925,87.5614,359.7925,88.4714 L359.7925,90.7514 L358.6725,90.7514 L358.6725,85.4314 L359.7925,85.4314 L359.7925,86.5014 Q360.0625,86.0014,360.5275,85.6814 Q360.9925,85.3614,361.5125,85.3514 L361.5225,86.4814 z" fill="rgb(0,0,0)" />
<path d="M364.8125,90.8314 Q363.8025,90.8314,363.0525,90.0714 Q362.3025,89.3114,362.3025,88.0714 Q362.3025,86.8314,363.0725,86.0914 Q363.8425,85.3514,364.9075,85.3514 Q365.9725,85.3514,366.6225,86.2514 L366.6225,83.3314 L367.7425,83.3314 L367.7425,90.7514 L366.6225,90.7514 L366.6225,89.9514 Q366.0025,90.8314,364.8125,90.8314 z M363.9025,86.8414 Q363.4225,87.3514,363.4225,88.1164 Q363.4225,88.8814,363.9125,89.3614 Q364.4025,89.8414,365.0625,89.8414 Q365.7225,89.8414,366.1825,89.3564 Q366.6425,88.8714,366.6425,88.1114 Q366.6425,87.3514,366.1825,86.8414 Q365.7225,86.3314,365.0525,86.3314 Q364.3825,86.3314,363.9025,86.8414 z" fill="rgb(0,0,0)" />
<path d="M372.6125,88.0414 Q373.1525,88.4014,373.1525,89.1614 Q373.1525,89.9214,372.6025,90.3764 Q372.0525,90.8314,371.1925,90.8314 Q370.6125,90.8314,369.9875,90.6214 Q369.3625,90.4114,368.8825,90.0314 L369.4225,89.1614 Q370.3525,89.8614,371.2225,89.8614 Q371.6025,89.8614,371.8225,89.6864 Q372.0425,89.5114,372.0425,89.2414 Q372.0425,88.8414,370.9825,88.5214 Q370.9025,88.4914,370.8625,88.4814 Q369.2025,88.0314,369.2025,86.9814 Q369.2025,86.2414,369.7775,85.7964 Q370.3525,85.3514,371.2725,85.3514 Q372.1925,85.3514,373.0125,85.8914 L372.5925,86.7214 Q371.9425,86.2914,371.1825,86.2914 Q370.7825,86.2914,370.5325,86.4364 Q370.2825,86.5814,370.2825,86.8714 Q370.2825,87.1314,370.5425,87.2514 Q370.7225,87.3414,371.0475,87.4214 Q371.3725,87.5014,371.6225,87.5814 Q371.8725,87.6614,372.1075,87.7614 Q372.3425,87.8614,372.6125,88.0414 z" fill="rgb(0,0,0)" />
<path d="M361.1307,246.8701 L359.1507,246.8701 L359.1507,252.5101 L357.5907,252.5101 L357.5907,246.8701 L355.6107,246.8701 L355.6107,245.5201 L361.1307,245.5201 L361.1307,246.8701 z" fill="rgb(0,0,0)" />
<path d="M363.6207,247.1301 L363.6207,252.5101 L362.1207,252.5101 L362.1207,247.1301 L363.6207,247.1301 z M362.8707,246.7001 Q362.5007,246.7001,362.2457,246.4451 Q361.9907,246.1901,361.9907,245.8201 Q361.9907,245.4501,362.2457,245.1951 Q362.5007,244.9401,362.8707,244.9401 Q363.2407,244.9401,363.4957,245.1951 Q363.7507,245.4501,363.7507,245.8201 Q363.7507,246.1901,363.4957,246.4451 Q363.2407,246.7001,362.8707,246.7001 z" fill="rgb(0,0,0)" />
<path d="M370.3107,248.6551 Q369.9807,248.9801,369.9807,249.6101 L369.9807,252.5101 L368.4707,252.5101 L368.4707,249.5701 Q368.4707,248.9301,368.2757,248.6301 Q368.0807,248.3301,367.6457,248.3301 Q367.2107,248.3301,366.8757,248.6551 Q366.5407,248.9801,366.5407,249.6101 L366.5407,252.5101 L365.0407,252.5101 L365.0407,247.1301 L366.5407,247.1301 L366.5407,247.7401 Q367.1607,247.0401,367.9607,247.0401 Q368.4707,247.0401,368.8857,247.3401 Q369.3007,247.6401,369.5107,248.0701 Q369.8207,247.5801,370.3457,247.3101 Q370.8707,247.0401,371.4007,247.0401 Q372.3507,247.0401,372.9307,247.6051 Q373.5107,248.1701,373.5107,249.2401 L373.5107,252.5101 L372.0007,252.5101 L372.0007,249.5701 Q372.0007,248.3301,371.0907,248.3301 Q370.6407,248.3301,370.3107,248.6551 z" fill="rgb(0,0,0)" />
<path d="M378.6907,250.8201 L379.5307,251.7301 Q378.6207,252.5901,377.3957,252.5901 Q376.1707,252.5901,375.3707,251.8351 Q374.5707,251.0801,374.5707,249.8101 Q374.5707,248.5401,375.3857,247.7901 Q376.2007,247.0401,377.3107,247.0401 Q378.4207,247.0401,379.1957,247.7101 Q379.9707,248.3801,379.9707,249.5501 L379.9707,250.3501 L376.0507,250.3501 Q376.1207,250.7901,376.5107,251.0701 Q376.9007,251.3501,377.3907,251.3501 Q378.1807,251.3501,378.6907,250.8201 z M378.4507,249.2801 Q378.4007,248.8001,378.0907,248.5401 Q377.7807,248.2801,377.3357,248.2801 Q376.8907,248.2801,376.5207,248.5501 Q376.1507,248.8201,376.0907,249.2801 L378.4507,249.2801 z" fill="rgb(0,0,0)" />
<path d="M358.7707,258.3601 Q357.8907,258.3601,357.4757,259.0801 Q357.0607,259.8001,357.0607,260.9701 Q357.0607,262.1401,357.4757,262.8601 Q357.8907,263.5801,358.7707,263.5801 Q359.6507,263.5801,360.0557,262.8651 Q360.4607,262.1501,360.4607,260.9701 Q360.4607,259.7901,360.0557,259.0751 Q359.6507,258.3601,358.7707,258.3601 z M358.7707,264.5901 Q357.3407,264.5901,356.6307,263.6051 Q355.9207,262.6201,355.9207,260.9701 Q355.9207,259.3201,356.6307,258.3351 Q357.3407,257.3501,358.7707,257.3501 Q360.2007,257.3501,360.9107,258.3351 Q361.6207,259.3201,361.6207,260.9701 Q361.6207,262.6201,360.9107,263.6051 Q360.2007,264.5901,358.7707,264.5901 z" fill="rgb(0,0,0)" />
<path d="M363.6107,264.5901 Q363.3007,264.5901,363.0857,264.3701 Q362.8707,264.1501,362.8707,263.8401 Q362.8707,263.5301,363.0857,263.3151 Q363.3007,263.1001,363.6107,263.1001 Q363.9207,263.1001,364.1407,263.3151 Q364.3607,263.5301,364.3607,263.8401 Q364.3607,264.1501,364.1407,264.3701 Q363.9207,264.5901,363.6107,264.5901 z" fill="rgb(0,0,0)" />
<path d="M368.4507,258.3601 Q367.5707,258.3601,367.1557,259.0801 Q366.7407,259.8001,366.7407,260.9701 Q366.7407,262.1401,367.1557,262.8601 Q367.5707,263.5801,368.4507,263.5801 Q369.3307,263.5801,369.7357,262.8651 Q370.1407,262.1501,370.1407,260.9701 Q370.1407,259.7901,369.7357,259.0751 Q369.3307,258.3601,368.4507,258.3601 z M368.4507,264.5901 Q367.0207,264.5901,366.3107,263.6051 Q365.6007,262.6201,365.6007,260.9701 Q365.6007,259.3201,366.3107,258.3351 Q367.0207,257.3501,368.4507,257.3501 Q369.8807,257.3501,370.5907,258.3351 Q371.3007,259.3201,371.3007,260.9701 Q371.3007,262.6201,370.5907,263.6051 Q369.8807,264.5901,368.4507,264.5901 z" fill="rgb(0,0,0)" />
<path d="M379.1907,262.2501 L375.4507,262.2501 L375.4507,261.5801 L379.1907,261.5801 L379.1907,262.2501 z" fill="rgb(0,0,0)" />
<path d="M383.0407,258.5701 L383.0407,257.5201 L385.5807,257.5201 L385.5807,264.5101 L384.4607,264.5101 L384.4607,258.5701 L383.0407,258.5701 z" fill="rgb(0,0,0)" />
<path d="M387.9607,264.5901 Q387.6507,264.5901,387.4357,264.3701 Q387.2207,264.1501,387.2207,263.8401 Q387.2207,263.5301,387.4357,263.3151 Q387.6507,263.1001,387.9607,263.1001 Q388.2707,263.1001,388.4907,263.3151 Q388.7107,263.5301,388.7107,263.8401 Q388.7107,264.1501,388.4907,264.3701 Q388.2707,264.5901,387.9607,264.5901 z" fill="rgb(0,0,0)" />
<path d="M392.8007,258.3601 Q391.9207,258.3601,391.5057,259.0801 Q391.0907,259.8001,391.0907,260.9701 Q391.0907,262.1401,391.5057,262.8601 Q391.9207,263.5801,392.8007,263.5801 Q393.6807,263.5801,394.0857,262.8651 Q394.4907,262.1501,394.4907,260.9701 Q394.4907,259.7901,394.0857,259.0751 Q393.6807,258.3601,392.8007,258.3601 z M392.8007,264.5901 Q391.3707,264.5901,390.6607,263.6051 Q389.9507,262.6201,389.9507,260.9701 Q389.9507,259.3201,390.6607,258.3351 Q391.3707,257.3501,392.8007,257.3501 Q394.2307,257.3501,394.9407,258.3351 Q395.6507,259.3201,395.6507,260.9701 Q395.6507,262.6201,394.9407,263.6051 Q394.2307,264.5901,392.8007,264.5901 z" fill="rgb(0,0,0)" />
<path d="M403.0407,261.8001 Q403.5807,262.1601,403.5807,262.9201 Q403.5807,263.6801,403.0307,264.1351 Q402.4807,264.5901,401.6207,264.5901 Q401.0407,264.5901,400.4157,264.3801 Q399.7907,264.1701,399.3107,263.7901 L399.8507,262.9201 Q400.7807,263.6201,401.6507,263.6201 Q402.0307,263.6201,402.2507,263.4451 Q402.4707,263.2701,402.4707,263.0001 Q402.4707,262.6001,401.4107,262.2801 Q401.3307,262.2501,401.2907,262.2401 Q399.6307,261.7901,399.6307,260.7401 Q399.6307,260.0001,400.2057,259.5551 Q400.7807,259.1101,401.7007,259.1101 Q402.6207,259.1101,403.4407,259.6501 L403.0207,260.4801 Q402.3707,260.0501,401.6107,260.0501 Q401.2107,260.0501,400.9607,260.1951 Q400.7107,260.3401,400.7107,260.6301 Q400.7107,260.8901,400.9707,261.0101 Q401.1507,261.1001,401.4757,261.1801 Q401.8007,261.2601,402.0507,261.3401 Q402.3007,261.4201,402.5357,261.5201 Q402.7707,261.6201,403.0407,261.8001 z" fill="rgb(0,0,0)" />
<path d="M409.8007,261.5701 L409.8007,262.3401 L405.6307,262.3401 Q405.6707,262.9201,406.1607,263.2751 Q406.6507,263.6301,407.2807,263.6301 Q408.2807,263.6301,408.8007,263.0001 L409.4407,263.7001 Q408.5807,264.5901,407.2007,264.5901 Q406.0807,264.5901,405.2957,263.8451 Q404.5107,263.1001,404.5107,261.8451 Q404.5107,260.5901,405.3107,259.8501 Q406.1107,259.1101,407.1957,259.1101 Q408.2807,259.1101,409.0407,259.7651 Q409.8007,260.4201,409.8007,261.5701 z M406.1207,260.4451 Q405.6307,260.8201,405.6307,261.4601 L408.6807,261.4601 Q408.6807,260.7901,408.2607,260.4301 Q407.8407,260.0701,407.2257,260.0701 Q406.6107,260.0701,406.1207,260.4451 z" fill="rgb(0,0,0)" />
<path d="M415.6307,263.6101 Q414.6607,264.5901,413.3907,264.5901 Q412.2807,264.5901,411.4807,263.8351 Q410.6807,263.0801,410.6807,261.8601 Q410.6807,260.6401,411.5157,259.8751 Q412.3507,259.1101,413.5507,259.1101 Q414.7507,259.1101,415.5807,259.9401 L414.9207,260.7501 Q414.2307,260.1501,413.5307,260.1501 Q412.8307,260.1501,412.3157,260.6151 Q411.8007,261.0801,411.8007,261.8151 Q411.8007,262.5501,412.3107,263.0601 Q412.8207,263.5701,413.5657,263.5701 Q414.3107,263.5701,414.9707,262.8901 L415.6307,263.6101 z" fill="rgb(0,0,0)" />
<path d="M417.5607,261.8501 Q417.5607,262.6201,418.0357,263.1051 Q418.5107,263.5901,419.2407,263.5901 Q419.9707,263.5901,420.4457,263.1051 Q420.9207,262.6201,420.9207,261.8501 Q420.9207,261.0801,420.4457,260.5951 Q419.9707,260.1101,419.2407,260.1101 Q418.5107,260.1101,418.0357,260.5951 Q417.5607,261.0801,417.5607,261.8501 z M422.0407,261.8501 Q422.0407,263.0001,421.2407,263.7951 Q420.4407,264.5901,419.2407,264.5901 Q418.0407,264.5901,417.2407,263.7951 Q416.4407,263.0001,416.4407,261.8501 Q416.4407,260.7001,417.2407,259.9051 Q418.0407,259.1101,419.2407,259.1101 Q420.4407,259.1101,421.2407,259.9051 Q422.0407,260.7001,422.0407,261.8501 z" fill="rgb(0,0,0)" />
<path d="M424.8607,260.5051 Q424.4307,260.8901,424.4307,261.6301 L424.4307,264.5101 L423.3107,264.5101 L423.3107,259.1901 L424.4307,259.1901 L424.4307,260.1601 Q424.7007,259.6701,425.1757,259.3901 Q425.6507,259.1101,426.2007,259.1101 Q427.1007,259.1101,427.6557,259.6601 Q428.2107,260.2101,428.2107,261.2501 L428.2107,264.5101 L427.0907,264.5101 L427.0907,261.5901 Q427.0907,260.1201,425.8707,260.1201 Q425.2907,260.1201,424.8607,260.5051 z" fill="rgb(0,0,0)" />
<path d="M431.9407,264.5901 Q430.9307,264.5901,430.1807,263.8301 Q429.4307,263.0701,429.4307,261.8301 Q429.4307,260.5901,430.2007,259.8501 Q430.9707,259.1101,432.0357,259.1101 Q433.1007,259.1101,433.7507,260.0101 L433.7507,257.0901 L434.8707,257.0901 L434.8707,264.5101 L433.7507,264.5101 L433.7507,263.7101 Q433.1307,264.5901,431.9407,264.5901 z M431.0307,260.6001 Q430.5507,261.1101,430.5507,261.8751 Q430.5507,262.6401,431.0407,263.1201 Q431.5307,263.6001,432.1907,263.6001 Q432.8507,263.6001,433.3107,263.1151 Q433.7707,262.6301,433.7707,261.8701 Q433.7707,261.1101,433.3107,260.6001 Q432.8507,260.0901,432.1807,260.0901 Q431.5107,260.0901,431.0307,260.6001 z" fill="rgb(0,0,0)" />
</svg>